<svg width="27" height="27" viewBox="0 0 27 27" fill="none" xmlns="http://www.w3.org/2000/svg">
<path d="M5.625 24.75H21.375C21.6734 24.75 21.9595 24.6315 22.1705 24.4205C22.3815 24.2095 22.5 23.9234 22.5 23.625V7.875L17.4375 2.25H5.625C5.32663 2.25 5.04048 2.36853 4.82951 2.5795C4.61853 2.79048 4.5 3.07663 4.5 3.375V23.625C4.5 23.9234 4.61853 24.2095 4.82951 24.4205C5.04048 24.6315 5.32663 24.75 5.625 24.75Z" stroke="white" stroke-width="2" stroke-linecap="round" stroke-linejoin="round"/>
<path d="M11.8125 19.6875L17.4375 14.0625L15.1875 11.8125L9.5625 17.4375V19.6875H11.8125Z" stroke="white" stroke-width="2" stroke-linecap="round" stroke-linejoin="round"/>
<path d="M16.875 2.25V7.875H22.5" stroke="white" stroke-width="2" stroke-linecap="round" stroke-linejoin="round"/>
</svg>
