<svg width="157" height="28" viewBox="0 0 157 28" fill="none" xmlns="http://www.w3.org/2000/svg">
<path d="M21.6321 3.44679H23.1368V26.4441H18.5201V14.3979L12.8432 21.5161H11.3385L5.66165 14.3979V26.4441H1.04492V3.44679H2.54963L12.0909 15.6641L21.6321 3.44679ZM28.3303 26.4441V3.85746H32.947V26.4441H28.3303ZM52.6839 26.4441L51.4186 23.501H42.1851L40.9198 26.4441H35.9611L46.0495 3.44679H47.5884L57.6426 26.4441H52.6839ZM49.8113 19.7024L46.8019 12.0708L43.7924 19.7024H49.8113ZM67.3067 15.1508C67.2601 11.9106 68.4352 9.13857 70.8291 6.83479C73.2229 4.50768 76.0614 3.37835 79.3444 3.44679C81.488 3.44679 83.4248 3.94924 85.1581 4.95257C86.891 5.91127 88.3236 7.33306 89.296 9.05924L85.8063 11.5232C84.1881 8.99079 82.0336 7.72457 79.3428 7.72457C77.2443 7.72457 75.5018 8.43235 74.1105 9.84635C72.7426 11.2619 72.0587 13.0399 72.0587 15.185C72.0587 17.3301 72.7426 19.0972 74.1105 20.4895C75.5018 21.8817 77.2459 22.577 79.3428 22.577C82.032 22.577 84.1881 21.3108 85.8063 18.7783L89.2945 21.2423C88.3364 22.9765 86.9157 24.4102 85.1907 25.3832C83.4342 26.3632 81.4756 26.8548 79.3086 26.8548C76.0023 26.9232 73.153 25.8048 70.7591 23.501C68.3886 21.1739 67.2367 18.391 67.3051 15.1508H67.3067ZM92.9101 26.4441V0.777461H97.5269V26.4441H92.9101ZM102.094 26.4441V9.50413H106.71V26.4441H102.094ZM101.444 3.34413C101.444 2.52279 101.728 1.83835 102.299 1.29079C102.575 1.02217 102.901 0.811201 103.259 0.670186C103.617 0.529171 104 0.460936 104.385 0.469461C105.206 0.469461 105.9 0.743238 106.471 1.29079C107.063 1.83835 107.36 2.52279 107.36 3.34413C107.36 4.14213 107.065 4.81568 106.471 5.36324C106.195 5.63186 105.869 5.84283 105.51 5.98385C105.152 6.12486 104.77 6.1931 104.385 6.18457C103.564 6.18457 102.869 5.91079 102.299 5.36324C102.022 5.10566 101.804 4.79273 101.656 4.44484C101.509 4.09694 101.437 3.72189 101.444 3.34413ZM126.837 15.9379V26.4441H122.258V16.5539C122.258 15.5739 121.963 14.7852 121.369 14.1926C120.8 13.5766 120.048 13.2686 119.112 13.2686C118.177 13.2686 117.402 13.5766 116.786 14.1926C116.194 14.7852 115.897 15.5723 115.897 16.5539V26.4441H111.28V9.50413H115.521V11.0441C116.799 9.76702 118.451 9.12768 120.48 9.12768C122.441 9.12768 123.991 9.74368 125.131 10.9757C126.272 12.2077 126.84 13.8612 126.84 15.9379H126.837ZM131.285 26.4441V9.50413H135.901V26.4441H131.285ZM130.633 3.34413C130.633 2.52279 130.919 1.83835 131.488 1.29079C131.764 1.02217 132.091 0.811201 132.449 0.670186C132.807 0.529171 133.19 0.460936 133.574 0.469461C134.395 0.469461 135.092 0.743238 135.66 1.29079C136.254 1.83835 136.55 2.52279 136.55 3.34413C136.55 4.14213 136.254 4.81568 135.66 5.36324C135.385 5.63186 135.058 5.84283 134.7 5.98385C134.342 6.12486 133.959 6.1931 133.574 6.18457C132.754 6.18457 132.059 5.91079 131.488 5.36324C131.212 5.1056 130.993 4.79266 130.846 4.44478C130.699 4.0969 130.626 3.72188 130.633 3.34413ZM139.509 17.957C139.509 15.493 140.388 13.4055 142.144 11.6944C143.899 9.98324 146.043 9.12768 148.573 9.12768C151.901 9.12768 154.353 10.5199 155.926 13.3028L152.711 15.801C151.57 14.1583 150.215 13.337 148.642 13.337C147.342 13.337 146.27 13.7819 145.427 14.6717C144.606 15.5381 144.196 16.6332 144.196 17.957C144.196 19.3026 144.606 20.421 145.427 21.3108C146.27 22.1772 147.342 22.6112 148.642 22.6112C150.215 22.6112 151.57 21.8023 152.711 20.1815L155.926 22.6455C155.206 23.9355 154.155 25.0104 152.882 25.7597C151.628 26.4908 150.192 26.8548 148.573 26.8548C146.088 26.9015 143.944 26.0459 142.144 24.2881C140.342 22.5086 139.464 20.3992 139.511 17.957H139.509Z" fill="#2B4A6B"/>
</svg>
