<svg width="15" height="12" viewBox="0 0 15 12" fill="none" xmlns="http://www.w3.org/2000/svg"><path fill-rule="evenodd" clip-rule="evenodd" d="M12.652.014c-.03.014-1.725 1.826-3.767 4.027l-3.71 4.001-1.836-1.977C1.607 4.2 1.497 4.088 1.406 4.088c-.09 0-.145.052-.751.708-.557.602-.655.72-.655.795 0 .076.32.432 2.504 2.788 1.377 1.485 2.54 2.72 2.583 2.746.062.035.095.037.153.011.04-.018 2.057-2.17 4.481-4.782 3.862-4.162 4.407-4.76 4.407-4.837 0-.075-.096-.191-.655-.793-.36-.387-.68-.711-.71-.72a.188.188 0 0 0-.111.01Z" fill="#F3B216"/></svg>