<svg width="36" height="36" viewBox="0 0 36 36" fill="none" xmlns="http://www.w3.org/2000/svg">
<g clip-path="url(#clip0_110_614)">
<path d="M18 35.3022C27.5557 35.3022 35.3021 27.5558 35.3021 18.0001C35.3021 8.44441 27.5557 0.697998 18 0.697998C8.44429 0.697998 0.697876 8.44441 0.697876 18.0001C0.697876 27.5558 8.44429 35.3022 18 35.3022Z" fill="#FEFEFE" stroke="#EFB60B" stroke-width="1.39587"/>
<path d="M25.9101 16.0232L17.6686 24.2668C17.3561 24.5732 16.9359 24.7449 16.4982 24.7449C16.0606 24.7449 15.6404 24.5732 15.3279 24.2668L10.3829 19.3206C10.0725 19.0102 9.89818 18.5891 9.89819 18.15C9.8982 17.9326 9.94102 17.7174 10.0242 17.5165C10.1074 17.3157 10.2293 17.1332 10.383 16.9795C10.5367 16.8258 10.7191 16.7038 10.9199 16.6206C11.1207 16.5375 11.336 16.4946 11.5533 16.4947C11.9922 16.4947 12.4132 16.6691 12.7236 16.9796L16.4982 20.7713L23.5695 13.6822C23.8798 13.3717 24.3008 13.1973 24.7397 13.1973C25.1787 13.1972 25.5996 13.3716 25.91 13.6821C26.2204 13.9925 26.3948 14.4136 26.3948 14.8526C26.3949 15.2916 26.2205 15.7127 25.9101 16.0232Z" fill="#EFB60B"/>
</g>
<defs>
<clipPath id="clip0_110_614">
<rect width="36" height="36" fill="white"/>
</clipPath>
</defs>
</svg>
