<svg width="17" height="17" viewBox="0 0 17 17" fill="none" xmlns="http://www.w3.org/2000/svg"><g clip-path="url(#a)"><path d="M16.188.813a2.569 2.569 0 0 0-3.63 0l-11.52 11.52A3.518 3.518 0 0 0 0 14.838v1.455A.708.708 0 0 0 .708 17h1.455a3.518 3.518 0 0 0 2.504-1.037l11.52-11.521a2.568 2.568 0 0 0 0-3.629ZM3.665 14.961c-.4.397-.94.62-1.502.622h-.746v-.746a2.11 2.11 0 0 1 .622-1.502l8.743-8.743 1.63 1.63-8.747 8.74Zm11.52-11.52L13.41 5.215l-1.629-1.625 1.776-1.776a1.15 1.15 0 1 1 1.625 1.629l.003-.004Z" fill="#97C32E"/></g><defs><clipPath id="a"><path fill="#fff" d="M0 0h17v17H0z"/></clipPath></defs></svg>