<svg width="44" height="45" viewBox="0 0 44 45" fill="none" xmlns="http://www.w3.org/2000/svg">
<g clip-path="url(#clip0_110_782)">
<path d="M22 44.6875C34.1503 44.6875 44 34.8378 44 22.6875C44 10.5372 34.1503 0.6875 22 0.6875C9.84974 0.6875 0 10.5372 0 22.6875C0 34.8378 9.84974 44.6875 22 44.6875Z" fill="#FEF5D8"/>
<path d="M22.0019 40.1736C31.6598 40.1736 39.489 32.3443 39.489 22.6864C39.489 13.0285 31.6598 5.19922 22.0019 5.19922C12.3439 5.19922 4.51465 13.0285 4.51465 22.6864C4.51465 32.3443 12.3439 40.1736 22.0019 40.1736Z" fill="url(#paint0_linear_110_782)"/>
<path d="M18.6787 18.6886C18.6787 17.7873 19.6745 17.2418 20.4341 17.727L26.8166 21.8047C27.5188 22.2534 27.5188 23.2791 26.8166 23.7278L20.4341 27.8055C19.6745 28.2908 18.6787 27.7453 18.6787 26.844V18.6886Z" fill="white"/>
</g>
<defs>
<linearGradient id="paint0_linear_110_782" x1="15.6382" y1="-25.0433" x2="59.4537" y2="-5.38202" gradientUnits="userSpaceOnUse">
<stop stop-color="#DAA400"/>
<stop offset="0.443705" stop-color="#EFB60B"/>
<stop offset="1" stop-color="#FAD566"/>
</linearGradient>
<clipPath id="clip0_110_782">
<rect width="44" height="45" fill="white"/>
</clipPath>
</defs>
</svg>
