<svg width="14" height="8" viewBox="0 0 14 8" fill="none" xmlns="http://www.w3.org/2000/svg">
<g clip-path="url(#clip0_110_807)">
<path d="M0.646039 4.35401C0.599476 4.30757 0.562533 4.25239 0.537327 4.19165C0.51212 4.1309 0.499146 4.06578 0.499146 4.00001C0.499146 3.93425 0.51212 3.86913 0.537327 3.80838C0.562533 3.74764 0.599476 3.69246 0.646039 3.64601L3.82804 0.464014C3.92193 0.370128 4.04926 0.317383 4.18204 0.317383C4.31482 0.317383 4.44215 0.370128 4.53604 0.464014C4.62993 0.557901 4.68267 0.685239 4.68267 0.818014C4.68267 0.95079 4.62993 1.07813 4.53604 1.17201L1.70704 4.00001L4.53604 6.82801C4.58253 6.8745 4.6194 6.92969 4.64456 6.99043C4.66972 7.05117 4.68267 7.11627 4.68267 7.18201C4.68267 7.24776 4.66972 7.31286 4.64456 7.3736C4.6194 7.43434 4.58253 7.48953 4.53604 7.53601C4.48955 7.5825 4.43436 7.61938 4.37362 7.64454C4.31288 7.6697 4.24778 7.68265 4.18204 7.68265C4.1163 7.68265 4.0512 7.6697 3.99046 7.64454C3.92972 7.61938 3.87453 7.5825 3.82804 7.53601L0.646039 4.35401ZM14 4.50001H1.00004V3.50001H14V4.50001Z" fill="white"/>
</g>
<defs>
<clipPath id="clip0_110_807">
<rect width="14" height="8" fill="white"/>
</clipPath>
</defs>
</svg>
