<svg width="18" height="18" viewBox="0 0 18 18" fill="none" xmlns="http://www.w3.org/2000/svg">
<path d="M2.8125 14.6251C2.8125 15.2218 3.04955 15.7941 3.47151 16.216C3.89347 16.638 4.46576 16.8751 5.0625 16.8751H8.29688C8.33417 16.8751 8.36994 16.8602 8.39631 16.8339C8.42268 16.8075 8.4375 16.7717 8.4375 16.7344V10.2657C8.4375 10.2284 8.42268 10.1926 8.39631 10.1662C8.36994 10.1399 8.33417 10.1251 8.29688 10.1251H3.09375C3.01916 10.1251 2.94762 10.1547 2.89488 10.2074C2.84213 10.2602 2.8125 10.3317 2.8125 10.4063V14.6251ZM8.4375 8.85943V5.06256H9.5625V8.85943C9.5625 8.89673 9.57732 8.9325 9.60369 8.95887C9.63006 8.98524 9.66583 9.00006 9.70312 9.00006H14.625C14.8166 9.00005 15.0069 8.96736 15.1875 8.90338C15.5162 8.78667 15.8008 8.57113 16.0022 8.28633C16.2036 8.00152 16.312 7.66138 16.3125 7.31256V6.75006C16.3125 6.3025 16.1347 5.87328 15.8182 5.55681C15.5018 5.24035 15.0726 5.06256 14.625 5.06256H13.1998C13.1875 5.06236 13.1755 5.05897 13.165 5.05272C13.1545 5.04647 13.1458 5.03757 13.1397 5.02692C13.1337 5.01626 13.1305 5.00421 13.1306 4.99197C13.1306 4.97972 13.1339 4.96769 13.14 4.95709C13.4655 4.40755 13.5712 3.75529 13.4359 3.13108C13.3007 2.50687 12.9345 1.95687 12.4107 1.59136C11.8869 1.22584 11.2444 1.07184 10.6118 1.16023C9.97926 1.24862 9.40351 1.57286 9 2.06795C8.59649 1.57286 8.02074 1.24862 7.38819 1.16023C6.75564 1.07184 6.11306 1.22584 5.5893 1.59136C5.06553 1.95687 4.69931 2.50687 4.56405 3.13108C4.4288 3.75529 4.53451 4.40755 4.86 4.95709C4.86613 4.96769 4.86937 4.97972 4.86942 4.99197C4.86947 5.00421 4.86632 5.01626 4.86029 5.02692C4.85425 5.03757 4.84553 5.04647 4.835 5.05272C4.82446 5.05897 4.81248 5.06236 4.80023 5.06256H3.375C2.92745 5.06256 2.49822 5.24035 2.18176 5.55681C1.86529 5.87328 1.6875 6.3025 1.6875 6.75006V7.31256C1.688 7.66138 1.79638 8.00152 1.99779 8.28633C2.1992 8.57113 2.48378 8.78667 2.8125 8.90338C2.99314 8.96736 3.18337 9.00005 3.375 9.00006H8.29688C8.33417 9.00006 8.36994 8.98524 8.39631 8.95887C8.42268 8.9325 8.4375 8.89673 8.4375 8.85943ZM9.5625 3.65631C9.5625 3.37818 9.64498 3.10629 9.7995 2.87504C9.95402 2.64378 10.1736 2.46354 10.4306 2.3571C10.6876 2.25067 10.9703 2.22282 11.2431 2.27708C11.5159 2.33134 11.7665 2.46527 11.9631 2.66194C12.1598 2.85861 12.2937 3.10918 12.348 3.38196C12.4022 3.65475 12.3744 3.9375 12.268 4.19446C12.1615 4.45141 11.9813 4.67104 11.75 4.82556C11.5188 4.98008 11.2469 5.06256 10.9688 5.06256H9.5625V3.65631ZM6.9307 2.25357C7.12336 2.23976 7.31679 2.26579 7.49895 2.33003C7.6811 2.39427 7.84807 2.49534 7.98944 2.62695C8.13081 2.75856 8.24356 2.91788 8.32065 3.09498C8.39773 3.27208 8.43751 3.46316 8.4375 3.65631V5.06256H7.03125C6.66763 5.06162 6.3185 4.91987 6.05714 4.66706C5.79578 4.41424 5.64252 4.07001 5.62951 3.70662C5.6165 3.34323 5.74476 2.98892 5.98737 2.71807C6.22998 2.44721 6.56808 2.28086 6.9307 2.25392V2.25357ZM9.70312 16.8751H12.9375C13.5342 16.8751 14.1065 16.638 14.5285 16.216C14.9504 15.7941 15.1875 15.2218 15.1875 14.6251V10.4063C15.1875 10.3317 15.1579 10.2602 15.1051 10.2074C15.0524 10.1547 14.9808 10.1251 14.9062 10.1251H9.70312C9.66583 10.1251 9.63006 10.1399 9.60369 10.1662C9.57732 10.1926 9.5625 10.2284 9.5625 10.2657V16.7344C9.5625 16.7717 9.57732 16.8075 9.60369 16.8339C9.63006 16.8602 9.66583 16.8751 9.70312 16.8751Z" fill="#FFE596"/>
</svg>
