<svg width="42" height="28" viewBox="0 0 42 28" fill="none" xmlns="http://www.w3.org/2000/svg">
<g clip-path="url(#clip0_110_790)">
<path d="M38.7248 24.6629C37.9436 25.4652 37.0129 26.1214 35.9259 26.6299C34.9149 27.0737 33.7993 27.3 32.5697 27.3C31.4011 27.3 30.2843 27.0768 29.214 26.6298C28.1829 26.123 27.2774 25.4676 26.4939 24.6629C25.7101 23.8578 25.0704 22.9259 24.5752 21.8627C24.1391 20.7609 23.9188 19.58 23.9188 18.314C23.9188 16.3465 24.0738 14.578 24.3793 13.0049C24.737 11.4336 25.2458 9.97207 25.904 8.61809C26.6218 7.25021 27.4951 5.90456 28.5257 4.58133C29.4741 3.36368 30.5551 2.12039 31.7697 0.851562L36.3562 3.07972C36.1286 3.37139 35.911 3.68524 35.703 4.02051C35.3664 4.53992 35.0104 5.18913 34.6347 5.96109C34.2507 6.74995 33.8967 7.61784 33.5719 8.56325L33.3107 9.32338L34.0995 9.4777C36.1548 9.87981 37.8622 10.9042 39.2414 12.5737C40.6164 14.2383 41.2999 16.1425 41.2999 18.314C41.2999 19.5769 41.0546 20.7552 40.5673 21.8563L40.5643 21.8631L40.5614 21.87C40.1192 22.9297 39.5074 23.859 38.7248 24.6629ZM1.31406 12.619L1.31535 12.6136C1.67284 11.0924 2.18202 9.68154 2.8411 8.37877C3.5588 7.01044 4.40443 5.72089 5.37845 4.50966C6.32879 3.33837 7.389 2.12045 8.55963 0.855834L13.1373 3.07972C12.9098 3.37138 12.6922 3.68522 12.4842 4.02049C12.1476 4.5399 11.7916 5.18911 11.4158 5.96109C11.0318 6.74994 10.6778 7.61784 10.353 8.56325L10.0918 9.32338L10.8806 9.4777C12.9359 9.87981 14.6433 10.9042 16.0225 12.5737C17.3976 14.2383 18.081 16.1425 18.081 18.314C18.081 19.5769 17.8357 20.7552 17.3485 21.8563L17.3454 21.8631L17.3426 21.87C16.9004 22.9297 16.2885 23.859 15.5059 24.6629C14.7248 25.4652 13.7941 26.1214 12.707 26.6299C11.696 27.0737 10.5804 27.3 9.35089 27.3C8.18225 27.3 7.06551 27.0768 5.99521 26.6298C4.97289 26.1271 4.07198 25.4507 3.28963 24.5969C2.50622 23.7419 1.86349 22.7311 1.36469 21.5574C0.925763 20.3485 0.700947 19.0019 0.699951 17.51C0.752099 15.7095 0.958367 14.0804 1.31406 12.619Z" stroke="#000066" stroke-width="1.4"/>
</g>
<defs>
<clipPath id="clip0_110_790">
<rect width="42" height="28" fill="white"/>
</clipPath>
</defs>
</svg>
