<svg width="19" height="14" viewBox="0 0 19 14" fill="none" xmlns="http://www.w3.org/2000/svg">
<path d="M18.4418 3.62908L8.94952 12.9095C8.58961 13.2545 8.10565 13.4478 7.60159 13.4478C7.09752 13.4478 6.61356 13.2545 6.25365 12.9095L0.558271 7.34125C0.200799 6.99174 -1.66879e-05 6.51771 1.04012e-09 6.02344C8.26455e-06 5.7787 0.0493214 5.53636 0.145125 5.31026C0.240928 5.08415 0.381346 4.87871 0.558359 4.70566C0.735373 4.53261 0.945516 4.39534 1.17679 4.30169C1.40807 4.20804 1.65594 4.15985 1.90627 4.15985C2.41183 4.15987 2.89667 4.35623 3.25414 4.70575L7.60159 8.97439L15.7459 0.99366C16.1033 0.644148 16.5882 0.447778 17.0937 0.447754C17.5993 0.447729 18.0841 0.644052 18.4416 0.99353C18.7991 1.34301 19 1.81702 19 2.31128C19 2.80554 18.7992 3.27957 18.4418 3.62908Z" fill="white"/>
</svg>
