<svg width="15" height="13" viewBox="0 0 15 13" fill="none" xmlns="http://www.w3.org/2000/svg">
<g clip-path="url(#clip0_110_593)">
<path fill-rule="evenodd" clip-rule="evenodd" d="M7.07874 1.03018C7.38769 1.36722 7.36493 1.89089 7.02789 2.19984L3.23987 5.6722H13.6248C14.082 5.6722 14.4527 6.04284 14.4527 6.50006C14.4527 6.95727 14.082 7.32792 13.6248 7.32792H3.45363L7.02789 10.6043C7.36493 10.9133 7.38769 11.437 7.07874 11.774C6.76979 12.111 6.24612 12.1338 5.90908 11.8248L0.659079 7.01234C0.48802 6.85554 0.390625 6.63414 0.390625 6.40208C0.390625 6.17003 0.48802 5.94863 0.659079 5.79182L5.90908 0.979323C6.24612 0.670372 6.76979 0.693141 7.07874 1.03018Z" fill="#000066"/>
</g>
<defs>
<clipPath id="clip0_110_593">
<rect width="15" height="13" fill="white"/>
</clipPath>
</defs>
</svg>
