<svg width="38" height="38" viewBox="0 0 38 38" fill="none" xmlns="http://www.w3.org/2000/svg">
<g clip-path="url(#clip0_1_2)">
<mask id="mask0_1_2" style="mask-type:luminance" maskUnits="userSpaceOnUse" x="0" y="0" width="38" height="38">
<path d="M0 19C0 29.4934 8.50659 38 19 38C29.4934 38 38 29.4934 38 19C38 8.50659 29.4934 0 19 0C8.50659 0 0 8.50659 0 19Z" fill="white"/>
</mask>
<g mask="url(#mask0_1_2)">
<path d="M31.203 37.3524C23.0934 38.2176 14.9148 38.2176 6.80523 37.3524C5.23043 37.1861 3.7602 36.485 2.63968 35.366C1.51915 34.2471 0.816014 32.7779 0.647502 31.2033C-0.217686 23.0938 -0.217686 14.9151 0.647502 6.8056C0.813802 5.23079 1.51487 3.76057 2.63383 2.64004C3.75279 1.51952 5.22203 0.816382 6.79659 0.647869C14.9062 -0.21732 23.0848 -0.21732 31.1943 0.647869C32.7691 0.81417 34.2393 1.51524 35.3599 2.6342C36.4804 3.75316 37.1835 5.22239 37.3521 6.79696C38.2172 14.9065 38.2172 23.0851 37.3521 31.1947C37.1857 32.7695 36.4847 34.2397 35.3657 35.3603C34.2468 36.4807 32.7775 37.1839 31.203 37.3524Z" fill="#E60000"/>
<path d="M30.3201 13.287C29.8451 11.8253 28.2733 10.9401 26.8267 10.7371C21.6236 10.1844 16.3765 10.1844 11.1733 10.7371C9.72675 10.9401 8.15057 11.8167 7.67994 13.287C6.93937 17.0604 6.93937 20.9417 7.67994 24.7151C8.15494 26.1746 9.72675 27.062 11.1733 27.265C16.3765 27.8177 21.6236 27.8177 26.8267 27.265C28.2733 27.062 29.8495 26.1854 30.3201 24.7151C31.0607 20.9417 31.0607 17.0604 30.3201 13.287ZM16.1587 23.5514V14.4486L23.5687 19C21.0706 20.5351 18.6459 22.0227 16.1587 23.5514Z" fill="white"/>
</g>
</g>
<defs>
<clipPath id="clip0_1_2">
<rect width="38" height="38" fill="white"/>
</clipPath>
</defs>
</svg>
