<svg width="36" height="36" viewBox="0 0 36 36" fill="none" xmlns="http://www.w3.org/2000/svg">
<path d="M29.426 9.1001H6.97197C5.99277 9.1001 5.19897 9.89367 5.19897 10.8726C5.19897 11.8515 5.99277 12.6451 6.97197 12.6451H29.426C30.4052 12.6451 31.199 11.8515 31.199 10.8726C31.199 9.89367 30.4052 9.1001 29.426 9.1001Z" fill="#FEFEFE"/>
<path d="M29.426 23.282H6.97197C5.99277 23.282 5.19897 24.0756 5.19897 25.0545C5.19897 26.0334 5.99277 26.827 6.97197 26.827H29.426C30.4052 26.827 31.199 26.0334 31.199 25.0545C31.199 24.0756 30.4052 23.282 29.426 23.282Z" fill="#FEFEFE"/>
<path d="M29.427 16.1899H14.064C13.0848 16.1899 12.291 16.9835 12.291 17.9624C12.291 18.9414 13.0848 19.7349 14.064 19.7349H29.427C30.4062 19.7349 31.2 18.9414 31.2 17.9624C31.2 16.9835 30.4062 16.1899 29.427 16.1899Z" fill="#FEFEFE"/>
</svg>
