<svg width="28" height="28" viewBox="0 0 28 28" fill="none" xmlns="http://www.w3.org/2000/svg">
<path d="M24.3217 17.3318L19.1691 15.0229L19.1549 15.0164C18.8874 14.902 18.5956 14.856 18.3059 14.8828C18.0161 14.9095 17.7377 15.0081 17.4956 15.1695C17.4671 15.1883 17.4397 15.2088 17.4136 15.2307L14.7514 17.5003C13.0649 16.681 11.3236 14.9529 10.5044 13.2882L12.7772 10.5856C12.7991 10.5582 12.8199 10.5309 12.8395 10.5014C12.9975 10.26 13.0934 9.98328 13.1185 9.69589C13.1437 9.40851 13.0975 9.11936 12.9839 8.85417V8.84105L10.6684 3.67964C10.5183 3.33321 10.2602 3.04463 9.93256 2.85697C9.60494 2.6693 9.22541 2.59263 8.85064 2.63839C7.36857 2.83341 6.00818 3.56126 5.02353 4.686C4.03889 5.81073 3.49733 7.25543 3.50001 8.75027C3.50001 17.4346 10.5656 24.5003 19.25 24.5003C20.7449 24.5029 22.1895 23.9614 23.3143 22.9767C24.439 21.9921 25.1669 20.6317 25.3619 19.1496C25.4077 18.775 25.3312 18.3956 25.1438 18.068C24.9563 17.7404 24.668 17.4821 24.3217 17.3318Z" fill="#FEFEFE"/>
</svg>
