<svg width="50" height="50" viewBox="0 0 50 50" fill="none" xmlns="http://www.w3.org/2000/svg">
<g id="ant-design:whats-app-outlined">
<path id="Vector" d="M33.7515 29.1468C33.2371 28.8826 30.6743 27.6273 30.1976 27.4574C29.7209 27.2781 29.3716 27.1931 29.0271 27.7217C28.6778 28.2455 27.6867 29.4111 27.3752 29.765C27.0731 30.1142 26.7663 30.1567 26.2519 29.8972C23.1935 28.3682 21.1876 27.1695 19.1723 23.7105C18.639 22.7902 19.7056 22.8563 20.7015 20.8696C20.8714 20.5204 20.7864 20.2231 20.6543 19.9588C20.5221 19.6945 19.4838 17.1368 19.0496 16.0939C18.6295 15.0793 18.1953 15.2209 17.8791 15.202C17.577 15.1831 17.2325 15.1831 16.8832 15.1831C16.534 15.1831 15.9723 15.3152 15.4956 15.8296C15.0189 16.3534 13.6738 17.6134 13.6738 20.1712C13.6738 22.7289 15.5381 25.2064 15.793 25.5556C16.0573 25.9048 19.4602 31.1524 24.6849 33.4129C27.9887 34.838 29.2819 34.9607 30.9338 34.7153C31.9391 34.5643 34.0111 33.46 34.4406 32.2378C34.8701 31.0203 34.8701 29.9774 34.7427 29.7603C34.6152 29.5291 34.266 29.3969 33.7515 29.1468Z" fill="white"/>
<path id="Vector_2" d="M45.1972 16.5141C44.0925 13.8892 42.5089 11.5333 40.4902 9.50965C38.4715 7.49093 36.1155 5.90235 33.4859 4.80256C30.7975 3.67345 27.943 3.10156 25.0005 3.10156H24.9027C21.9407 3.11623 19.0715 3.70278 16.3734 4.85633C13.7682 5.97078 11.4318 7.55447 9.43262 9.57319C7.43347 11.5919 5.86447 13.9381 4.77936 16.5532C3.65515 19.2611 3.08815 22.1401 3.10282 25.1022C3.11748 28.4944 3.92887 31.8622 5.449 34.8732V42.3028C5.449 43.5444 6.4559 44.5513 7.69742 44.5513H15.1319C18.1428 46.0714 21.5106 46.8828 24.9027 46.8975H25.0054C27.9332 46.8975 30.7731 46.3305 33.4467 45.2209C36.0618 44.1309 38.4128 42.5668 40.4266 40.5676C42.4453 38.5684 44.0339 36.232 45.1434 33.6267C46.297 30.9286 46.8835 28.0594 46.8982 25.0973C46.9128 22.1205 46.3361 19.2318 45.1972 16.5141ZM37.8116 37.9232C34.3852 41.3155 29.8395 43.1826 25.0005 43.1826H24.9174C21.97 43.168 19.0422 42.4348 16.4565 41.0564L16.0459 40.8364H9.16378V33.9542L8.94383 33.5436C7.56545 30.9579 6.83227 28.03 6.8176 25.0826C6.79805 20.2093 8.66033 15.6342 12.077 12.1882C15.4887 8.74224 20.0491 6.83595 24.9223 6.81639H25.0054C27.4493 6.81639 29.8199 7.29052 32.0537 8.22901C34.2337 9.14305 36.1888 10.4579 37.8703 12.1394C39.5468 13.8159 40.8665 15.776 41.7806 17.956C42.7288 20.2142 43.2029 22.6093 43.1932 25.0826C43.1638 29.951 41.2527 34.5114 37.8116 37.9232Z" fill="white"/>
</g>
</svg>
