<svg width="38" height="38" viewBox="0 0 38 38" fill="none" xmlns="http://www.w3.org/2000/svg">
<g clip-path="url(#clip0_765_6716)">
<path d="M38 19C38 29.4927 29.4927 38 19 38C8.50725 38 0 29.4927 0 19C0 8.50725 8.50725 0 19 0C29.4927 0 38 8.50725 38 19Z" fill="#40B3E0"/>
<path d="M8.17362 18.2307C14.4701 15.3787 22.6177 11.9015 23.7428 11.4201C26.6928 10.1605 27.5981 10.4017 27.1468 13.1916C26.8226 15.1969 25.8875 21.835 25.1417 25.967C24.6994 28.4174 23.7067 28.7078 22.1466 27.6476C21.3962 27.1375 17.6084 24.5581 16.786 23.9525C16.0357 23.4006 15.0007 22.7365 16.2987 21.4287C16.7608 20.9631 19.7883 17.9859 22.1475 15.669C22.4565 15.3647 22.0682 14.8648 21.7115 15.1088C18.5317 17.28 14.1233 20.2935 13.5621 20.6858C12.7145 21.2785 11.9002 21.5502 10.4391 21.118C9.33473 20.7915 8.25649 20.402 7.83672 20.2536C6.21981 19.6823 6.60355 18.9421 8.17362 18.2307Z" fill="white"/>
</g>
<defs>
<clipPath id="clip0_765_6716">
<rect width="38" height="38" fill="white"/>
</clipPath>
</defs>
</svg>
