<svg width="32" height="32" viewBox="0 0 32 32" fill="none" xmlns="http://www.w3.org/2000/svg">
<g clip-path="url(#clip0_110_583)">
<path d="M16 31.3847C24.4966 31.3847 31.3846 24.4968 31.3846 16.0001C31.3846 7.5034 24.4966 0.615479 16 0.615479C7.50328 0.615479 0.615356 7.5034 0.615356 16.0001C0.615356 24.4968 7.50328 31.3847 16 31.3847Z" fill="#F3F4FB" stroke="#2C7ED5" stroke-width="1.23077"/>
<path d="M22.8456 14.1264L15.5788 21.395C15.3033 21.6652 14.9328 21.8166 14.5469 21.8166C14.1611 21.8166 13.7906 21.6652 13.515 21.395L9.15492 17.0339C8.88126 16.7601 8.72753 16.3889 8.72754 16.0017C8.72755 15.8101 8.7653 15.6202 8.83864 15.4432C8.91198 15.2661 9.01948 15.1052 9.15499 14.9696C9.2905 14.8341 9.45138 14.7266 9.62843 14.6532C9.80548 14.5799 9.99525 14.5421 10.1869 14.5421C10.5739 14.5422 10.9451 14.696 11.2187 14.9697L14.5469 18.313L20.7818 12.0623C21.0555 11.7886 21.4266 11.6348 21.8137 11.6348C22.2007 11.6347 22.5719 11.7885 22.8455 12.0622C23.1192 12.3359 23.273 12.7072 23.273 13.0943C23.273 13.4814 23.1193 13.8527 22.8456 14.1264Z" fill="#2C7ED5"/>
</g>
<defs>
<clipPath id="clip0_110_583">
<rect width="32" height="32" fill="white"/>
</clipPath>
</defs>
</svg>
