<svg width="40" height="40" viewBox="0 0 40 40" fill="none" xmlns="http://www.w3.org/2000/svg">
<rect width="40" height="40" rx="20" fill="#FA5454"/>
<path d="M20.1891 28.2936C17.7356 28.2162 15.4024 28.1561 13.0692 28.0659C12.5664 28.0444 12.0551 27.967 11.5653 27.851C10.6457 27.6362 10.0098 27.0819 9.68323 26.1752C9.42112 25.4448 9.32659 24.6928 9.25784 23.928C9.10745 22.1319 9.10745 20.3358 9.18049 18.5397C9.22346 17.5256 9.24924 16.503 9.51995 15.519C9.68323 14.9303 9.88088 14.3545 10.3578 13.9291C10.8606 13.478 11.4492 13.2073 12.1196 13.1772C13.9586 13.0869 15.7934 12.9752 17.6324 12.958C20.1074 12.9323 22.5867 12.9666 25.0617 13.0139C26.1317 13.0354 27.2102 13.0912 28.2715 13.2287C29.2426 13.3577 29.9688 13.8991 30.3555 14.8444C30.652 15.5705 30.7637 16.3311 30.8281 17.1045C30.9957 19.0424 31 20.9803 30.9055 22.9182C30.8582 23.9022 30.811 24.8905 30.5317 25.8487C30.2137 26.9487 29.5391 27.6748 28.4133 27.9241C27.975 28.0186 27.5196 28.053 27.0727 28.0702C24.7352 28.1518 22.402 28.2248 20.1891 28.2936ZM17.8129 23.408C19.7723 22.394 21.7102 21.3885 23.6867 20.3616C21.7145 19.3303 19.7766 18.3205 17.8129 17.2936C17.8129 19.3432 17.8129 21.3584 17.8129 23.408Z" fill="#FEFEFE"/>
</svg>