<svg width="40" height="40" viewBox="0 0 40 40" fill="none" xmlns="http://www.w3.org/2000/svg">
<g clip-path="url(#clip0_110_586)">
<path d="M40 20C40 8.9543 31.0457 0 20 0C8.9543 0 0 8.9543 0 20C0 31.0457 8.9543 40 20 40C31.0457 40 40 31.0457 40 20Z" fill="#2C7ED5"/>
<mask id="mask0_110_586" style="mask-type:luminance" maskUnits="userSpaceOnUse" x="8" y="10" width="22" height="22">
<path d="M30 10H8V32H30V10Z" fill="white"/>
</mask>
<g mask="url(#mask0_110_586)">
<path d="M29.8834 26.0585C29.8567 26.0011 29.8319 25.9535 29.8088 25.9153C29.4271 25.2278 28.6977 24.384 27.621 23.3837L27.5983 23.3607L27.5869 23.3495L27.5754 23.338H27.5638C27.0751 22.8722 26.7657 22.559 26.6361 22.3986C26.399 22.0931 26.3459 21.7839 26.4755 21.4706C26.567 21.2339 26.9109 20.734 27.5064 19.9703C27.8196 19.5655 28.0677 19.2411 28.2509 18.9967C29.572 17.2402 30.1448 16.1178 29.9691 15.6291L29.9009 15.5148C29.855 15.4461 29.7367 15.3832 29.546 15.3258C29.3548 15.2686 29.1105 15.2591 28.8127 15.2972L25.5138 15.32C25.4604 15.3011 25.3841 15.3029 25.2847 15.3258C25.1854 15.3488 25.1357 15.3603 25.1357 15.3603L25.0783 15.389L25.0327 15.4234C24.9945 15.4462 24.9525 15.4863 24.9067 15.5436C24.8611 15.6007 24.8229 15.6677 24.7924 15.744C24.4333 16.668 24.0249 17.5271 23.5666 18.3212C23.2841 18.7948 23.0246 19.2051 22.7876 19.5526C22.5509 19.9 22.3524 20.1559 22.1921 20.32C22.0317 20.4842 21.8868 20.6157 21.7568 20.7151C21.6269 20.8145 21.5277 20.8565 21.4591 20.8411C21.3903 20.8258 21.3255 20.8105 21.2642 20.7953C21.1573 20.7265 21.0714 20.633 21.0066 20.5147C20.9415 20.3963 20.8977 20.2473 20.8748 20.0679C20.852 19.8883 20.8385 19.7338 20.8347 19.604C20.8311 19.4743 20.8328 19.2908 20.8405 19.0541C20.8484 18.8173 20.852 18.657 20.852 18.573C20.852 18.2828 20.8577 17.9678 20.869 17.628C20.8806 17.2882 20.8899 17.0189 20.8977 16.8206C20.9055 16.622 20.9091 16.412 20.9091 16.1905C20.9091 15.969 20.8957 15.7954 20.869 15.6693C20.8427 15.5434 20.8023 15.4212 20.7491 15.3027C20.6955 15.1844 20.6171 15.0928 20.5142 15.0278C20.4112 14.9629 20.283 14.9114 20.1305 14.8731C19.7258 14.7815 19.2103 14.732 18.584 14.7243C17.1638 14.709 16.2512 14.8008 15.8464 14.9993C15.6861 15.0832 15.541 15.1978 15.4112 15.3428C15.2737 15.5109 15.2545 15.6026 15.3538 15.6177C15.812 15.6863 16.1365 15.8505 16.3274 16.1101L16.3962 16.2477C16.4497 16.347 16.5031 16.5227 16.5566 16.7746C16.61 17.0266 16.6445 17.3053 16.6597 17.6106C16.6978 18.1682 16.6978 18.6454 16.6597 19.0425C16.6214 19.4396 16.5853 19.7488 16.5508 19.9703C16.5164 20.1918 16.4649 20.3712 16.3962 20.5086C16.3274 20.6461 16.2816 20.7301 16.2587 20.7606C16.2357 20.7911 16.2167 20.8103 16.2015 20.8178C16.1022 20.8559 15.999 20.8752 15.8922 20.8752C15.7852 20.8752 15.6554 20.8217 15.5027 20.7148C15.3501 20.6078 15.1916 20.4609 15.0274 20.2738C14.8632 20.0866 14.678 19.8251 14.4718 19.4891C14.2657 19.1531 14.0518 18.7561 13.8304 18.2979L13.6471 17.9656C13.5326 17.7519 13.3761 17.4406 13.1776 17.0322C12.9789 16.6236 12.8033 16.2283 12.6506 15.8465C12.5896 15.6861 12.4979 15.564 12.3758 15.48L12.3185 15.4456C12.2803 15.4151 12.2192 15.3827 12.1352 15.3482C12.0512 15.3137 11.9635 15.289 11.8718 15.2738L8.73323 15.2966C8.41251 15.2966 8.1949 15.3693 8.08032 15.5144L8.03446 15.583C8.01155 15.6212 8 15.6823 8 15.7664C8 15.8504 8.02291 15.9535 8.06877 16.0756C8.52693 17.1524 9.02518 18.1909 9.56351 19.1912C10.1018 20.1916 10.5696 20.9974 10.9666 21.6079C11.3637 22.2189 11.7684 22.7955 12.1808 23.3376C12.5932 23.8798 12.8662 24.2273 12.9997 24.3799C13.1334 24.5328 13.2385 24.6472 13.3148 24.7235L13.6012 24.9984C13.7845 25.1817 14.0536 25.4012 14.4087 25.657C14.7639 25.9129 15.1571 26.1649 15.5886 26.4133C16.0201 26.6612 16.5221 26.8636 17.0949 27.0201C17.6676 27.1768 18.225 27.2396 18.7673 27.2093H20.0846C20.3517 27.1862 20.5541 27.1022 20.6917 26.9572L20.7373 26.8998C20.7679 26.8543 20.7966 26.7834 20.8231 26.6882C20.8499 26.5927 20.8632 26.4876 20.8632 26.3732C20.8554 26.0449 20.8804 25.749 20.9375 25.4856C20.9946 25.2222 21.0597 25.0237 21.1324 24.89C21.2052 24.7564 21.2873 24.6436 21.3786 24.5522C21.4702 24.4606 21.5354 24.4051 21.5737 24.3861C21.6117 24.3668 21.6421 24.3538 21.665 24.346C21.8483 24.2849 22.0639 24.344 22.3124 24.5237C22.5606 24.7031 22.7934 24.9247 23.0112 25.188C23.2288 25.4516 23.4903 25.7474 23.7957 26.0757C24.1013 26.4041 24.3685 26.6482 24.5975 26.8088L24.8265 26.9463C24.9795 27.038 25.178 27.122 25.4224 27.1983C25.6664 27.2746 25.8801 27.2937 26.0637 27.2556L28.9959 27.2098C29.2859 27.2098 29.5116 27.1618 29.6717 27.0665C29.8321 26.9711 29.9274 26.8659 29.9581 26.7516C29.9888 26.6371 29.9904 26.5071 29.9639 26.3619C29.9368 26.217 29.91 26.1157 29.8834 26.0585Z" fill="#FEFEFE"/>
</g>
</g>
<defs>
<clipPath id="clip0_110_586">
<rect width="40" height="40" fill="white"/>
</clipPath>
</defs>
</svg>
