<svg width="30" height="38" viewBox="0 0 30 38" fill="none" xmlns="http://www.w3.org/2000/svg">
<g clip-path="url(#clip0_110_792)">
<mask id="mask0_110_792" style="mask-type:luminance" maskUnits="userSpaceOnUse" x="0" y="0" width="30" height="38">
<path d="M30 0H0V37.7778H30V0Z" fill="white"/>
</mask>
<g mask="url(#mask0_110_792)">
<path d="M7.88843 26.7326L1.3551 23.2437C1.05298 23.0993 0.797797 22.8725 0.618916 22.5895C0.440034 22.3064 0.344733 21.9786 0.343985 21.6437C0.343985 20.9215 0.78843 20.3326 1.3551 20.0437L26.9329 6.8215C27.7995 6.38816 28.8218 6.67705 29.2662 7.55483C29.6884 8.4215 29.3995 9.44372 28.5329 9.87705L5.99954 21.4993L9.77732 23.3882C10.644 23.8326 10.944 24.8326 10.4995 25.7215C10.0662 26.5882 9.48843 26.8771 8.7551 26.8771C8.46621 26.8771 8.17732 26.8771 7.88843 26.7326ZM2.08843 17.1437C1.51065 17.1437 0.777319 16.8548 0.48843 16.1215C0.0439858 15.2548 0.343985 14.2326 1.21065 13.7993L26.7884 0.577053C27.6551 0.132609 28.6773 0.432609 29.1218 1.29928C29.544 2.17705 29.2551 3.18816 28.3884 3.63261L2.9551 16.9993C2.66621 17.1437 2.37732 17.1437 2.08843 17.1437ZM11.3884 36.3215C10.944 35.4437 11.244 34.4326 12.1107 33.9882L26.7773 26.4326C27.6662 25.9993 28.6662 26.2993 29.1107 27.1659C29.5551 28.0437 29.2551 29.0548 28.3884 29.4993L13.8551 37.1882C13.5662 37.3326 13.2773 37.3326 12.9884 37.3326C12.3995 37.3326 11.6773 37.0437 11.3884 36.3215Z" fill="#81C400"/>
<path d="M2.07618 36.7664C1.4984 36.7664 0.776182 36.4664 0.476182 35.7442C0.0428489 34.8776 0.476182 33.8553 1.35396 33.4109L23.8762 21.7998L20.0984 19.9109C19.8931 19.8101 19.7105 19.6686 19.5615 19.4951C19.4125 19.3215 19.3003 19.1195 19.2318 18.9014C19.1632 18.6832 19.1397 18.4533 19.1626 18.2258C19.1855 17.9982 19.2544 17.7777 19.3651 17.5776C19.8095 16.7109 20.8206 16.422 21.6984 16.8553L28.3762 20.3442C28.954 20.6331 29.3984 21.2109 29.3984 21.9442C29.3984 22.6664 28.954 23.2442 28.3762 23.5442L2.95396 36.4664C2.66507 36.6109 2.36507 36.7664 2.07618 36.7664Z" fill="#81C400"/>
<path d="M13.1331 21.3558C13.1331 20.8931 13.3168 20.4494 13.644 20.1223C13.9711 19.7951 14.4148 19.6113 14.8775 19.6113C15.3402 19.6113 15.7839 19.7951 16.111 20.1223C16.4382 20.4494 16.6219 20.8931 16.6219 21.3558C16.6219 21.8184 16.4382 22.2621 16.111 22.5893C15.7839 22.9164 15.3402 23.1002 14.8775 23.1002C14.4148 23.1002 13.9711 22.9164 13.644 22.5893C13.3168 22.2621 13.1331 21.8184 13.1331 21.3558Z" fill="#646464"/>
</g>
</g>
<defs>
<clipPath id="clip0_110_792">
<rect width="30" height="38" fill="white"/>
</clipPath>
</defs>
</svg>
