<svg width="967" height="816" viewBox="0 0 967 816" fill="none" xmlns="http://www.w3.org/2000/svg">
<path d="M769.337 545.028C639.767 649.415 514.042 801.66 337.18 654.124C-54.012 327.798 215.505 20.0139 316.502 140.377C504.209 364.079 452.17 215.65 712.881 219.053C973.591 222.457 931.298 414.545 769.337 545.028Z" stroke="white" stroke-width="0.881082"/>
<path d="M757.944 535.065C633.175 639.521 512.881 790.847 338.169 649.022C-48.2679 335.327 209.887 29.1536 310.205 145.557C496.65 361.898 443.649 217.183 697.941 216.313C952.233 215.444 913.905 404.495 757.944 535.065Z" stroke="white" stroke-width="0.881082"/>
<path d="M746.707 525.431C626.681 629.825 511.727 780.086 339.286 643.895C-42.1302 342.661 204.845 38.4044 304.39 150.878C489.398 359.916 435.543 218.929 683.386 213.976C931.228 209.023 896.739 394.938 746.707 525.431Z" stroke="white" stroke-width="0.881082"/>
<path d="M735.613 516.123C620.27 620.325 510.564 769.378 340.51 638.742C-35.6239 349.794 200.359 47.7549 299.039 156.332C482.44 358.129 427.837 220.883 669.204 212.035C910.57 203.188 879.792 385.871 735.613 516.123Z" stroke="white" stroke-width="0.881082"/>
<path d="M724.692 507.129C613.969 611.01 509.414 758.712 341.864 633.548C-28.7335 356.704 196.45 57.1811 294.174 161.898C475.798 356.519 420.555 223.023 655.424 210.472C890.293 197.921 863.095 377.279 724.692 507.129Z" stroke="white" stroke-width="0.881082"/>
<path d="M713.932 498.455C607.765 601.887 508.263 748.099 343.329 628.322C-21.4828 363.392 193.099 66.6794 289.778 167.573C469.46 355.088 413.682 225.35 642.036 209.287C870.391 193.224 846.642 369.166 713.932 498.455Z" stroke="white" stroke-width="0.881082"/>
<path d="M703.351 490.09C601.671 592.946 507.122 737.531 344.913 623.052C-13.8695 369.843 190.315 76.2294 285.86 173.339C463.436 353.822 407.229 227.847 629.056 208.464C850.882 189.082 830.45 361.521 703.351 490.09Z" stroke="white" stroke-width="0.881082"/>
<path d="M692.935 482.039C595.674 584.194 505.973 727.015 346.597 617.745C-5.91899 376.055 188.077 85.8252 282.402 179.194C457.711 352.723 401.18 230.512 616.47 208.002C831.76 185.493 814.513 354.345 692.935 482.039Z" stroke="white" stroke-width="0.881082"/>
<path d="M682.717 474.286C589.801 575.617 504.843 716.543 348.405 612.387C2.38642 382.009 186.407 95.4438 279.428 185.115C452.311 351.772 395.561 233.325 604.31 207.882C813.06 182.439 798.862 347.622 682.717 474.286Z" stroke="white" stroke-width="0.881082"/>
<path d="M672.689 466.84C584.044 567.225 503.72 706.125 350.322 606.987C11.0263 387.708 185.291 105.083 276.923 191.102C447.227 350.974 390.36 236.288 592.569 208.105C794.779 179.922 783.496 341.359 672.689 466.84Z" stroke="white" stroke-width="0.881082"/>
<path d="M662.841 459.692C578.389 559.011 502.59 695.755 352.33 601.537C19.9756 393.138 184.707 114.724 274.87 197.14C442.441 350.316 385.561 239.386 581.235 208.657C776.909 177.928 768.404 335.544 662.841 459.692Z" stroke="white" stroke-width="0.881082"/>
<path d="M653.206 452.831C572.87 550.964 501.482 685.428 354.456 596.027C29.2558 398.285 184.683 124.348 273.295 203.212C437.985 349.785 381.194 242.602 570.342 209.522C759.489 176.442 753.626 330.165 653.206 452.831Z" stroke="white" stroke-width="0.881082"/>
<path d="M643.778 446.265C567.475 543.096 500.385 675.155 356.686 590.468C38.8458 403.153 185.201 133.953 272.185 209.317C433.848 349.384 377.247 245.94 559.881 210.703C742.516 175.465 739.156 325.226 643.778 446.265Z" stroke="white" stroke-width="0.881082"/>
<path d="M634.572 439.974C562.221 535.388 499.31 664.922 359.029 584.843C48.7478 407.719 186.269 143.512 271.547 215.431C430.039 349.094 373.729 249.374 549.868 212.174C726.007 174.974 725.012 320.708 634.572 439.974Z" stroke="white" stroke-width="0.881082"/>
<path d="M625.57 433.972C557.082 527.855 498.233 654.746 361.457 579.165C58.9279 411.992 187.857 153.03 271.353 221.558C426.536 348.922 370.616 252.912 540.281 213.944C709.947 174.976 711.178 316.62 625.57 433.972Z" stroke="white" stroke-width="0.881082"/>
<path d="M616.792 428.239C552.082 520.479 497.173 644.611 363.986 573.418C69.395 415.949 189.977 162.477 271.619 227.674C423.355 348.847 367.924 256.529 531.142 215.987C694.361 175.445 697.679 312.94 616.792 428.239Z" stroke="white" stroke-width="0.881082"/>
<path d="M608.242 422.779C547.219 513.266 496.128 634.527 366.611 567.608C80.1382 419.594 192.623 171.85 272.34 233.777C420.496 348.87 365.651 260.223 522.453 218.301C679.255 176.379 684.52 309.67 608.242 422.779Z" stroke="white" stroke-width="0.881082"/>
<path d="M599.916 417.589C542.49 506.215 495.092 624.494 369.323 561.734C91.1401 422.919 195.782 181.138 273.503 239.856C417.95 348.985 363.787 263.988 514.207 220.879C664.628 177.771 671.699 306.805 599.916 417.589Z" stroke="white" stroke-width="0.881083"/>
<path d="M591.837 412.653C537.913 499.313 494.082 614.503 372.137 555.784C102.41 425.907 199.467 190.318 275.124 245.891C415.735 349.175 362.35 267.802 506.428 223.7C650.505 179.599 659.241 304.327 591.837 412.653Z" stroke="white" stroke-width="0.881083"/>
<path d="M583.992 407.972C533.476 492.562 493.084 604.558 375.033 549.761C113.921 428.557 203.654 199.383 277.181 251.876C413.834 349.437 361.321 271.66 499.099 226.759C636.877 181.857 647.137 302.234 583.992 407.972Z" stroke="white" stroke-width="0.881083"/>
<path d="M576.388 403.544C529.182 485.963 492.1 594.663 378.012 543.665C125.667 430.866 208.341 208.324 279.673 257.805C412.248 349.767 360.7 275.558 492.226 230.048C623.752 184.538 635.395 300.521 576.388 403.544Z" stroke="white" stroke-width="0.881082"/>
<path d="M569.054 399.351C525.059 479.498 491.155 584.804 381.096 537.482C137.662 432.814 213.545 217.113 282.621 263.651C411.002 350.144 360.511 279.471 485.837 233.543C611.162 187.616 624.047 299.166 569.054 399.351Z" stroke="white" stroke-width="0.881082"/>
<path d="M561.961 395.402C521.077 473.182 490.219 574.997 384.251 531.226C149.866 434.41 219.23 225.757 285.989 269.423C410.064 350.578 360.721 283.405 479.901 237.251C599.082 191.098 613.066 298.178 561.961 395.402Z" stroke="white" stroke-width="0.881082"/>
<path d="M555.126 391.688C517.25 467.004 489.304 565.236 387.486 524.888C162.28 435.643 225.399 234.235 289.783 275.102C409.444 351.054 361.337 287.345 474.432 241.155C587.527 194.964 602.47 297.544 555.126 391.688Z" stroke="white" stroke-width="0.881082"/>
<path d="M548.549 388.205C513.578 460.964 488.408 555.524 390.796 518.469C174.892 436.51 232.044 242.54 293.996 280.681C409.138 351.567 362.356 291.284 469.429 245.246C576.502 199.207 592.262 297.256 548.549 388.205Z" stroke="white" stroke-width="0.881082"/>
<path d="M542.24 384.936C510.069 455.048 487.539 545.848 394.184 511.957C187.698 436.993 239.164 250.648 298.63 286.139C409.151 352.1 363.78 295.201 464.899 249.502C566.018 203.803 582.454 297.296 542.24 384.936Z" stroke="white" stroke-width="0.881082"/>
<path d="M536.198 381.885C506.719 449.262 486.69 536.22 397.643 505.358C200.683 437.097 246.745 258.556 303.674 291.474C409.478 352.654 365.603 299.096 460.839 253.923C556.075 208.75 573.046 297.665 536.198 381.885Z" stroke="white" stroke-width="0.881083"/>
<path d="M530.427 379.048C503.533 443.603 485.867 526.638 401.172 498.673C213.84 436.818 254.785 266.255 309.125 296.679C410.118 353.223 367.823 302.961 457.252 258.499C546.681 214.037 564.045 298.355 530.427 379.048Z" stroke="white" stroke-width="0.881082"/>
<path d="M524.943 376.403C500.524 438.054 485.08 517.088 404.78 491.884C227.169 436.135 263.285 273.716 314.988 301.726C411.081 353.784 370.448 306.769 454.149 263.202C537.85 219.635 555.468 299.34 524.943 376.403Z" stroke="white" stroke-width="0.881083"/>
<path d="M519.735 373.962C497.679 432.626 484.317 507.587 408.451 485.006C240.647 435.061 272.224 280.946 321.245 306.624C412.353 354.347 373.461 310.53 451.518 268.04C529.574 225.55 547.306 300.631 519.735 373.962Z" stroke="white" stroke-width="0.881082"/>
<path d="M514.802 371.712C494.997 427.312 483.573 498.128 412.177 478.033C254.26 433.585 281.59 287.928 327.885 311.356C413.926 354.898 376.855 314.227 449.353 272.995C521.852 231.764 539.558 302.211 514.802 371.712Z" stroke="white" stroke-width="0.881082"/>
<path d="M510.151 369.649C492.484 422.109 482.857 488.713 415.963 470.963C268.004 431.704 291.382 294.652 334.908 315.914C415.805 355.432 380.632 317.852 447.663 278.058C514.695 238.264 532.235 304.073 510.151 369.649Z" stroke="white" stroke-width="0.881083"/>
<path d="M505.794 367.761C490.15 417.008 482.175 479.336 419.812 463.791C281.874 429.41 301.596 301.102 342.315 320.284C417.994 355.936 384.794 321.392 446.453 283.213C508.111 245.034 525.348 306.203 505.794 367.761Z" stroke="white" stroke-width="0.881082"/>
<path d="M502.771 361.544C489.035 407.507 482.568 465.498 424.761 452.016C296.901 422.198 313.265 302.768 351.139 319.957C421.53 351.904 390.378 320.338 446.762 283.949C503.145 247.561 519.941 304.091 502.771 361.544Z" stroke="white" stroke-width="0.881082"/>
<path d="M497.946 364.499C486.001 407.11 480.897 460.706 427.668 449.145C309.934 423.574 323.24 313.147 358.234 328.431C423.273 356.837 394.24 328.188 445.45 293.764C496.659 259.34 512.878 311.236 497.946 364.499Z" stroke="white" stroke-width="0.881083"/>
<path d="M494.47 363.099C484.198 402.292 480.312 451.44 431.679 441.655C324.112 420.013 334.661 318.709 366.742 332.176C426.366 357.206 399.524 331.412 445.665 299.125C491.806 266.837 507.31 314.109 494.47 363.099Z" stroke="white" stroke-width="0.881082"/>
<path d="M491.29 361.857C482.572 397.569 479.757 442.219 435.737 434.065C338.37 416.031 346.463 323.962 375.601 335.703C429.754 357.525 405.171 334.522 446.351 304.54C487.532 274.559 502.187 317.217 491.29 361.857Z" stroke="white" stroke-width="0.881082"/>
<path d="M488.406 360.762C481.123 392.933 479.232 433.037 439.835 426.369C352.695 411.62 358.637 328.891 384.802 338.997C433.432 357.78 411.174 337.502 447.505 309.995C483.837 282.488 497.509 320.548 488.406 360.762Z" stroke="white" stroke-width="0.881082"/>
<path d="M485.814 359.803C479.846 388.376 478.732 423.891 443.967 418.562C367.072 406.775 371.165 333.483 394.332 342.046C437.39 357.962 417.522 340.341 449.12 315.474C480.718 290.606 493.273 324.086 485.814 359.803Z" stroke="white" stroke-width="0.881082"/>
<path d="M483.537 358.975C478.763 383.896 478.28 414.781 448.151 410.643C381.511 401.492 384.061 337.729 404.206 344.843C441.647 358.063 424.232 343.03 451.215 320.966C478.198 298.902 489.505 327.824 483.537 358.975Z" stroke="white" stroke-width="0.881082"/>
<path d="M481.557 358.269C477.855 379.486 477.854 405.704 452.363 402.611C395.982 395.769 397.294 341.617 414.395 347.375C446.179 358.076 431.278 345.559 453.768 326.459C476.257 307.358 486.184 331.748 481.557 358.269Z" stroke="white" stroke-width="0.881083"/>
</svg>