<svg width="24" height="24" viewBox="0 0 24 24" fill="none" xmlns="http://www.w3.org/2000/svg">
<g clip-path="url(#clip0_110_786)">
<path d="M11.999 24C18.6264 24 23.999 18.6274 23.999 12C23.999 5.37258 18.6264 0 11.999 0C5.37161 0 -0.000976562 5.37258 -0.000976562 12C-0.000976562 18.6274 5.37161 24 11.999 24Z" fill="url(#paint0_linear_110_786)"/>
<path d="M18.998 4H4.99805V18H18.998V4Z" fill="url(#paint1_linear_110_786)"/>
<path d="M13.699 4C14.6365 4 15.1051 4.63938 15.1051 5.37046C15.1051 6.28354 14.2911 7.12816 13.2303 7.12816C12.3422 7.12816 11.824 6.60288 11.8487 5.73558C11.8487 5.00464 12.4654 4 13.699 4ZM10.8124 18C10.0722 18 9.52943 17.5433 10.0476 15.5339L10.8974 11.9699C11.0453 11.3991 11.0696 11.1709 10.8974 11.1709C10.675 11.1709 9.71423 11.5652 9.14597 11.9535L8.77637 11.3368C10.5772 9.8072 12.649 8.91008 13.5369 8.91008C14.2768 8.91008 14.4004 9.80062 14.0304 11.1708L13.0576 14.9172C12.8848 15.5793 12.9591 15.8075 13.1313 15.8075C13.3534 15.8075 14.0815 15.5326 14.7968 14.9617L15.2164 15.5328C13.4647 17.314 11.5526 18 10.8124 18Z" fill="#FEFEFE"/>
</g>
<defs>
<linearGradient id="paint0_linear_110_786" x1="7.63216" y1="-20.7529" x2="37.6991" y2="-7.26102" gradientUnits="userSpaceOnUse">
<stop stop-color="#DAA400"/>
<stop offset="0.443705" stop-color="#EFB60B"/>
<stop offset="1" stop-color="#FAD566"/>
</linearGradient>
<linearGradient id="paint1_linear_110_786" x1="9.45071" y1="-8.10588" x2="26.9897" y2="-0.235593" gradientUnits="userSpaceOnUse">
<stop stop-color="#DAA400"/>
<stop offset="0.443705" stop-color="#EFB60B"/>
<stop offset="1" stop-color="#FAD566"/>
</linearGradient>
<clipPath id="clip0_110_786">
<rect width="24" height="24" fill="white"/>
</clipPath>
</defs>
</svg>
