<svg width="44" height="44" viewBox="0 0 44 44" fill="none" xmlns="http://www.w3.org/2000/svg">
<g clip-path="url(#clip0_414_2543)">
<path d="M32.1845 32.4859C29.0674 34.8572 25.2717 36.1709 21.3528 36.2348C8.58806 36.2348 1.29395 21.676 1.29395 21.676C3.56221 17.4574 6.70825 13.7717 10.521 10.8661M17.5234 7.554C18.7785 7.26078 20.0636 7.11421 21.3528 7.11723C34.1175 7.11723 41.4116 21.676 41.4116 21.676C40.3047 23.7427 38.9846 25.6883 37.4728 27.4814M25.2186 25.5341C24.7178 26.0705 24.1139 26.5007 23.4428 26.7991C22.7718 27.0975 22.0474 27.258 21.3128 27.2709C20.5783 27.2839 19.8487 27.149 19.1675 26.8744C18.4863 26.5998 17.8675 26.1911 17.348 25.6727C16.8285 25.1543 16.419 24.5367 16.1439 23.8569C15.8687 23.1771 15.7336 22.449 15.7466 21.7159C15.7595 20.9828 15.9203 20.2599 16.2193 19.5902C16.5183 18.9205 16.9494 18.3178 17.4869 17.818" stroke="#FEFEFE" stroke-width="2.61746" stroke-linecap="round" stroke-linejoin="round"/>
<path d="M1.29395 1.29297L41.4116 41.4106" stroke="#FEFEFE" stroke-width="2.61746" stroke-linecap="round" stroke-linejoin="round"/>
</g>
<defs>
<clipPath id="clip0_414_2543">
<rect width="44" height="44" fill="white"/>
</clipPath>
</defs>
</svg>
