<svg height="100" viewBox="0 0 99.999995 99.999995" width="100" xmlns="http://www.w3.org/2000/svg"><path d="M20 0C8.92 0 0 8.92 0 20v60c0 11.08 8.92 20 20 20h60c11.08 0 20-8.92 20-20V20c0-11.08-8.92-20-20-20H20zm53.309 15.506a8.977 8.977 0 0 1 .002 0 8.977 8.977 0 0 1 1.529.086 8.977 8.977 0 0 1 7.63 10.146 8.977 8.977 0 0 1-10.148 7.631 8.977 8.977 0 0 1-5.11-2.576l-31.298 15.45a9.352 9.352 0 0 1 .004 2.626 9.352 9.352 0 0 1-.15.772L68.01 68.605a8.977 8.977 0 0 1 6.965-1.974 8.977 8.977 0 0 1 7.63 10.146 8.977 8.977 0 0 1-10.146 7.631 8.977 8.977 0 0 1-7.63-10.146 8.977 8.977 0 0 1 .179-.912L32.939 54.484a9.352 9.352 0 0 1-7.591 2.334 9.352 9.352 0 0 1-7.95-10.57 9.352 9.352 0 0 1 10.57-7.951 9.352 9.352 0 0 1 5.52 2.885l31.215-15.407a8.977 8.977 0 0 1-.012-2.552 8.977 8.977 0 0 1 8.618-7.717z"/></svg>