<svg width="22" height="22" viewBox="0 0 22 22" fill="none" xmlns="http://www.w3.org/2000/svg"><g clip-path="url(#a)" fill="#C4C4C4"><path d="M18.92 16.092a1 1 0 0 1 0 1.414l-1.414 1.414a1 1 0 0 1-1.414 0L3.364 6.192a1 1 0 0 1 0-1.414l1.414-1.414a1 1 0 0 1 1.414 0L18.92 16.092Z"/><path d="M6.192 18.92a1 1 0 0 1-1.414 0l-1.414-1.414a1 1 0 0 1 0-1.414L16.092 3.364a1 1 0 0 1 1.414 0l1.414 1.414a1 1 0 0 1 0 1.414L6.192 18.92Z"/></g><defs><clipPath id="a"><path fill="#fff" d="M0 0h22v22H0z"/></clipPath></defs></svg>