<svg width="16" height="14" viewBox="0 0 16 14" fill="none" xmlns="http://www.w3.org/2000/svg">
<g clip-path="url(#clip0_110_578)">
<path d="M13.4243 8.59433C13.2395 8.51138 13.0294 8.50523 12.8401 8.57722C12.6508 8.64921 12.4979 8.79345 12.4149 8.9782C12.0403 9.81341 11.4365 10.5252 10.6736 11.031C9.91068 11.5368 9.01991 11.8157 8.10476 11.8354C7.18962 11.8552 6.28765 11.6149 5.5036 11.1425C4.71956 10.6701 4.0856 9.98501 3.67536 9.16673L4.10786 9.35929C4.29289 9.44167 4.50306 9.44717 4.69215 9.37459C4.88123 9.30201 5.03374 9.15729 5.11611 8.97226C5.19849 8.78724 5.204 8.57706 5.13141 8.38798C5.05883 8.1989 4.91411 8.04639 4.72908 7.96401L2.71924 7.0692C2.62762 7.02841 2.52887 7.00606 2.42862 7.00344C2.32837 7.00081 2.22858 7.01796 2.13496 7.0539C2.04133 7.08984 1.9557 7.14387 1.88296 7.2129C1.81021 7.28193 1.75178 7.36462 1.71099 7.45623L0.816144 9.46601C0.733765 9.65104 0.728262 9.86121 0.800844 10.0503C0.873427 10.2394 1.01815 10.3919 1.20318 10.4743C1.3882 10.5567 1.59837 10.5622 1.78746 10.4896C1.97654 10.417 2.12905 10.2723 2.21143 10.0872L2.31349 9.85801C2.84337 10.9119 3.65569 11.7979 4.65981 12.4169C5.66392 13.036 6.82031 13.3638 7.99993 13.3639C8.03683 13.3639 8.07393 13.3636 8.1109 13.3629C9.3195 13.342 10.4971 12.9774 11.5061 12.3117C12.515 11.646 13.3135 10.7067 13.8082 9.60379C13.8912 9.41902 13.8973 9.20886 13.8253 9.01955C13.7533 8.83024 13.6091 8.67728 13.4243 8.59433Z" fill="white"/>
<path d="M14.7967 3.5256C14.6117 3.44323 14.4015 3.43773 14.2125 3.51031C14.0234 3.5829 13.8709 3.72761 13.7885 3.91264L13.6864 4.14186C13.1479 3.07075 12.3179 2.17349 11.2919 1.55338C10.2659 0.933274 9.08562 0.615533 7.88696 0.636738C6.68829 0.657943 5.51999 1.01724 4.51655 1.67325C3.5131 2.32925 2.71532 3.25531 2.21506 4.34479C2.17304 4.43593 2.1494 4.53445 2.14548 4.63473C2.14156 4.73501 2.15745 4.83506 2.19223 4.9292C2.22701 5.02333 2.28001 5.1097 2.34819 5.18334C2.41637 5.25698 2.49839 5.31646 2.58957 5.35837C2.68075 5.40029 2.7793 5.42383 2.87958 5.42764C2.97986 5.43144 3.07991 5.41545 3.17401 5.38056C3.26811 5.34568 3.3544 5.29259 3.42797 5.22433C3.50153 5.15608 3.56093 5.07399 3.60274 4.98276C3.98316 4.1542 4.58995 3.44999 5.35318 2.95128C6.11641 2.45258 7.00503 2.17969 7.91661 2.16405C8.82819 2.14841 9.72564 2.39066 10.5055 2.86289C11.2854 3.33512 11.916 4.01811 12.3246 4.83314L11.8921 4.64056C11.7073 4.55944 11.4978 4.55479 11.3096 4.62763C11.1213 4.70046 10.9696 4.84485 10.8875 5.02924C10.8054 5.21364 10.7996 5.42305 10.8715 5.61168C10.9433 5.8003 11.0869 5.95281 11.2709 6.03588L13.2749 6.92801L13.2785 6.92964C13.3702 6.97078 13.4691 6.99343 13.5695 6.99629C13.6699 6.99915 13.7699 6.98218 13.8638 6.94632C13.9576 6.91046 14.0435 6.85642 14.1164 6.78732C14.1893 6.71822 14.2479 6.63541 14.2888 6.54363L15.1836 4.53386C15.266 4.34885 15.2716 4.13868 15.199 3.9496C15.1264 3.76052 14.9817 3.60801 14.7967 3.5256Z" fill="white"/>
</g>
<defs>
<clipPath id="clip0_110_578">
<rect width="16" height="14" fill="white"/>
</clipPath>
</defs>
</svg>
