<svg width="36" height="40" viewBox="0 0 36 40" fill="none" xmlns="http://www.w3.org/2000/svg">
<path d="M27.24 13.112C25.0863 12.5924 22.8215 12.7947 20.794 13.688C19.885 14.015 19.024 14.416 18.213 14.893C18.553 11 15.778 7.48298 12.128 7.02998C8.47803 6.57698 5.25103 9.46497 4.91103 13.359C4.57103 17.252 7.34503 20.769 10.995 21.222C11.655 21.298 12.265 21.298 12.779 21.147L13.847 22.806L12.008 22.479C10.357 22.127 8.76103 23.282 8.40003 25.09C8.10803 26.849 9.10703 28.557 10.758 28.91L16.573 30.669C17.392 31.623 18.37 32.352 19.439 32.905C20.2358 33.3309 21.088 33.6439 21.971 33.835L22.894 35.267C23.186 35.719 23.657 35.82 24.074 35.518L33.512 28.688C33.859 28.436 33.962 27.808 33.72 27.432L32.457 25.472C32.65 22.8101 31.9765 20.1573 30.537 17.91L27.72 13.54C27.595 13.188 27.428 13.087 27.24 13.112ZM7.40903 17.077C5.80703 14.59 6.41803 11.274 8.75603 9.69198C11.046 8.03398 14.162 8.76297 15.696 11.301C16.1226 11.959 16.4023 12.7012 16.5158 13.4771C16.6294 14.2531 16.5742 15.0443 16.354 15.797L13.926 12.029C13.4867 11.4122 12.826 10.9891 12.082 10.848C11.7227 10.783 11.3539 10.7918 10.998 10.8738C10.6422 10.9558 10.3067 11.1093 10.012 11.325C8.71403 12.154 8.33203 14.088 9.20703 15.445L11.732 19.364C10.067 19.464 8.45003 18.534 7.40903 17.077ZM29.17 18.789C30.502 20.699 31.092 23.035 30.883 25.396C30.842 25.647 30.8 25.899 30.946 26.125L31.966 27.707L23.916 33.534L23.236 32.479C23.09 32.253 22.806 32.127 22.569 32.077C21.7559 31.9746 20.9697 31.7187 20.252 31.323C19.35 30.87 18.489 30.167 17.768 29.363C17.671 29.212 17.504 29.111 17.338 29.011L11.238 27.126C11.0467 27.0858 10.8656 27.0071 10.7058 26.8946C10.5459 26.7822 10.4105 26.6384 10.308 26.472C10.1014 26.1246 10.0186 25.7175 10.073 25.317C10.267 24.513 10.961 24.011 11.738 24.111L15.159 24.841L16.616 27.101L17.449 25.394L10.456 14.54C10.186 13.963 10.31 13.209 10.914 12.883C11.4 12.531 12.128 12.556 12.468 13.083L18.053 21.751L19.635 21.048L17.402 17.581C17.422 17.456 17.492 17.405 17.512 17.28C17.998 16.928 18.532 16.652 19.067 16.376L21.544 20.22L22.8 19.642L20.274 15.722L21.253 15.346C21.649 15.171 22.093 15.07 22.537 14.97L24.965 18.738L26.221 18.161L23.987 14.694C24.806 14.544 25.652 14.594 26.478 14.769L29.17 18.789Z" fill="#000066"/>
</svg>
