<svg width="40" height="40" viewBox="0 0 40 40" fill="none" xmlns="http://www.w3.org/2000/svg">
<rect width="40" height="40" rx="20" fill="#4ACF1C"/>
<path d="M25.2411 22.7468C24.9624 22.6036 23.574 21.9235 23.3157 21.8315C23.0574 21.7343 22.8682 21.6883 22.6816 21.9746C22.4923 22.2584 21.9554 22.8899 21.7866 23.0817C21.623 23.2709 21.4568 23.2939 21.178 23.1533C19.5211 22.3249 18.4344 21.6755 17.3426 19.8015C17.0536 19.303 17.6315 19.3387 18.171 18.2624C18.2631 18.0732 18.217 17.9121 18.1454 17.769C18.0739 17.6258 17.5113 16.2401 17.2761 15.6751C17.0485 15.1254 16.8133 15.2021 16.6419 15.1919C16.4783 15.1816 16.2916 15.1816 16.1024 15.1816C15.9132 15.1816 15.6089 15.2532 15.3506 15.5319C15.0924 15.8157 14.3636 16.4983 14.3636 17.884C14.3636 19.2697 15.3737 20.612 15.5117 20.8011C15.6549 20.9903 17.4985 23.8333 20.3291 25.058C22.119 25.8301 22.8196 25.8965 23.7146 25.7636C24.2592 25.6818 25.3818 25.0835 25.6144 24.4214C25.8471 23.7617 25.8471 23.1967 25.7781 23.0791C25.709 22.9538 25.5198 22.8823 25.2411 22.7468Z" fill="white"/>
<path d="M31.4419 15.9032C30.8435 14.4811 29.9855 13.2047 28.8918 12.1084C27.7982 11.0147 26.5218 10.1541 25.0971 9.55827C23.6406 8.94655 22.0941 8.63672 20.5 8.63672H20.447C18.8423 8.64466 17.2878 8.96244 15.8261 9.5874C14.4147 10.1912 13.1489 11.0492 12.0658 12.1428C10.9827 13.2365 10.1327 14.5076 9.5448 15.9244C8.93574 17.3914 8.62856 18.9512 8.6365 20.556C8.64445 22.3938 9.08403 24.2183 9.90759 25.8496V29.8747C9.90759 30.5474 10.4531 31.0929 11.1257 31.0929H15.1535C16.7847 31.9165 18.6092 32.356 20.447 32.364H20.5026C22.0888 32.364 23.6274 32.0568 25.0759 31.4557C26.4926 30.8651 27.7664 30.0177 28.8574 28.9347C29.9511 27.8516 30.8117 26.5858 31.4128 25.1743C32.0378 23.7125 32.3555 22.1581 32.3635 20.5533C32.3714 18.9406 32.0589 17.3756 31.4419 15.9032ZM27.4407 27.502C25.5843 29.3398 23.1216 30.3514 20.5 30.3514H20.455C18.8582 30.3435 17.272 29.9462 15.8711 29.1995L15.6487 29.0803H11.9201V25.3517L11.801 25.1293C11.0542 23.7284 10.657 22.1422 10.6491 20.5454C10.6385 17.9052 11.6474 15.4265 13.4984 13.5596C15.3468 11.6927 17.8175 10.6599 20.4576 10.6493H20.5026C21.8267 10.6493 23.111 10.9062 24.3212 11.4146C25.5023 11.9098 26.5615 12.6222 27.4724 13.5331C28.3807 14.4414 29.0957 15.5033 29.5909 16.6844C30.1046 17.9078 30.3615 19.2054 30.3562 20.5454C30.3403 23.1829 29.3049 25.6536 27.4407 27.502Z" fill="white"/>
</svg>
