<svg width="38" height="38" viewBox="0 0 38 38" fill="none" xmlns="http://www.w3.org/2000/svg">
<g clip-path="url(#clip0_1_2)">
<path d="M38 19C38 8.50659 29.4934 0 19 0C8.50659 0 0 8.50659 0 19C0 29.4934 8.50659 38 19 38C29.4934 38 38 29.4934 38 19Z" fill="#F79418"/>
<path d="M19.0976 10.8968C20.5673 10.8968 21.7624 12.092 21.7624 13.5616C21.7624 15.0298 20.5673 16.2253 19.0976 16.2253C17.6294 16.2253 16.4329 15.0298 16.4329 13.5616C16.4329 12.092 17.6294 10.8968 19.0976 10.8968ZM19.0976 19.9956C22.6476 19.9956 25.5335 17.1099 25.5335 13.5616C25.5335 10.012 22.6476 7.12503 19.0976 7.12503C15.5484 7.12503 12.6617 10.012 12.6617 13.5616C12.6617 17.1096 15.5484 19.9956 19.0976 19.9956ZM21.7014 25.246C23.0117 24.9474 24.2752 24.4291 25.4389 23.698C26.3194 23.1429 26.5849 21.9787 26.03 21.098C25.4757 20.2153 24.3122 19.9499 23.43 20.5048C20.7938 22.163 17.3995 22.1623 14.7648 20.5048C13.8825 19.9499 12.719 20.2154 12.1652 21.098C11.6103 21.9794 11.875 23.1429 12.7559 23.698C13.9193 24.4283 15.1829 24.9474 16.4931 25.246L12.8948 28.844C12.1592 29.5804 12.1592 30.7741 12.8955 31.5102C13.2641 31.8781 13.7463 32.0624 14.2283 32.0624C14.7112 32.0624 15.1941 31.8782 15.5625 31.5102L19.0968 27.9745L22.6341 31.5102C23.3698 32.2466 24.5633 32.2466 25.2996 31.5102C26.0366 30.7741 26.0366 29.5796 25.2996 28.844L21.7014 25.246Z" fill="white"/>
</g>
<defs>
<clipPath id="clip0_1_2">
<rect width="38" height="38" fill="white"/>
</clipPath>
</defs>
</svg>
