<svg width="534" height="598" viewBox="0 0 534 598" fill="none" xmlns="http://www.w3.org/2000/svg">
<path d="M174.082 48.4292C286.988 31.9526 414.63 -16.7709 465.81 147.062C579.014 509.435 311.985 601.945 295.576 485.187C265.079 268.188 242.865 383.862 91.4387 279.89C-59.987 175.919 32.9502 69.025 174.082 48.4292Z" stroke="white" stroke-opacity="0.8" stroke-width="0.6"/>
<path d="M177.621 60.6872C287.594 41.7024 411.398 -9.24808 464.226 149.983C581.072 502.178 321.909 599.537 303.855 485.554C270.303 273.712 250.619 387.605 100.935 289.547C-48.7484 191.489 40.1538 84.4183 177.621 60.6872Z" stroke="white" stroke-opacity="0.8" stroke-width="0.6"/>
<path d="M180.284 67.9304C287.632 48.454 408.477 -2.40156 460.06 152.904C574.154 496.418 321.184 593.782 303.55 482.446C270.777 275.522 251.574 387.082 105.452 292.408C-40.6699 197.734 46.0999 92.2758 180.284 67.9304Z" stroke="white" stroke-opacity="0.8" stroke-width="0.6"/>
<path d="M183.955 79.5906C288.314 57.8417 405.297 5.08215 458.271 155.572C575.44 488.433 330.397 589.989 311.288 481.616C275.773 280.2 258.96 389.723 114.827 300.883C-29.3066 212.043 53.5072 106.777 183.955 79.5906Z" stroke="white" stroke-opacity="0.8" stroke-width="0.6"/>
<path d="M187.724 90.8838C289.053 67.0135 402.144 12.4862 456.406 158.425C576.425 481.219 339.38 586.671 318.86 481.103C280.722 284.901 266.252 392.484 124.223 309.131C-17.8063 225.778 61.0633 120.722 187.724 90.8838Z" stroke="white" stroke-opacity="0.8" stroke-width="0.6"/>
<path d="M189.931 97.6584C288.816 73.4851 399.182 19.2686 452.112 161.351C569.184 475.618 337.85 580.623 317.841 477.686C280.653 286.373 266.517 391.575 127.931 311.365C-10.6544 231.155 66.3254 127.875 189.931 97.6584Z" stroke="white" stroke-opacity="0.8" stroke-width="0.6"/>
<path d="M193.777 108.356C289.597 82.2961 396.074 26.6321 450.032 163.961C569.379 467.713 346.049 575.961 324.803 476.01C285.318 290.246 273.372 393.261 137.117 318.45C0.861895 243.639 74.0019 140.93 193.777 108.356Z" stroke="white" stroke-opacity="0.8" stroke-width="0.6"/>
<path d="M197.683 118.682C290.412 90.885 392.993 33.9501 447.833 166.546C569.129 459.828 353.823 570.952 331.439 473.998C289.838 293.804 279.998 394.571 146.209 324.994C12.4197 255.417 81.7718 153.428 197.683 118.682Z" stroke="white" stroke-opacity="0.8" stroke-width="0.6"/>
<path d="M201.188 128.794C290.985 99.3454 389.882 41.2421 445.501 169.114C568.521 451.946 360.807 565.733 337.383 471.784C293.848 297.176 285.969 395.659 154.56 331.223C23.1506 266.786 88.9409 165.604 201.188 128.794Z" stroke="white" stroke-opacity="0.8" stroke-width="0.6"/>
<path d="M203.776 134.622C290.972 105.251 386.997 47.8953 441.049 172.048C560.602 446.654 358.917 559.085 336.141 467.736C293.812 297.96 286.189 393.963 158.554 332.186C30.9188 270.409 94.78 171.336 203.776 134.622Z" stroke="white" stroke-opacity="0.8" stroke-width="0.6"/>
<path d="M207.284 144.926C291.544 114.136 383.916 55.8816 438.539 175.375C559.359 439.675 365.213 554.206 341.54 465.857C297.543 301.656 291.747 395.303 166.649 338.384C41.5509 281.465 101.958 183.413 207.284 144.926Z" stroke="white" stroke-opacity="0.8" stroke-width="0.6"/>
<path d="M211.248 153.929C292.387 121.933 380.913 63.0288 435.923 177.91C557.599 432.012 371.399 548.125 346.926 462.778C301.443 304.158 297.444 395.374 175.206 343.064C52.9691 290.754 109.825 193.923 211.248 153.929Z" stroke="white" stroke-opacity="0.8" stroke-width="0.6"/>
<path d="M213.283 159.365C292.043 127.609 377.966 69.5914 431.404 181.075C549.601 427.661 368.874 542.112 345.091 459.17C300.888 305.017 297.033 393.885 178.35 343.835C59.6676 293.785 114.834 199.061 213.283 159.365Z" stroke="white" stroke-opacity="0.8" stroke-width="0.6"/>
<path d="M217.192 167.787C292.849 135.058 374.984 76.6611 428.613 183.608C547.234 420.16 374.344 535.63 349.9 455.678C304.47 307.083 302.274 393.454 186.576 347.722C70.8787 301.99 122.621 208.697 217.192 167.787Z" stroke="white" stroke-opacity="0.8" stroke-width="0.6"/>
<path d="M220.649 176.056C293.383 142.416 371.963 83.7102 425.688 186.14C544.521 412.7 378.989 529.042 353.981 452.077C307.504 309.034 306.816 392.891 193.993 351.401C81.1697 309.912 129.732 218.106 220.649 176.056Z" stroke="white" stroke-opacity="0.8" stroke-width="0.6"/>
<path d="M222.536 180.961C292.947 147.771 369.025 90.2334 420.992 189.109C535.937 407.808 375.677 521.912 351.498 447.496C306.56 309.19 305.866 390.491 196.677 351.164C87.4883 311.837 134.522 222.449 222.536 180.961Z" stroke="white" stroke-opacity="0.8" stroke-width="0.6"/>
<path d="M226.32 188.471C293.673 154.675 366.076 97.1802 417.904 191.642C532.539 400.579 379.901 514.822 355.299 443.372C309.575 310.58 310.301 389.284 204.296 353.816C98.2902 318.347 142.128 230.715 226.32 188.471Z" stroke="white" stroke-opacity="0.8" stroke-width="0.6"/>
<path d="M229.634 195.865C294.117 161.51 363.086 104.11 414.682 194.182C528.805 393.41 383.29 507.682 358.362 439.191C312.03 311.897 314.023 387.996 211.08 356.322C108.137 324.647 149.03 238.809 229.634 195.865Z" stroke="white" stroke-opacity="0.8" stroke-width="0.6"/>
<path d="M233.298 202.696C294.768 168.009 360.161 110.965 411.353 196.719C524.582 386.395 386.496 500.151 361.336 434.607C314.575 312.791 317.792 386.22 218.183 358.059C118.575 329.898 156.462 246.056 233.298 202.696Z" stroke="white" stroke-opacity="0.8" stroke-width="0.6"/>
<path d="M234.92 206.9C294.17 172.945 357.215 117.387 406.485 199.724C515.461 381.84 382.336 492.693 358.137 429.651C313.161 312.484 316.212 383.308 220.255 356.925C124.297 330.541 160.858 249.345 234.92 206.9Z" stroke="white" stroke-opacity="0.8" stroke-width="0.6"/>
<path d="M238.419 213.207C294.718 179.13 354.297 124.167 402.978 202.281C510.655 375.058 384.742 484.895 360.45 424.769C315.302 313.023 319.426 381.136 226.873 357.982C134.321 334.828 168.044 255.803 238.419 213.207Z" stroke="white" stroke-opacity="0.8" stroke-width="0.6"/>
<path d="M241.426 219.453C294.971 185.28 351.334 130.937 399.34 204.858C505.524 368.362 386.306 477.131 362.015 419.905C316.869 313.548 321.912 378.957 232.632 358.986C143.353 339.015 174.496 262.171 241.426 219.453Z" stroke="white" stroke-opacity="0.8" stroke-width="0.6"/>
<path d="M244.731 225.129C295.399 191.088 348.429 137.628 395.597 207.44C499.924 361.855 387.653 469.008 363.457 414.662C318.488 313.659 324.401 376.305 238.637 359.225C152.873 342.144 181.395 267.68 244.731 225.129Z" stroke="white" stroke-opacity="0.8" stroke-width="0.6"/>
<path d="M246.03 229.47C294.606 196.417 345.468 144.728 390.557 211.262C490.287 358.427 382.613 462.078 359.507 410.181C316.563 313.727 322.147 373.734 240.021 358.07C157.895 342.407 185.31 270.786 246.03 229.47Z" stroke="white" stroke-opacity="0.8" stroke-width="0.6"/>
<path d="M249.119 234.667C294.903 201.94 342.564 151.348 386.639 213.88C484.128 352.19 383.137 453.773 360.261 404.716C317.745 313.54 324.045 370.758 245.478 357.712C166.911 344.667 191.89 275.576 249.119 234.667Z" stroke="white" stroke-opacity="0.8" stroke-width="0.6"/>
<path d="M252.08 239.57C295.12 207.287 339.661 157.926 382.603 216.519C477.585 346.118 383.117 445.355 360.563 399.113C318.645 313.169 325.557 367.582 250.588 356.987C175.619 346.392 198.28 279.923 252.08 239.57Z" stroke="white" stroke-opacity="0.8" stroke-width="0.6"/>
<path d="M254.906 244.187C295.257 212.468 336.743 164.428 378.551 219.379C471.024 340.922 382.942 437.609 360.72 393.995C319.419 312.938 326.915 364.682 255.49 356.2C184.066 347.717 204.467 283.835 254.906 244.187Z" stroke="white" stroke-opacity="0.8" stroke-width="0.6"/>
<path d="M255.845 247.195C294.245 216.691 333.761 170.672 373.343 222.487C460.894 337.095 377.006 429.756 356.001 388.531C316.961 311.911 323.96 360.996 256.139 353.598C188.318 346.199 207.844 285.325 255.845 247.195Z" stroke="white" stroke-opacity="0.8" stroke-width="0.6"/>
<path d="M258.418 251.386C294.225 221.614 330.852 177.142 369.022 225.199C453.449 331.492 375.619 421.143 355.155 382.656C317.122 311.127 324.476 357.383 260.306 352.013C196.136 346.642 213.658 288.6 258.418 251.386Z" stroke="white" stroke-opacity="0.8" stroke-width="0.6"/>
<path d="M261.192 254.995C294.327 226.193 327.971 183.498 364.706 228.125C445.958 326.832 374.38 412.98 354.46 377.043C317.438 310.254 325.171 353.78 264.75 349.957C204.329 346.133 219.773 290.998 261.192 254.995Z" stroke="white" stroke-opacity="0.8" stroke-width="0.6"/>
<path d="M263.446 258.661C294.113 230.804 325.057 189.886 360.16 230.899C437.803 321.615 371.901 404.266 352.697 371.004C317.005 309.183 324.887 349.871 268.154 347.756C211.422 345.64 225.113 293.483 263.446 258.661Z" stroke="white" stroke-opacity="0.8" stroke-width="0.6"/>
<path d="M264.352 260.861C293.081 234.548 322.079 195.98 354.91 234.257C427.529 318.92 365.776 396.844 347.822 365.748C314.454 307.953 321.803 346.081 268.695 344.424C215.587 342.766 228.442 293.753 264.352 260.861Z" stroke="white" stroke-opacity="0.8" stroke-width="0.6"/>
<path d="M266.324 264.15C292.695 238.934 319.154 202.307 350.201 237.093C418.874 314.034 362.473 388.116 345.359 359.634C313.553 306.7 320.896 341.994 271.476 341.8C222.056 341.606 233.36 295.67 266.324 264.15Z" stroke="white" stroke-opacity="0.8" stroke-width="0.6"/>
<path d="M266.146 269.95C290.095 246.065 313.937 211.603 343.198 243.229C407.92 313.181 357.031 382.94 340.748 356.882C310.486 308.453 317.854 341.016 272.188 341.806C226.523 342.597 236.209 299.806 266.146 269.95Z" stroke="white" stroke-opacity="0.8" stroke-width="0.6"/>
<path d="M270.077 269.701C291.809 247.101 313.292 214.743 340.703 243.253C401.333 306.313 355.425 371.876 340.052 348.204C311.481 304.209 318.731 334.091 276.661 335.88C234.592 337.669 242.913 297.951 270.077 269.701Z" stroke="white" stroke-opacity="0.8" stroke-width="0.6"/>
<path d="M270.905 271.128C290.727 250.384 310.325 220.722 335.312 246.671C390.578 304.064 348.698 364.173 334.688 342.599C308.648 302.501 315.25 329.785 276.889 331.589C238.528 333.393 246.126 297.057 270.905 271.128Z" stroke="white" stroke-opacity="0.8" stroke-width="0.6"/>
<path d="M272.538 274.047C290.135 254.865 307.395 227.612 330.365 250.604C381.172 301.461 344.24 356.732 331.254 337.478C307.118 301.695 313.496 326.267 278.861 328.673C244.226 331.078 250.542 298.024 272.538 274.047Z" stroke="white" stroke-opacity="0.8" stroke-width="0.6"/>
<path d="M273.976 275.988C289.424 258.452 304.454 233.695 325.317 253.815C371.464 298.316 339.259 348.563 327.373 331.588C305.282 300.039 311.34 321.912 280.42 324.774C249.5 327.635 254.665 297.908 273.976 275.988Z" stroke="white" stroke-opacity="0.8" stroke-width="0.6"/>
<path d="M275.216 277.73C288.594 261.921 301.504 239.744 320.171 257.074C361.46 295.406 333.759 340.454 323.049 325.712C303.143 298.314 308.783 317.503 281.565 320.678C254.348 323.853 258.494 297.492 275.216 277.73Z" stroke="white" stroke-opacity="0.8" stroke-width="0.6"/>
<path d="M276.256 279.284C287.642 265.278 298.542 245.758 314.926 260.386C351.165 292.74 327.744 332.422 318.283 319.867C300.7 296.533 305.825 313.056 282.296 316.403C258.766 319.75 262.023 296.792 276.256 279.284Z" stroke="white" stroke-opacity="0.8" stroke-width="0.6"/>
<path d="M277.095 280.659C286.568 268.529 295.569 251.74 309.585 263.752C340.586 290.322 321.22 324.483 313.081 314.066C297.955 294.705 302.471 308.585 282.612 311.965C262.752 315.346 265.253 295.821 277.095 280.659Z" stroke="white" stroke-opacity="0.8" stroke-width="0.6"/>
</svg>
