<svg width="38" height="38" viewBox="0 0 38 38" fill="none" xmlns="http://www.w3.org/2000/svg">
<path d="M26.4777 22.2619C26.0732 22.0541 24.0582 21.067 23.6834 20.9334C23.3086 20.7924 23.034 20.7256 22.7631 21.1412C22.4885 21.5531 21.7092 22.4697 21.4643 22.748C21.2268 23.0227 20.9855 23.0561 20.5811 22.852C18.1764 21.6496 16.5992 20.707 15.0146 17.9869C14.5953 17.2633 15.434 17.3152 16.217 15.7529C16.3506 15.4783 16.2838 15.2445 16.1799 15.0367C16.076 14.8289 15.2596 12.8176 14.9182 11.9975C14.5879 11.1996 14.2465 11.3109 13.9979 11.2961C13.7604 11.2812 13.4895 11.2812 13.2148 11.2812C12.9402 11.2812 12.4986 11.3852 12.1238 11.7896C11.749 12.2016 10.6914 13.1924 10.6914 15.2037C10.6914 17.215 12.1572 19.1633 12.3576 19.4379C12.5654 19.7125 15.241 23.8391 19.349 25.6166C21.9467 26.7373 22.9635 26.8338 24.2623 26.6408C25.0527 26.5221 26.6818 25.6537 27.0195 24.6926C27.3572 23.7352 27.3572 22.915 27.257 22.7443C27.1568 22.5625 26.8822 22.4586 26.4777 22.2619Z" fill="#4ACF1C"/>
<path d="M34.3338 12.5598C33.4951 10.567 32.2928 8.77832 30.7602 7.24199C29.2276 5.70938 27.4389 4.50332 25.4424 3.66836C23.4014 2.81113 21.2342 2.37695 19.0002 2.37695H18.926C16.6772 2.38809 14.4988 2.8334 12.4504 3.70918C10.4725 4.55527 8.69865 5.75762 7.18087 7.29023C5.6631 8.82285 4.47189 10.6041 3.64806 12.5895C2.79455 14.6453 2.36408 16.8311 2.37521 19.0799C2.38634 21.6553 3.00236 24.2121 4.15646 26.498V32.1387C4.15646 33.0812 4.92091 33.8457 5.86349 33.8457H11.5078C13.7938 34.9998 16.3506 35.6158 18.926 35.627H19.0039C21.2268 35.627 23.3828 35.1965 25.4127 34.3541C27.3981 33.5266 29.183 32.3391 30.7119 30.8213C32.2445 29.3035 33.4506 27.5297 34.293 25.5518C35.1688 23.5033 35.6141 21.325 35.6252 19.0762C35.6363 16.8162 35.1984 14.623 34.3338 12.5598ZM28.7266 28.8137C26.1252 31.3891 22.674 32.8066 19.0002 32.8066H18.9371C16.6994 32.7955 14.4766 32.2389 12.5135 31.1924L12.2018 31.0254H6.97677V25.8004L6.80978 25.4887C5.7633 23.5256 5.20666 21.3027 5.19552 19.065C5.18068 15.3652 6.59455 11.8918 9.18849 9.27559C11.7787 6.65937 15.241 5.21211 18.9408 5.19727H19.0039C20.8594 5.19727 22.6592 5.55723 24.3551 6.26973C26.0102 6.96367 27.4945 7.96191 28.7711 9.23848C30.044 10.5113 31.0459 11.9994 31.7399 13.6545C32.4598 15.3689 32.8197 17.1873 32.8123 19.065C32.7901 22.7611 31.3391 26.2234 28.7266 28.8137Z" fill="#4ACF1C"/>
</svg>
