<svg width="38" height="38" viewBox="0 0 38 38" fill="none" xmlns="http://www.w3.org/2000/svg">
<circle cx="19" cy="19" r="19" fill="#2787F5"/>
<path fill-rule="evenodd" clip-rule="evenodd" d="M30.4263 13.0157C30.6001 12.4302 30.4263 12 29.5992 12H26.8642C26.1688 12 25.8482 12.3716 25.6743 12.7815C25.6743 12.7815 24.2835 16.2065 22.3132 18.4313C21.6757 19.0753 21.3859 19.2802 21.0382 19.2802C20.8644 19.2802 20.6127 19.0753 20.6127 18.4899V13.0157C20.6127 12.3131 20.4109 12 19.8313 12H15.5335C15.0989 12 14.8375 12.3261 14.8375 12.6351C14.8375 13.3012 15.8226 13.4548 15.9242 15.3283V19.3973C15.9242 20.2895 15.7647 20.4512 15.417 20.4512C14.4898 20.4512 12.2344 17.0109 10.8968 13.0742C10.6347 12.3091 10.3717 12 9.67274 12H6.93773C6.15629 12 6 12.3716 6 12.7815C6 13.5133 6.92723 17.1433 10.3173 21.9441C12.5774 25.2228 15.7616 27 18.6592 27C20.3977 27 20.6128 26.6053 20.6128 25.9253V23.4474C20.6128 22.6579 20.7775 22.5003 21.328 22.5003C21.7336 22.5003 22.4291 22.7052 24.0517 24.286C25.9061 26.1595 26.2119 27 27.2549 27H29.99C30.7714 27 31.1621 26.6053 30.9367 25.8263C30.6901 25.0499 29.8047 23.9234 28.6298 22.5881C27.9924 21.827 27.0362 21.0074 26.7464 20.5975C26.3408 20.0706 26.4567 19.8364 26.7464 19.3681C26.7464 19.3681 30.0786 14.6257 30.4263 13.0157V13.0157Z" fill="white"/>
</svg>
