<svg width="192" height="28" viewBox="0 0 192 28" fill="none" xmlns="http://www.w3.org/2000/svg">
<path d="M92.9167 24.3812C94.8286 24.3812 96.183 24.0378 97.1921 23.2981V19.9434C96.1564 20.6566 94.9083 21.1057 93.1557 21.1057C90.208 21.1057 88.9865 18.834 88.9865 15.2415C88.9865 11.4642 90.4736 9.53587 93.1822 9.53587C94.7755 9.53587 96.3423 10.0906 97.1655 10.6189V7.1321C96.2892 6.65663 94.7755 6.31323 92.7042 6.31323C87.4197 6.31323 84.6846 10.0906 84.6846 15.3736C84.7111 21.1585 87.3932 24.3812 92.9167 24.3812ZM67.0785 22.8491V19.4944C65.8038 20.3661 63.6263 21.1321 61.6346 21.1321C58.6073 21.1321 57.4655 19.7057 57.2796 16.8H67.2643V14.634C67.2643 8.58493 64.5823 6.31323 60.4662 6.31323C55.4207 6.31323 53.0307 10.1434 53.0307 15.4C53.0307 21.4491 56.0315 24.3812 61.2894 24.3812C63.9184 24.3812 65.8569 23.6679 67.0785 22.8491ZM29.1842 6.63021V13.4981H23.6607V6.63021H19.5181V24.0378H23.6607V16.7736H29.1842V24.0378H33.3268V6.63021H29.1842ZM51.9951 20.7623H50.1628V6.63021H38.1067V8.10946C38.1067 12.3623 37.8412 17.8566 36.3806 20.7623H35.0529V28H38.8768V24.0378H48.1446V28H51.9685V20.7623H51.9951ZM80.2764 24.0378H84.9767L78.3379 14.6604L84.18 6.63021H80.0108L74.1687 14.6604V6.63021H70.0261V24.0378H74.1687V15.4793L80.2764 24.0378ZM60.36 9.53587C62.4047 9.53587 63.0421 11.2264 63.0421 13.4189V13.7623H57.2796C57.3858 10.9887 58.3949 9.53587 60.36 9.53587ZM46.0202 20.7623H40.178C41.3199 18.1472 41.6386 13.3925 41.6386 10.3812V9.85286H46.0202V20.7623Z" fill="black"/>
<path d="M16.0659 24.0377H11.8436V3.24906H9.9582C6.50603 3.24906 4.70027 4.96604 4.70027 7.5283C4.70027 10.434 5.94837 11.7811 8.52422 13.4981L10.6486 14.9245L4.54094 24.0377H0L5.49693 15.9019C2.33686 13.6566 0.557659 11.4642 0.557659 7.76604C0.557659 3.1434 3.7974 0 9.93165 0H16.0393V24.0377H16.0659Z" fill="#FC3F1D"/>
</svg>
