<svg width="30" height="30" viewBox="0 0 30 30" fill="none" xmlns="http://www.w3.org/2000/svg"><path fill="#D14E9F" d="M0 0h30v30H0z"/><path d="M18.56 7h-7.67A3.895 3.895 0 007 10.891v7.668a3.895 3.895 0 003.891 3.892h7.668a3.895 3.895 0 003.892-3.892v-7.668A3.895 3.895 0 0018.559 7zm2.203 11.56a2.204 2.204 0 01-2.204 2.203h-7.668a2.204 2.204 0 01-2.203-2.204v-7.668a2.204 2.204 0 012.203-2.203h7.668a2.204 2.204 0 012.204 2.203v7.668z" fill="#fff"/><path d="M14.725 10.749a3.969 3.969 0 00-3.977 3.977 3.969 3.969 0 003.977 3.977 3.969 3.969 0 003.978-3.977 3.969 3.969 0 00-3.978-3.977zm0 6.266a2.296 2.296 0 01-2.289-2.289 2.296 2.296 0 012.29-2.289 2.296 2.296 0 012.288 2.29 2.296 2.296 0 01-2.289 2.288zm4.121-5.438a.944.944 0 100-1.888.944.944 0 000 1.888z" fill="#fff"/></svg>