<svg width="13" height="12" viewBox="0 0 13 12" fill="none" xmlns="http://www.w3.org/2000/svg"><path d="M12.768 8.914c-.073-.133-.27-.212-.567-.371-.295-.16-1.75-.93-2.02-1.035-.271-.106-.468-.16-.666.16-.197.317-.765 1.034-.937 1.246-.172.212-.345.239-.64.08-.296-.16-1.25-.495-2.379-1.58-.879-.843-1.473-1.884-1.645-2.203-.172-.318-.018-.49.13-.649.133-.142.295-.371.443-.557.15-.184.2-.317.299-.53.098-.212.05-.398-.025-.558-.075-.158-.666-1.724-.912-2.36-.24-.62-.484-.537-.665-.546L2.616 0C2.42 0 2.1.08 1.828.398 1.558.717.793 1.485.793 3.051s1.06 3.078 1.208 3.29c.148.212 2.084 3.425 5.05 4.802a16.35 16.35 0 001.686.67c.709.242 1.354.208 1.863.126.568-.09 1.75-.77 1.996-1.512.247-.744.247-1.38.172-1.513z" fill="#48B39F"/></svg>