<svg width="43" height="43" viewBox="0 0 43 43" fill="none" xmlns="http://www.w3.org/2000/svg">
<path d="M19.2083 5.45815C17.4027 5.45815 15.6147 5.81381 13.9464 6.50481C12.2782 7.19581 10.7624 8.20863 9.48561 9.48543C8.20881 10.7622 7.19599 12.278 6.50499 13.9463C5.81399 15.6145 5.45833 17.4025 5.45833 19.2082C5.45833 21.0138 5.81399 22.8018 6.50499 24.47C7.19599 26.1383 8.20881 27.6541 9.48561 28.9309C10.7624 30.2077 12.2782 31.2205 13.9464 31.9115C15.6147 32.6025 17.4027 32.9581 19.2083 32.9581C22.8551 32.9581 26.3524 31.5095 28.931 28.9309C31.5097 26.3522 32.9583 22.8549 32.9583 19.2082C32.9583 15.5614 31.5097 12.0641 28.931 9.48543C26.3524 6.90681 22.8551 5.45815 19.2083 5.45815ZM0.875 19.2082C0.875418 16.2905 1.57217 13.4152 2.90734 10.821C4.24251 8.2268 6.17755 5.98874 8.55164 4.2928C10.9257 2.59687 13.6703 1.49204 16.5572 1.07014C19.4442 0.648236 22.3901 0.921443 25.1503 1.86706C27.9104 2.81267 30.405 4.40337 32.4267 6.50697C34.4484 8.61057 35.9388 11.1663 36.7742 13.9618C37.6095 16.7573 37.7656 19.7117 37.2295 22.5797C36.6933 25.4476 35.4805 28.1462 33.6917 30.4511L41.4535 38.2129C41.871 38.6452 42.102 39.224 42.0968 39.8249C42.0915 40.4258 41.8505 41.0005 41.4256 41.4254C41.0007 41.8503 40.4259 42.0914 39.8251 42.0966C39.2242 42.1018 38.6453 41.8708 38.2131 41.4534L30.4512 33.6915C27.7413 35.7955 24.4953 37.0968 21.0824 37.4475C17.6695 37.7982 14.2267 37.1842 11.1454 35.6753C8.0642 34.1665 5.46817 31.8233 3.65256 28.9122C1.83695 26.0011 0.874619 22.639 0.875 19.2082Z" fill="url(#paint0_linear_43_1004)"/>
<defs>
<linearGradient id="paint0_linear_43_1004" x1="-3.8307" y1="42.0967" x2="53.2065" y2="39.5106" gradientUnits="userSpaceOnUse">
<stop stop-color="#4283D0"/>
<stop offset="1" stop-color="#2D72C5"/>
</linearGradient>
</defs>
</svg>
