<svg width="23" height="23" fill="none" xmlns="http://www.w3.org/2000/svg"><path d="m19.7 17.642-2.392 2.389a1.544 1.544 0 0 1-2.192 0L12.54 17.46a1.55 1.55 0 0 1 0-2.197l2.012-2.015a9.1 9.1 0 0 0-1.94-2.859 9.107 9.107 0 0 0-2.857-1.945l-2.013 2.015a1.544 1.544 0 0 1-2.192 0L2.972 7.887a1.55 1.55 0 0 1 0-2.197L5.361 3.3a2.694 2.694 0 0 1 1.892-.784c.146 0 .287.012.431.036 2.974.49 5.925 2.073 8.308 4.454 2.381 2.386 3.962 5.337 4.456 8.313a2.675 2.675 0 0 1-.748 2.323Z" style="fill:#fff" transform="rotate(180 11.5 11.501)"/></svg>