<svg width="16" height="17" viewBox="0 0 16 17" fill="none" xmlns="http://www.w3.org/2000/svg"><path d="M12.5 15h-.084C2.594 14.435 1.2 6.145 1.005 3.615A1.5 1.5 0 012.385 2h2.753a1 1 0 01.93.63l.76 1.87a1 1 0 01-.22 1.08L5.543 6.655a4.686 4.686 0 003.789 3.8l1.084-1.075a1 1 0 011.085-.205l1.884.755a1 1 0 01.615.93v2.64a1.5 1.5 0 01-1.5 1.5zM2.505 3a.5.5 0 00-.5.5v.04C2.234 6.5 3.71 13.5 12.47 14a.5.5 0 00.53-.47v-2.67l-1.884-.755-1.434 1.425-.24-.03c-4.349-.545-4.939-4.895-4.939-4.94l-.03-.24 1.42-1.435L5.143 3H2.504z" fill="#BBB"/></svg>