<svg width="127" height="168" viewBox="0 0 127 168" fill="none" xmlns="http://www.w3.org/2000/svg"><path d="M66.782 113.33l34.676-7.537c-5.291-24.342 32.389-36.86 24.403-73.603-5.89-27.097-33.116-37.292-67.562-29.805C27.298 9.124 8.308 25.757 0 47.282l31.33 10.265c5.053-12.16 14.907-21.036 29.604-24.23 14.926-3.245 26.348 1.727 28.794 12.98 4.343 19.978-29.934 34.883-22.946 67.033zm29.981 53.845c12.86-2.795 19.999-14.206 17.503-25.688-2.545-11.712-13.628-18.442-26.487-15.646-12.86 2.795-20.149 13.518-17.603 25.229 2.495 11.482 13.727 18.901 26.587 16.105z" fill="#fff"/></svg>