<svg width="30" height="90" viewBox="0 0 30 90" fill="none" xmlns="http://www.w3.org/2000/svg">
<path d="M0.20734 88.8778C0.205113 89.4301 0.651019 89.8796 1.2033 89.8818L10.2032 89.9181C10.7555 89.9204 11.205 89.4744 11.2073 88.9222C11.2095 88.3699 10.7636 87.9204 10.2113 87.9181L2.21136 87.8859L2.24362 79.8859C2.24584 79.3337 1.79994 78.8842 1.24766 78.8819C0.695378 78.8797 0.245861 79.3256 0.243633 79.8779L0.20734 88.8778ZM19.6175 1.33341C27.0555 21.4181 29.3652 36.0013 26.3412 49.0698C23.3163 62.1419 14.9145 73.8762 0.503082 88.1719L1.91158 89.5918C16.4006 75.2191 25.1348 63.1547 28.2897 49.5207C31.4454 35.883 28.9788 20.8525 21.493 0.638835L19.6175 1.33341Z" fill="#0367B3"/>
</svg>
