<svg width="56" height="65" viewBox="0 0 56 65" fill="none" xmlns="http://www.w3.org/2000/svg">
<path fill-rule="evenodd" clip-rule="evenodd" d="M32.5275 4.07413C30.3071 3.33299 27.7729 3.53042 25.7796 4.59992C23.9847 5.56297 22.8109 6.84833 21.8306 8.92433C20.5411 11.6549 19.7654 14.5554 19.5868 17.3149C19.5517 17.8559 19.4469 18.6808 19.3538 19.1481C19.2607 19.6155 19.0469 20.6776 18.8785 21.5084C18.4575 23.5861 18.3864 23.4231 20.1318 24.3839L21.5043 25.1395L20.395 27.2412C19.3583 29.2054 19.2871 29.3648 19.3059 29.6773C19.317 29.8612 19.3971 30.0926 19.484 30.1914C19.5707 30.2902 20.2116 30.6719 20.908 31.0396L22.1742 31.7081L21.6845 32.6357C21.1124 33.7193 21.3293 33.7039 19.9441 32.7597C19.446 32.4203 19.0035 32.1542 18.9608 32.1686C18.918 32.1829 18.68 32.5036 18.4318 32.8815C18.0698 33.4325 17.9968 33.5868 18.0623 33.662C18.1074 33.7136 18.6245 34.0819 19.2115 34.4804L20.2788 35.205L19.4527 36.8199L18.6268 38.4349L18.4151 38.3188C18.2987 38.255 17.8125 37.9355 17.3347 37.6089C16.8569 37.2823 16.4313 37.0262 16.3889 37.0398C16.3466 37.0534 16.1089 37.3736 15.8607 37.7514C15.4857 38.3221 15.4242 38.4552 15.497 38.5385C15.5452 38.5937 16.0623 38.962 16.6461 39.3569L17.7076 40.0749L16.8816 41.6899L16.0556 43.3049L15.8054 43.1685C15.6678 43.0935 15.1819 42.7736 14.7256 42.4574C14.2693 42.1414 13.8611 41.8944 13.8184 41.9087C13.688 41.952 12.8384 43.2956 12.8879 43.3801C12.9131 43.423 13.429 43.7931 14.0344 44.2026L15.1353 44.9471L14.3098 46.5609L13.4845 48.1748L13.2681 48.0605C13.1491 47.9977 12.6652 47.6764 12.1928 47.3465C11.7204 47.0167 11.297 46.7597 11.2518 46.7756C11.187 46.7983 10.2447 48.1484 10.2492 48.2119C10.2499 48.2208 10.723 48.5505 11.3006 48.9446C11.8783 49.3387 12.4162 49.7152 12.4961 49.7813C12.6152 49.8799 12.5925 50.3566 12.3699 52.4357C12.1588 54.4061 12.1258 55.0378 12.2216 55.2748L12.3447 55.5796L15.0342 56.9996L17.7237 58.4196L18.0632 58.327C18.3973 58.2359 18.6252 58.0601 20.327 56.5815C20.794 56.1756 21.2163 55.8296 21.2654 55.8124C21.3145 55.7953 21.9212 56.1684 22.6137 56.6415C23.3061 57.1146 23.8982 57.4939 23.9294 57.4841C23.9607 57.4744 24.2003 57.1546 24.462 56.7735C24.8556 56.2003 24.9233 56.064 24.8541 55.9848C24.8082 55.932 24.2902 55.5628 23.7032 55.1643L22.636 54.4397L23.462 52.8247L24.288 51.2097L24.4997 51.3259C24.616 51.3897 25.1022 51.7091 25.58 52.0357C26.0579 52.3623 26.4834 52.6185 26.5258 52.6048C26.5681 52.5913 26.8058 52.2711 27.0541 51.8933C27.429 51.3226 27.4905 51.1895 27.4178 51.1061C27.3696 51.0509 26.8524 50.6827 26.2686 50.2878L25.2071 49.5698L26.0331 47.9548L26.8591 46.3398L27.1094 46.4762C27.2469 46.5512 27.7329 46.8711 28.1891 47.1872C28.6454 47.5033 29.0537 47.7502 29.0964 47.736C29.2267 47.6926 30.0763 46.3491 30.0268 46.2645C30.0017 46.2217 29.4858 45.8516 28.8803 45.442L27.7795 44.6975L28.6049 43.0837L29.4302 41.4699L29.6467 41.5842C29.7656 41.647 30.2495 41.9683 30.7219 42.2982C31.1943 42.628 31.6177 42.885 31.663 42.8691C31.7284 42.8461 32.6692 41.4972 32.6657 41.4313C32.6652 41.4216 32.1441 41.0568 31.5078 40.6205L30.3508 39.8272L31.1148 38.3295L31.8788 36.8318L33.1467 37.5012C33.844 37.8694 34.5215 38.1836 34.652 38.1996C34.7826 38.2155 35.0188 38.1511 35.1769 38.0566C35.4456 37.8959 35.537 37.7472 36.5742 35.7832L37.6841 33.6818L39.0821 34.389C40.4668 35.0894 40.4831 35.0953 40.7842 35.0016C41.0718 34.9121 41.9085 34.1095 43.8875 32.0248C44.1375 31.7615 44.6028 31.3443 44.9215 31.0976C47.3602 29.2101 49.2782 27.0148 50.8897 24.2665C51.8262 22.6695 52.2504 21.3076 52.2868 19.7809C52.3531 16.9927 51.1227 14.4622 48.8313 12.6738C47.7588 11.8368 46.2221 11.2752 44.3488 11.0356C42.4973 10.7987 41.4297 10.4711 39.9577 9.68817C38.501 8.91345 37.4947 8.09085 36.2686 6.6726C35.2481 5.49222 33.8345 4.51036 32.5275 4.07413ZM34.6438 7.64525C36.6101 9.76122 37.3794 10.3896 39.1446 11.3215C40.9148 12.2561 41.8781 12.5418 44.5965 12.9383L45.8314 13.1184L46.873 13.6647C47.7549 14.1272 47.9882 14.2853 48.3937 14.6952C49.7864 16.1028 50.4909 17.8274 50.4357 19.6932C50.396 21.0348 50.2593 21.5156 49.519 22.916C48.1773 25.4546 46.3496 27.6254 43.9768 29.4987C43.3876 29.9637 40.5388 32.7534 40.4166 32.9848C40.4049 33.007 35.9228 30.6637 30.4564 27.7776C24.9899 24.8915 20.5269 22.5121 20.5386 22.4899C20.6608 22.2585 21.3575 18.3327 21.4092 17.5838C21.6177 14.5699 22.3781 11.8394 23.718 9.29402C24.2543 8.27497 24.4247 8.01562 24.8537 7.56597C26.3837 5.96182 28.677 5.18525 30.8443 5.53736C31.7082 5.67763 32.1366 5.83738 33.0555 6.36157C33.8079 6.79083 33.9765 6.92708 34.6438 7.64525ZM29.8308 7.22079C28.3881 7.38192 27.0115 8.08632 26.0244 9.16828C25.8062 9.40737 25.4655 9.92291 25.1967 10.4207L24.7399 11.2668L25.5103 11.6736L26.2808 12.0804L26.7325 11.3304C27.267 10.4431 27.8304 9.87579 28.5655 9.48494C29.0166 9.24511 29.8606 9.01619 30.3649 8.99694C30.5248 8.99081 30.5382 8.9122 30.5108 8.14291C30.4942 7.67688 30.452 7.26563 30.417 7.229C30.382 7.19232 30.1182 7.18867 29.8308 7.22079ZM35.2142 34.4412L34.3571 36.0645L27.8852 32.6475L21.4133 29.2306L22.2704 27.6073L23.1274 25.984L29.5993 29.4009L36.0712 32.8179L35.2142 34.4412ZM29.5295 37.3707C29.1255 38.136 28.7691 38.7482 28.7374 38.7312C28.7057 38.714 27.3775 37.8126 25.7857 36.728C24.1939 35.6432 22.8462 34.7318 22.7909 34.7026C22.7131 34.6615 22.8151 34.413 23.2413 33.6059L23.7922 32.5624L27.0282 34.2708L30.2641 35.9793L29.5295 37.3707ZM24.8469 38.309C26.4413 39.3945 27.789 40.3059 27.8418 40.3341C27.9156 40.3736 27.7391 40.7619 27.0808 42.0087C26.6094 42.9016 26.2094 43.6245 26.192 43.6153C26.1745 43.6061 24.8384 42.7004 23.2227 41.6028C21.607 40.5051 20.2478 39.5873 20.2021 39.5632C20.1455 39.5333 20.391 39.0044 20.9762 37.8961C21.4476 37.0033 21.8591 36.2868 21.8907 36.304C21.9222 36.3213 23.2525 37.2235 24.8469 38.309ZM22.2717 43.1765C23.8903 44.2757 25.2489 45.1932 25.2907 45.2152C25.3383 45.2403 25.0459 45.8629 24.5097 46.8787C24.0383 47.7715 23.6377 48.4941 23.6194 48.4844C23.6011 48.4747 22.2617 47.5675 20.6431 46.4682C19.0244 45.369 17.6658 44.4515 17.624 44.4294C17.5764 44.4043 17.8688 43.7817 18.4051 42.766C18.8764 41.8732 19.2771 41.1506 19.2953 41.1602C19.3137 41.1699 20.653 42.0772 22.2717 43.1765ZM19.692 48.0419C21.3077 49.1396 22.6669 50.0573 22.7126 50.0815C22.7692 50.1114 22.5237 50.6402 21.9385 51.7486C21.4672 52.6414 21.0557 53.3579 21.0241 53.3407C20.9925 53.3234 19.6622 52.4212 18.0678 51.3357C16.4734 50.2501 15.1258 49.3388 15.0729 49.3106C14.9992 49.2711 15.1756 48.8828 15.8339 47.6359C16.3053 46.7431 16.7053 46.0202 16.7227 46.0294C16.7402 46.0386 18.0764 46.9442 19.692 48.0419ZM15.7525 51.9889C18.4315 53.7937 19.5999 54.6034 19.6283 54.6748C19.6455 54.7178 19.2356 55.1162 18.7176 55.5602L17.7758 56.3675L15.888 55.3711L14.0002 54.3748L14.1809 52.7666C14.2802 51.8821 14.3768 51.1323 14.3956 51.1004C14.4143 51.0685 14.4984 51.1011 14.5823 51.1729C14.6663 51.2447 15.1929 51.612 15.7525 51.9889Z" fill="#F36600"/>
</svg>
