<svg width="19" height="16" viewBox="0 0 19 16" fill="none" xmlns="http://www.w3.org/2000/svg"><path d="M0 9.211c.05-.041.581.213.636.236.538.22 1.06.475 1.56.764a9.179 9.179 0 013.165 2.96C6 14.16 6.484 16 8.029 16c.74 0 1.58.022 2.143-.503.688-.643.7-1.58.912-2.41 1.053-3.912 3.064-7.546 5.876-10.616.172-.192.348-.382.525-.57A14.25 14.25 0 0118.633.826c.055-.046.15-.14.263-.249a.322.322 0 00.074-.372.367.367 0 00-.34-.205c-2.325.07-7.853 1.2-10.966 9.89 0 0-4.745-3.055-7.664-.679z" fill="#F36600"/></svg>