<svg width="16" height="19" viewBox="0 0 16 19" fill="none" xmlns="http://www.w3.org/2000/svg">
<path d="M14.5 7.75C14.5 13 7.75 17.5 7.75 17.5C7.75 17.5 1 13 1 7.75C1 5.95979 1.71116 4.2429 2.97703 2.97703C4.2429 1.71116 5.95979 1 7.75 1C9.54021 1 11.2571 1.71116 12.523 2.97703C13.7888 4.2429 14.5 5.95979 14.5 7.75Z" stroke="url(#paint0_linear_43_972)" stroke-width="2" stroke-linecap="round" stroke-linejoin="round"/>
<path d="M7.75 10C8.99264 10 10 8.99264 10 7.75C10 6.50736 8.99264 5.5 7.75 5.5C6.50736 5.5 5.5 6.50736 5.5 7.75C5.5 8.99264 6.50736 10 7.75 10Z" stroke="url(#paint1_linear_43_972)" stroke-width="2" stroke-linecap="round" stroke-linejoin="round"/>
<defs>
<linearGradient id="paint0_linear_43_972" x1="-0.541096" y1="17.5" x2="18.151" y2="16.8066" gradientUnits="userSpaceOnUse">
<stop stop-color="#4283D0"/>
<stop offset="1" stop-color="#2D72C5"/>
</linearGradient>
<linearGradient id="paint1_linear_43_972" x1="4.9863" y1="10" x2="11.2128" y2="9.71771" gradientUnits="userSpaceOnUse">
<stop stop-color="#4283D0"/>
<stop offset="1" stop-color="#2D72C5"/>
</linearGradient>
</defs>
</svg>
