<svg width="30" height="30" viewBox="0 0 30 30" fill="none" xmlns="http://www.w3.org/2000/svg"><rect width="30" height="30" rx="1" fill="#2687F5"/><path d="M14.879 20.523h1.21s.357-.028.55-.248c.165-.192.165-.522.165-.522s-.028-1.623.742-1.87c.743-.248 1.705 1.567 2.723 2.255.77.522 1.347.412 1.347.412l2.695-.027s1.403-.083.743-1.21c-.055-.083-.385-.825-2.008-2.338-1.705-1.568-1.457-1.32.578-4.043 1.237-1.65 1.732-2.667 1.595-3.107-.138-.412-1.073-.302-1.073-.302l-3.052.027s-.22-.027-.385.082a.985.985 0 00-.275.33s-.495 1.293-1.128 2.366c-1.347 2.31-1.897 2.42-2.117 2.282-.523-.33-.385-1.348-.385-2.063 0-2.227.33-3.162-.66-3.41-.33-.082-.578-.137-1.43-.137-1.1 0-2.008 0-2.53.248-.358.165-.605.55-.44.577.192.027.66.11.907.44.303.412.303 1.375.303 1.375s.192 2.64-.413 2.942c-.412.22-.962-.22-2.172-2.31-.633-1.072-1.1-2.255-1.1-2.255s-.083-.22-.248-.33a1.41 1.41 0 00-.467-.192l-2.888.028s-.44 0-.605.192c-.137.165 0 .523 0 .523s2.255 5.307 4.84 7.974c2.31 2.476 4.978 2.31 4.978 2.31z" fill="#fff"/></svg>