<svg width="28" height="22" viewBox="0 0 28 22" fill="none" xmlns="http://www.w3.org/2000/svg">
<g clip-path="url(#clip0_43_975)">
<path d="M24.8398 0.924835C25.0104 0.75075 25.214 0.612454 25.4387 0.518042C25.6634 0.42363 25.9047 0.375 26.1485 0.375C26.3923 0.375 26.6336 0.42363 26.8583 0.518042C27.083 0.612454 27.2866 0.75075 27.4573 0.924835C28.1723 1.64733 28.1823 2.81483 27.4823 3.54983L12.6998 21.0248C12.5319 21.2091 12.3282 21.3573 12.1012 21.4601C11.8741 21.563 11.6285 21.6185 11.3793 21.6232C11.13 21.6279 10.8825 21.5816 10.6517 21.4874C10.421 21.3931 10.2119 21.2527 10.0373 21.0748L1.04221 11.9598C0.695299 11.606 0.500977 11.1303 0.500977 10.6348C0.500977 10.1393 0.695299 9.66362 1.04221 9.30983C1.21283 9.13575 1.41646 8.99745 1.64118 8.90304C1.86591 8.80863 2.10721 8.76 2.35096 8.76C2.59471 8.76 2.83602 8.80863 3.06074 8.90304C3.28546 8.99745 3.4891 9.13575 3.65971 9.30983L11.2898 17.0423L24.7898 0.979835C24.8053 0.960514 24.822 0.942148 24.8398 0.924835Z" fill="white"/>
</g>
<defs>
<clipPath id="clip0_43_975">
<rect width="28" height="22" fill="white"/>
</clipPath>
</defs>
</svg>
