<svg width="14" height="16" viewBox="0 0 14 16" fill="none" xmlns="http://www.w3.org/2000/svg"><path d="M12.59 3.038L2.514 14.288a.797.797 0 01-.593.27.799.799 0 01-.59-.275.995.995 0 01-.246-.66.997.997 0 01.24-.66l10.079-11.25a.797.797 0 01.592-.27c.222 0 .434.1.59.274a.995.995 0 01.247.66.997.997 0 01-.241.66zM1.34 6.148a3.29 3.29 0 01-.81-1.906 3.414 3.414 0 01.458-2.045A2.851 2.851 0 012.503.939a2.53 2.53 0 011.886.102 2.94 2.94 0 011.4 1.415 3.45 3.45 0 01.278 2.086 3.208 3.208 0 01-.97 1.808 2.63 2.63 0 01-1.779.71 2.531 2.531 0 01-1.071-.235 2.783 2.783 0 01-.908-.678zm.86-2.21c0 .288.09.568.254.792.164.223.393.376.646.432.254.056.518.013.746-.123a1.21 1.21 0 00.506-.624c.1-.267.112-.564.037-.84a1.247 1.247 0 00-.449-.676 1.03 1.03 0 00-.73-.205 1.075 1.075 0 00-.682.36 1.26 1.26 0 00-.244.405 1.368 1.368 0 00-.084.478zm11.198 8.125c0 .722-.225 1.423-.636 1.982-.41.559-.982.941-1.618 1.082a2.545 2.545 0 01-1.865-.309 3.029 3.029 0 01-1.267-1.56 3.466 3.466 0 01-.093-2.103 3.12 3.12 0 011.124-1.69 2.578 2.578 0 011.83-.512 2.69 2.69 0 011.705.9c.26.29.467.634.608 1.013.14.38.213.786.212 1.197zm-1.68 0c0-.165-.029-.327-.085-.48a1.26 1.26 0 00-.243-.404 1.075 1.075 0 00-.682-.36 1.031 1.031 0 00-.732.204c-.215.16-.374.4-.45.677-.075.276-.062.574.038.84.099.268.278.489.506.625.229.136.493.18.747.124a1.11 1.11 0 00.647-.434c.164-.223.254-.503.254-.793z" fill="#F36600"/></svg>