<svg width="99" height="11" viewBox="0 0 99 11" fill="none" xmlns="http://www.w3.org/2000/svg">
<g clip-path="url(#clip0_43_989)">
<path d="M90.4833 10.6171C90.2179 10.7532 89.9168 10.5146 89.9704 10.2101L90.5411 6.95816L88.119 4.65091C87.8928 4.43504 88.0104 4.04041 88.3136 3.99779L91.6809 3.51929L93.1824 0.544478C93.3179 0.276353 93.6843 0.276353 93.8197 0.544478L95.3212 3.51929L98.6886 3.99779C98.9918 4.04041 99.1094 4.43504 98.8825 4.65091L96.4611 6.95816L97.0317 10.2101C97.0854 10.5146 96.7842 10.7532 96.5189 10.6171L93.5001 9.06604L90.4826 10.6171H90.4833Z" fill="#FFE602"/>
<path d="M68.4833 10.6171C68.2179 10.7532 67.9168 10.5146 67.9704 10.2101L68.5411 6.95816L66.119 4.65091C65.8928 4.43504 66.0104 4.04041 66.3136 3.99779L69.6809 3.51929L71.1824 0.544478C71.3179 0.276353 71.6843 0.276353 71.8197 0.544478L73.3212 3.51929L76.6886 3.99779C76.9918 4.04041 77.1094 4.43504 76.8825 4.65091L74.4611 6.95816L75.0317 10.2101C75.0854 10.5146 74.7842 10.7532 74.5189 10.6171L71.5001 9.06604L68.4826 10.6171H68.4833Z" fill="#FFE602"/>
<path d="M46.4833 10.6171C46.2179 10.7532 45.9168 10.5146 45.9704 10.2101L46.5411 6.95816L44.119 4.65091C43.8928 4.43504 44.0104 4.04041 44.3136 3.99779L47.6809 3.51929L49.1824 0.544478C49.3179 0.276353 49.6843 0.276353 49.8197 0.544478L51.3212 3.51929L54.6886 3.99779C54.9918 4.04041 55.1094 4.43504 54.8825 4.65091L52.4611 6.95816L53.0317 10.2101C53.0854 10.5146 52.7842 10.7532 52.5189 10.6171L49.5001 9.06604L46.4826 10.6171H46.4833Z" fill="#FFE602"/>
<path d="M24.4833 10.6171C24.2179 10.7532 23.9168 10.5146 23.9704 10.2101L24.5411 6.95816L22.119 4.65091C21.8928 4.43504 22.0104 4.04041 22.3136 3.99779L25.6809 3.51929L27.1824 0.544478C27.3179 0.276353 27.6843 0.276353 27.8197 0.544478L29.3212 3.51929L32.6886 3.99779C32.9918 4.04041 33.1094 4.43504 32.8825 4.65091L30.4611 6.95816L31.0317 10.2101C31.0854 10.5146 30.7842 10.7532 30.5189 10.6171L27.5001 9.06604L24.4826 10.6171H24.4833Z" fill="#FFE602"/>
<path d="M2.4833 10.6171C2.21793 10.7532 1.9168 10.5146 1.97043 10.2101L2.54105 6.95816L0.118988 4.65091C-0.107199 4.43504 0.0103633 4.04041 0.313551 3.99779L3.68093 3.51929L5.18243 0.544478C5.31786 0.276353 5.6843 0.276353 5.81974 0.544478L7.32124 3.51929L10.6886 3.99779C10.9918 4.04041 11.1094 4.43504 10.8825 4.65091L8.46111 6.95816L9.03174 10.2101C9.08536 10.5146 8.78424 10.7532 8.51886 10.6171L5.50005 9.06604L2.48261 10.6171H2.4833Z" fill="#FFE602"/>
</g>
<defs>
<clipPath id="clip0_43_989">
<rect width="99" height="11" fill="white"/>
</clipPath>
</defs>
</svg>
