<svg width="75" height="96" viewBox="0 0 75 96" fill="none" xmlns="http://www.w3.org/2000/svg"><path fill-rule="evenodd" clip-rule="evenodd" d="M39.7 1.007c-3.86-1.289-8.265-.945-11.73.914-3.12 1.674-5.161 3.909-6.866 7.518-2.241 4.747-3.59 9.79-3.9 14.587-.061.94-.244 2.374-.405 3.187-.162.812-.534 2.659-.827 4.103-.732 3.612-.855 3.329 2.18 4.999l2.385 1.314-1.928 3.653c-1.803 3.415-1.926 3.692-1.894 4.235.02.32.159.722.31.894.15.172 1.265.836 2.476 1.475l2.2 1.162-.85 1.613c-.995 1.883-.618 1.857-3.026.215-.866-.59-1.635-1.052-1.71-1.027-.074.024-.488.582-.92 1.239-.629.958-.756 1.226-.642 1.357.079.09.978.73 1.998 1.422l1.856 1.26-1.436 2.808-1.436 2.807-.368-.201c-.203-.111-1.048-.667-1.879-1.235-.83-.567-1.57-1.013-1.644-.989-.073.024-.487.58-.918 1.237-.652.992-.759 1.224-.632 1.368.083.097.982.737 1.997 1.423l1.846 1.248-1.436 2.808-1.436 2.808-.435-.237c-.24-.13-1.084-.687-1.877-1.237-.794-.549-1.503-.978-1.578-.954-.226.076-1.703 2.412-1.617 2.558.043.075.94.719 1.993 1.43l1.914 1.295-1.435 2.805-1.435 2.806-.376-.199c-.207-.109-1.048-.668-1.87-1.241-.82-.573-1.557-1.02-1.636-.993-.112.04-1.75 2.387-1.743 2.498.002.015.824.588 1.828 1.273 1.005.685 1.94 1.34 2.079 1.455.207.171.167 1-.22 4.614-.367 3.426-.424 4.524-.258 4.936l.214.53 4.676 2.469 4.676 2.468.59-.16c.58-.159.977-.465 3.935-3.035.812-.706 1.547-1.307 1.632-1.337.085-.03 1.14.619 2.344 1.441 1.203.823 2.233 1.482 2.287 1.465.055-.017.471-.573.926-1.235.684-.997.802-1.234.682-1.372-.08-.091-.98-.733-2.001-1.426l-1.855-1.26 1.436-2.807 1.436-2.808.368.202c.202.11 1.047.666 1.878 1.234.83.568 1.57 1.013 1.644.99.073-.024.487-.58.918-1.237.652-.993.76-1.224.633-1.369-.084-.096-.983-.736-1.998-1.423L26.974 80.1l1.436-2.807 1.436-2.808.436.237c.239.13 1.084.687 1.877 1.236.793.55 1.503.979 1.577.954.227-.075 1.703-2.411 1.617-2.558-.043-.074-.94-.718-1.993-1.43l-1.914-1.294 1.435-2.806 1.435-2.805.377.198c.206.11 1.047.668 1.869 1.242.821.573 1.557 1.02 1.636.992.114-.04 1.75-2.385 1.743-2.5 0-.016-.907-.65-2.013-1.41l-2.011-1.378 1.328-2.604 1.328-2.604 2.204 1.164c1.213.64 2.39 1.187 2.617 1.214.227.028.638-.084.913-.248.467-.28.626-.538 2.429-3.953l1.93-3.653 2.43 1.23c2.407 1.217 2.435 1.227 2.959 1.065.5-.156 1.955-1.551 5.395-5.175a19.18 19.18 0 011.797-1.612c4.24-3.282 7.575-7.098 10.376-11.876 1.628-2.776 2.366-5.144 2.429-7.798.115-4.847-2.024-9.247-6.007-12.356-1.865-1.455-4.536-2.431-7.793-2.848-3.219-.412-5.075-.981-7.634-2.342-2.532-1.347-4.282-2.777-6.413-5.243-1.774-2.052-4.232-3.759-6.504-4.517zm3.68 6.208c3.418 3.679 4.756 4.771 7.825 6.391 3.077 1.625 4.752 2.122 9.477 2.81l2.147.314 1.811.95c1.533.804 1.939 1.079 2.644 1.791 2.421 2.447 3.646 5.446 3.55 8.69-.07 2.332-.307 3.167-1.594 5.602-2.332 4.413-5.51 8.187-9.635 11.444-1.024.808-5.977 5.658-6.19 6.06-.02.039-7.812-4.035-17.315-9.052-9.503-5.018-17.262-9.154-17.242-9.193.213-.402 1.424-7.227 1.514-8.529.362-5.24 1.684-9.986 4.014-14.411.932-1.772 1.228-2.223 1.974-3.005 2.66-2.788 6.647-4.139 10.415-3.526 1.502.243 2.246.521 3.844 1.433 1.308.746 1.6.983 2.761 2.231zm-8.367-.738a10.648 10.648 0 00-6.618 3.386c-.379.416-.971 1.312-1.439 2.177l-.794 1.471 1.34.707 1.339.707.785-1.303c.93-1.543 1.91-2.53 3.187-3.209.784-.417 2.252-.815 3.128-.848.278-.01.301-.147.254-1.485-.03-.81-.102-1.525-.163-1.588-.061-.064-.52-.07-1.02-.015zM44.37 53.8l-1.49 2.822-11.25-5.94-11.252-5.94 1.49-2.822 1.49-2.822 11.251 5.94 11.252 5.94-1.49 2.822zm-9.882 5.093c-.703 1.33-1.322 2.395-1.377 2.365a854.71 854.71 0 01-5.132-3.482c-2.767-1.886-5.11-3.47-5.206-3.521-.135-.072.042-.504.783-1.907l.958-1.814 5.625 2.97 5.626 2.97-1.277 2.42zm-8.14 1.631c2.771 1.888 5.114 3.472 5.206 3.521.128.069-.179.744-1.323 2.911-.82 1.552-1.515 2.81-1.545 2.793-.03-.016-2.354-1.59-5.162-3.498-2.81-1.909-5.172-3.504-5.252-3.546-.098-.052.329-.971 1.346-2.898.82-1.552 1.535-2.798 1.59-2.768.055.03 2.367 1.598 5.14 3.486zm-4.478 8.462a625.293 625.293 0 005.249 3.545c.082.043-.426 1.126-1.358 2.892-.82 1.552-1.516 2.808-1.548 2.791-.032-.017-2.36-1.594-5.174-3.505-2.814-1.91-5.176-3.506-5.249-3.544-.082-.044.426-1.126 1.358-2.892.82-1.552 1.516-2.809 1.548-2.792.032.017 2.36 1.594 5.174 3.505zm-4.484 8.459c2.808 1.908 5.171 3.504 5.25 3.546.1.052-.328.971-1.345 2.898-.82 1.552-1.535 2.798-1.59 2.768a897.77 897.77 0 01-5.14-3.486c-2.77-1.887-5.114-3.471-5.206-3.52-.128-.07.179-.744 1.323-2.912.82-1.552 1.515-2.809 1.546-2.793.03.016 2.353 1.59 5.162 3.499zm-6.85 6.862c4.658 3.137 6.69 4.545 6.739 4.67.03.074-.683.767-1.583 1.538l-1.638 1.404-3.282-1.732-3.282-1.732.315-2.796c.172-1.538.34-2.841.373-2.897.032-.055.178.001.324.126.146.125 1.062.763 2.035 1.419z" fill="#E75A3C" fill-opacity=".18"/></svg>