<svg width="89" height="68" viewBox="0 0 89 68" fill="none" xmlns="http://www.w3.org/2000/svg"><path fill-rule="evenodd" clip-rule="evenodd" d="M43.025-17.002l-.674 2.131-2.405.058-2.405.058 1.898 1.408c1.044.774 1.898 1.493 1.898 1.598 0 .104-.325 1.123-.722 2.263-.397 1.14-.689 2.106-.648 2.146.04.04.87-.527 1.843-1.26.974-.735 1.87-1.335 1.99-1.335.121 0 1.016.6 1.99 1.334.974.734 1.8 1.304 1.838 1.266.038-.037-.254-1.025-.648-2.195-.395-1.17-.717-2.192-.717-2.27 0-.08.85-.777 1.89-1.55l1.889-1.405-2.42-.103-2.421-.102-.618-1.949c-.34-1.071-.679-2.01-.752-2.086-.073-.076-.436.821-.806 1.993zM24.65-13.884c-.048.085-.343.939-.655 1.898-.313.959-.657 1.856-.765 1.993-.127.16-.97.27-2.366.307l-2.168.058 1.773 1.334c.975.733 1.775 1.487 1.777 1.675.003.189-.278 1.142-.623 2.12-.345.976-.599 1.853-.564 1.947.034.095.876-.427 1.87-1.16 1.722-1.268 1.83-1.317 2.258-1.014.248.175 1.09.781 1.87 1.347.782.566 1.451 1 1.487.964.036-.036-.26-1.027-.658-2.203l-.723-2.138.48-.41a65.44 65.44 0 011.894-1.487l1.414-1.077H26.22l-.675-2.154c-.372-1.184-.705-2.153-.741-2.153-.036 0-.105.069-.153.154zm37.241 1.891l-.67 2.045-2.4.058-2.4.057L58.32-8.4c1.044.787 1.898 1.53 1.898 1.652 0 .12-.317 1.16-.705 2.311-.803 2.383-.871 2.358 1.518.564.842-.632 1.644-1.106 1.782-1.053.137.052.926.592 1.752 1.198 1.732 1.272 2.122 1.521 1.972 1.26-.354-.613-1.412-4.46-1.257-4.567 1.198-.834 3.352-2.578 3.352-2.712 0-.096-1.025-.2-2.278-.232l-2.278-.058-.631-2c-.347-1.1-.687-2-.757-2-.069 0-.427.92-.796 2.045zM10.525 1.827L9.84 4.013H7.529c-1.271 0-2.309.069-2.306.154.004.084.699.661 1.545 1.281.847.62 1.674 1.23 1.839 1.354.256.193.197.527-.418 2.353-.395 1.17-.693 2.19-.664 2.268.029.077.838-.45 1.797-1.17.96-.72 1.84-1.312 1.955-1.314.116-.002.993.585 1.95 1.304.956.72 1.77 1.28 1.807 1.247.038-.033-.216-.957-.564-2.053-.348-1.097-.633-2.119-.633-2.271 0-.152.834-.901 1.854-1.664l1.853-1.387-2.427-.057L12.691 4l-.574-1.908c-.315-1.05-.649-2.03-.74-2.179-.108-.174-.41.506-.852 1.915zm65.244-.033l-.705 2.115-2.343.103-2.344.102 1.744 1.314c.96.722 1.814 1.373 1.899 1.446.085.073-.169 1.09-.563 2.26-.394 1.17-.674 2.17-.621 2.223.052.053.629-.303 1.28-.79l1.809-1.353.623-.466 1.809 1.337c.995.735 1.845 1.301 1.89 1.258.043-.044-.217-.996-.578-2.116s-.66-2.099-.665-2.175c-.004-.076.823-.769 1.84-1.538l1.846-1.4-2.342-.102-2.342-.103-.68-2.03c-.374-1.115-.72-2.067-.766-2.114-.048-.048-.404.866-.791 2.03zM6.143 18.631c-.084.201-.4 1.17-.704 2.154l-.55 1.788-2.444.103-2.443.103 1.89 1.405c1.039.772 1.89 1.516 1.89 1.653s-.278 1.068-.616 2.07c-.34 1-.616 1.944-.616 2.096 0 .152.79-.327 1.758-1.064.966-.737 1.843-1.34 1.947-1.34.105 0 .999.592 1.987 1.316.988.725 1.82 1.295 1.846 1.268.028-.028-.283-1.043-.69-2.257-.406-1.214-.66-2.278-.562-2.364.098-.086.963-.748 1.923-1.47l1.744-1.313-2.407-.058-2.407-.058-.696-2.198c-.496-1.564-.742-2.093-.85-1.834zm74.805 1.885l-.694 2.148-2.364.057-2.364.058 1.889 1.405c1.039.772 1.89 1.47 1.89 1.549 0 .08-.324 1.101-.718 2.271-.394 1.17-.692 2.151-.663 2.18.03.03.898-.582 1.93-1.36l1.875-1.413 1.302.975a96.44 96.44 0 001.96 1.436l.66.46-.182-.573c-.1-.315-.426-1.332-.726-2.26-.299-.927-.487-1.778-.418-1.89.07-.113.925-.784 1.902-1.493l1.775-1.287-2.417-.103-2.417-.103-.619-1.948c-.34-1.072-.683-2.018-.762-2.103-.08-.085-.457.813-.839 1.994zm-5.15 19.122l-.727 2.215-2.333.103-2.332.102 1.623 1.23c.892.678 1.741 1.324 1.887 1.437.211.163.119.638-.456 2.343-.396 1.175-.68 2.177-.632 2.226.05.049.626-.319 1.282-.817a70.667 70.667 0 011.834-1.35l.64-.446 1.787 1.347c.983.74 1.83 1.304 1.883 1.25.053-.052-.219-1.064-.603-2.248l-.698-2.153 1.868-1.41 1.87-1.409-2.344-.102-2.344-.103-.738-2.215-.739-2.215-.728 2.215zm-65.26.113l-.69 2.205H4.94l1.913 1.431c1.052.788 1.945 1.464 1.984 1.503.039.039-.251 1.026-.644 2.193-.394 1.168-.675 2.163-.625 2.213.05.05.909-.509 1.909-1.242l1.818-1.334 1.79 1.337c.985.735 1.836 1.292 1.89 1.238.055-.055-.192-.981-.549-2.06-.356-1.078-.595-2.097-.531-2.265.064-.167.904-.89 1.867-1.608l1.75-1.304L15.11 42l-2.402-.057-.48-1.584c-.263-.87-.596-1.86-.74-2.198-.258-.607-.27-.584-.951 1.59zm14.346 11.748c-.063.11-.412 1.099-.775 2.199l-.66 2H18.684l1.883 1.384c1.036.761 1.885 1.494 1.887 1.627.001.133-.284 1.132-.634 2.218-.35 1.087-.604 2.008-.564 2.047.04.039.884-.527 1.877-1.257l1.804-1.328 1.86 1.359c1.022.747 1.895 1.323 1.939 1.28.044-.045-.241-1.032-.633-2.194-.391-1.163-.667-2.186-.612-2.275.054-.088.89-.745 1.855-1.46l1.756-1.299-2.33-.057-2.331-.058-.721-2.192c-.397-1.206-.773-2.103-.836-1.994zm37.006 1.942l-.672 2.051h-2.372c-2.767 0-2.762-.037-.25 1.771.893.642 1.622 1.272 1.622 1.401s-.317 1.175-.705 2.326c-.387 1.15-.665 2.091-.618 2.091.048 0 .896-.599 1.885-1.331.989-.733 1.851-1.333 1.916-1.334.065 0 .804.514 1.642 1.143 2.364 1.775 2.286 1.816 1.48-.758-.39-1.246-.678-2.288-.64-2.315 1.168-.83 3.454-2.676 3.454-2.79 0-.085-.986-.17-2.191-.19-1.205-.019-2.25-.071-2.323-.116-.072-.044-.392-.963-.71-2.04-.319-1.078-.64-1.96-.712-1.96-.073 0-.436.923-.806 2.051zM43.225 58.46l-.658 2.147-2.365.058-2.366.057 1.853 1.387c1.02.763 1.854 1.46 1.854 1.55 0 .089-.317 1.103-.705 2.253-.388 1.15-.642 2.09-.565 2.088.078-.001.951-.606 1.942-1.343l1.801-1.34 1.79 1.339c.985.736 1.85 1.34 1.923 1.343.073.002-.183-.97-.57-2.16-.386-1.19-.653-2.244-.592-2.341.06-.097.9-.762 1.865-1.476l1.756-1.3-2.372-.057-2.372-.058-.658-2.147c-.362-1.181-.713-2.147-.78-2.147-.068 0-.42.966-.781 2.147z" fill="#00A1D3" fill-opacity=".1"/></svg>