<svg width="10" height="10" viewBox="0 0 10 10" fill="none" xmlns="http://www.w3.org/2000/svg">
<path d="M5 9C7.2 9 9 7.2 9 5C9 2.8 7.2 1 5 1C2.8 1 1 2.8 1 5C1 7.2 2.8 9 5 9ZM5 0C7.75 0 10 2.25 10 5C10 7.75 7.75 10 5 10C2.25 10 0 7.75 0 5C0 2.25 2.25 0 5 0ZM7.5 4.75V5.5H4.5V2.5H5.25V4.75H7.5Z" fill="url(#paint0_linear_43_985)"/>
<defs>
<linearGradient id="paint0_linear_43_985" x1="-1.14155" y1="10" x2="12.6951" y2="9.37269" gradientUnits="userSpaceOnUse">
<stop stop-color="#4283D0"/>
<stop offset="1" stop-color="#2D72C5"/>
</linearGradient>
</defs>
</svg>
