<svg width="32" height="32" viewBox="0 0 32 32" fill="none" xmlns="http://www.w3.org/2000/svg">
<path d="M14.25 3.74995C12.8711 3.74995 11.5057 4.02154 10.2318 4.54922C8.9579 5.07689 7.80039 5.85031 6.82538 6.82533C5.85036 7.80034 5.07694 8.95786 4.54926 10.2318C4.02159 11.5057 3.75 12.8711 3.75 14.25C3.75 15.6288 4.02159 16.9942 4.54926 18.2681C5.07694 19.542 5.85036 20.6996 6.82538 21.6746C7.80039 22.6496 8.9579 23.423 10.2318 23.9507C11.5057 24.4784 12.8711 24.75 14.25 24.75C17.0348 24.75 19.7055 23.6437 21.6746 21.6746C23.6438 19.7054 24.75 17.0347 24.75 14.25C24.75 11.4652 23.6438 8.79446 21.6746 6.82533C19.7055 4.8562 17.0348 3.74995 14.25 3.74995ZM0.25 14.25C0.250319 12.022 0.782382 9.82621 1.80197 7.8452C2.82156 5.86419 4.29922 4.15512 6.11216 2.86005C7.9251 1.56497 10.0209 0.721285 12.2255 0.399104C14.4301 0.0769233 16.6797 0.285555 18.7875 1.00766C20.8952 1.72976 22.8001 2.94448 24.344 4.55087C25.8879 6.15725 27.026 8.10891 27.6639 10.2436C28.3018 12.3784 28.421 14.6345 28.0116 16.8246C27.6022 19.0146 26.676 21.0753 25.31 22.8355L31.2373 28.7627C31.556 29.0928 31.7324 29.5348 31.7284 29.9937C31.7244 30.4525 31.5404 30.8914 31.2159 31.2159C30.8915 31.5403 30.4525 31.7244 29.9937 31.7284C29.5349 31.7324 29.0928 31.556 28.7627 31.2372L22.8355 25.3099C20.7661 26.9166 18.2873 27.9104 15.6811 28.1782C13.0749 28.446 10.4458 27.9771 8.09288 26.8249C5.73993 25.6727 3.75751 23.8833 2.37104 21.6603C0.984578 19.4373 0.249709 16.8699 0.25 14.25Z" fill="white" fill-opacity="0.55"/>
</svg>
