<svg width="15" height="13" viewBox="0 0 15 13" fill="none" xmlns="http://www.w3.org/2000/svg">
<path fill-rule="evenodd" clip-rule="evenodd" d="M13.2037 0.722674C13.1722 0.73706 11.4125 2.61833 9.29333 4.90329L5.44026 9.05773L3.53448 7.00497C1.73662 5.06842 1.623 4.95219 1.52814 4.95219C1.435 4.95219 1.37734 5.00649 0.747958 5.68685C0.169689 6.31195 0.0683594 6.43504 0.0683594 6.51224C0.0683594 6.59137 0.40071 6.96145 2.66821 9.40694C4.09811 10.9491 5.30483 12.2319 5.34978 12.2576C5.41407 12.2943 5.44793 12.297 5.50858 12.2699C5.55095 12.251 7.64455 10.0166 10.161 7.30457C14.1702 2.98384 14.7364 2.36241 14.7364 2.28276C14.7364 2.20524 14.6362 2.08417 14.056 1.46012C13.6818 1.05765 13.3498 0.721193 13.3183 0.712456C13.2867 0.703689 13.2352 0.708288 13.2037 0.722674Z" fill="white"/>
</svg>
