<svg width="24" height="25" viewBox="0 0 24 25" fill="none" xmlns="http://www.w3.org/2000/svg"><path d="M23.913 18.218c-.147-.265-.54-.423-1.133-.742-.59-.32-3.493-1.858-4.036-2.07-.54-.212-.933-.32-1.329.319-.393.635-1.526 2.07-1.87 2.493-.344.424-.69.478-1.28.159-.59-.32-2.493-.99-4.749-3.157-1.754-1.687-2.94-3.77-3.284-4.408-.344-.635-.036-.98.258-1.297.266-.284.59-.742.886-1.115.3-.368.398-.633.596-1.06.197-.423.1-.796-.05-1.115-.148-.316-1.329-3.448-1.82-4.721C5.622.264 5.135.43 4.773.412L3.64.391c-.393 0-1.033.158-1.573.796S0 3.362 0 6.493c0 3.131 2.116 6.156 2.41 6.58.296.424 4.163 6.85 10.087 9.604a32.614 32.614 0 003.366 1.34c1.415.484 2.703.415 3.72.252 1.135-.181 3.493-1.539 3.986-3.024.493-1.488.493-2.761.344-3.027z" fill="#48B39F"/></svg>