<svg width="23" height="23" viewBox="0 0 23 23" fill="none" xmlns="http://www.w3.org/2000/svg">
<path d="M19.7005 5.36144L17.3084 2.97159C17.0164 2.6796 16.6256 2.51562 16.2123 2.51562C15.799 2.51562 15.4082 2.67735 15.1162 2.97159L12.5399 5.54337C12.2479 5.83536 12.084 6.22842 12.084 6.6417C12.084 7.05723 12.2457 7.4458 12.5399 7.74004L14.5524 9.7548C14.094 10.823 13.4352 11.7936 12.6118 12.6141C11.7875 13.4429 10.8239 14.0965 9.7548 14.5592L7.7423 12.5444C7.4503 12.2524 7.05948 12.0885 6.6462 12.0885C6.44235 12.0877 6.24039 12.1277 6.05218 12.206C5.86396 12.2843 5.69327 12.3993 5.5501 12.5444L2.97159 15.1162C2.6796 15.4082 2.51562 15.8013 2.51562 16.2146C2.51562 16.6301 2.67735 17.0187 2.97159 17.3129L5.36144 19.7027C5.86007 20.2014 6.54736 20.4866 7.25264 20.4866C7.39863 20.4866 7.54015 20.4754 7.6839 20.4507C10.6577 19.961 13.6091 18.3775 15.9922 15.9967C18.373 13.6113 19.9543 10.66 20.4484 7.6839C20.5899 6.83937 20.3069 5.97013 19.7005 5.36144ZM18.856 7.4166C18.418 10.0647 16.9939 12.7062 14.8489 14.8512C12.7039 16.9962 10.0647 18.4202 7.4166 18.8582C7.08419 18.9144 6.74277 18.8021 6.5002 18.5617L4.15303 16.2146L6.6417 13.7236L9.33252 16.4189L9.35273 16.4392L9.83789 16.2595C11.3089 15.7186 12.6448 14.8644 13.7528 13.7559C14.8609 12.6475 15.7146 11.3114 16.255 9.84015L16.4347 9.35499L13.7214 6.64396L16.2101 4.15303L18.5572 6.5002C18.7998 6.74277 18.9121 7.08419 18.856 7.4166Z" fill="url(#paint0_linear_43_987)"/>
<defs>
<linearGradient id="paint0_linear_43_987" x1="0.464411" y1="20.4866" x2="25.327" y2="19.3596" gradientUnits="userSpaceOnUse">
<stop stop-color="#4283D0"/>
<stop offset="1" stop-color="#2D72C5"/>
</linearGradient>
</defs>
</svg>
