<svg width="34" height="28" viewBox="0 0 34 28" fill="none" xmlns="http://www.w3.org/2000/svg">
<path fill-rule="evenodd" clip-rule="evenodd" d="M29.8462 0.955976C29.775 0.988467 25.8008 5.23737 21.0146 10.398L12.3123 19.781L8.00803 15.1448C3.9475 10.771 3.69088 10.5085 3.47665 10.5085C3.2663 10.5085 3.13605 10.6311 1.71458 12.1678C0.408544 13.5796 0.179688 13.8576 0.179688 14.0319C0.179688 14.2106 0.930314 15.0465 6.05153 20.5697C9.28101 24.0528 12.0064 26.95 12.1079 27.008C12.2531 27.091 12.3296 27.0969 12.4666 27.0358C12.5623 26.993 17.2908 21.9466 22.9742 15.8214C32.029 6.06289 33.3078 4.65937 33.3078 4.47949C33.3078 4.30441 33.0817 4.03096 31.7711 2.62151C30.926 1.71254 30.1762 0.95263 30.105 0.932898C30.0338 0.913097 29.9174 0.923485 29.8462 0.955976Z" fill="white"/>
</svg>
