<svg width="66" height="86" viewBox="0 0 66 86" fill="none" xmlns="http://www.w3.org/2000/svg">
<path fill-rule="evenodd" clip-rule="evenodd" d="M34.7265 1.32237C31.3062 0.18072 27.4025 0.484837 24.3322 2.13228C21.5672 3.61574 19.7591 5.59569 18.2491 8.79353C16.2629 12.9996 15.068 17.4676 14.7928 21.7183C14.7388 22.5516 14.5774 23.8223 14.4339 24.5421C14.2906 25.262 13.9612 26.898 13.7018 28.1778C13.0533 31.3784 12.9438 31.1272 15.6323 32.6072L17.7465 33.7711L16.0379 37.0086C14.4409 40.0342 14.3312 40.2797 14.3602 40.7611C14.3773 41.0443 14.5007 41.4008 14.6344 41.553C14.7681 41.7052 15.7552 42.2932 16.828 42.8596L18.7785 43.8894L18.0241 45.3182C17.1429 46.9873 17.477 46.9636 15.3433 45.5092C14.576 44.9863 13.8944 44.5765 13.8285 44.5986C13.7627 44.6207 13.3961 45.1147 13.0137 45.6967C12.456 46.5455 12.3436 46.7832 12.4446 46.8991C12.514 46.9785 13.3106 47.5458 14.2147 48.1596L15.8588 49.2758L14.5863 51.7635L13.314 54.2512L12.9879 54.0724C12.8087 53.9741 12.0597 53.482 11.3237 52.9789C10.5877 52.4758 9.93216 52.0812 9.86691 52.1022C9.80172 52.1231 9.43554 52.6163 9.05315 53.1983C8.47565 54.0774 8.38092 54.2824 8.49295 54.4108C8.56719 54.4958 9.36377 55.063 10.2631 55.6714L11.8982 56.7774L10.6258 59.265L9.3535 61.7528L8.96799 61.5427C8.75611 61.4272 8.00753 60.9344 7.30472 60.4474C6.60184 59.9606 5.973 59.5802 5.90724 59.6021C5.70641 59.6689 4.39777 61.7385 4.47395 61.8687C4.51272 61.9347 5.30742 62.5049 6.24007 63.1357L7.93579 64.2825L6.66431 66.7684L5.39295 69.2543L5.05957 69.0783C4.87633 68.9816 4.13099 68.4866 3.40325 67.9785C2.67564 67.4704 2.02337 67.0745 1.95371 67.099C1.85389 67.134 0.402456 69.2136 0.409356 69.3115C0.410357 69.3251 1.13911 69.8331 2.02889 70.4402C2.91873 71.0472 3.74739 71.6272 3.87044 71.729C4.05389 71.8808 4.0189 72.6152 3.67602 75.8177C3.35088 78.853 3.30009 79.826 3.44755 80.1911L3.63719 80.6607L7.78011 82.848L11.9229 85.0352L12.4459 84.8926C12.9606 84.7523 13.3116 84.4816 15.933 82.2038C16.6524 81.5787 17.303 81.0456 17.3785 81.0193C17.4542 80.9929 18.3887 81.5675 19.4554 82.2964C20.5219 83.0251 21.434 83.6093 21.4822 83.5942C21.5303 83.5793 21.8995 83.0867 22.3026 82.4997C22.9089 81.6166 23.0132 81.4068 22.9066 81.2847C22.8358 81.2035 22.0379 80.6347 21.1338 80.0209L19.4897 78.9047L20.7621 76.417L22.0344 73.9293L22.3605 74.1082C22.5398 74.2065 23.2887 74.6986 24.0248 75.2017C24.7608 75.7048 25.4163 76.0993 25.4816 76.0783C25.5468 76.0575 25.9129 75.5642 26.2953 74.9823C26.8728 74.1032 26.9676 73.8982 26.8555 73.7697C26.7813 73.6847 25.9847 73.1175 25.0854 72.5092L23.4503 71.4032L24.7227 68.9155L25.995 66.4278L26.3805 66.6378C26.5924 66.7534 27.3409 67.2462 28.0438 67.7331C28.7466 68.2199 29.3755 68.6004 29.4412 68.5784C29.6421 68.5117 30.9507 66.442 30.8745 66.3118C30.8358 66.2458 30.0411 65.6757 29.1084 65.0449L27.4127 63.898L28.6842 61.4122L29.9555 58.9262L30.2889 59.1022C30.4722 59.199 31.2175 59.6939 31.9452 60.2021C32.6728 60.7102 33.3251 61.106 33.3948 61.0816C33.4956 61.0462 34.9447 58.9682 34.9394 58.8667C34.9386 58.8519 34.136 58.2898 33.1558 57.6178L31.3736 56.3958L32.5504 54.0887L33.7272 51.7818L35.6803 52.8129C36.7545 53.38 37.798 53.8641 37.999 53.8886C38.2002 53.9132 38.5641 53.8141 38.8076 53.6684C39.2215 53.4209 39.3623 53.1918 40.96 50.1666L42.6696 46.9296L44.8232 48.0189C46.9561 49.0979 46.9811 49.1068 47.4449 48.9625C47.888 48.8246 49.1769 47.5884 52.2253 44.3772C52.6103 43.9716 53.3271 43.3289 53.818 42.9489C57.5746 40.0414 60.529 36.6598 63.0114 32.4264C64.4539 29.9664 65.1073 27.8685 65.1634 25.5168C65.2655 21.222 63.3703 17.3239 59.8406 14.5692C58.1885 13.2799 55.8214 12.4148 52.9359 12.0456C50.0838 11.6808 48.4394 11.1762 46.1718 9.97014C43.9279 8.77677 42.3778 7.50966 40.4892 5.32501C38.9173 3.50676 36.7399 1.99433 34.7265 1.32237ZM37.9864 6.82325C41.0153 10.0827 42.2002 11.0506 44.9193 12.4862C47.6462 13.9258 49.13 14.3659 53.3174 14.9765L55.2197 15.254L56.8241 16.0956C58.1825 16.808 58.5419 17.0515 59.1666 17.683C61.3118 19.8511 62.3971 22.5077 62.312 25.3818C62.2508 27.4483 62.0403 28.1889 60.8999 30.3461C58.8331 34.2565 56.0178 37.6003 52.3628 40.4859C51.4552 41.2023 47.067 45.4995 46.8788 45.8559C46.8608 45.89 39.9566 42.2805 31.5362 37.8348C23.1157 33.3892 16.241 29.7239 16.259 29.6897C16.4472 29.3334 17.5204 23.286 17.6001 22.1325C17.9212 17.4899 19.0926 13.2839 21.1564 9.36299C21.9826 7.79327 22.2451 7.39377 22.9058 6.70113C25.2628 4.23013 28.7953 3.03391 32.1338 3.57629C33.4645 3.79237 34.1243 4.03843 35.5398 4.8459C36.6988 5.50713 36.9585 5.717 37.9864 6.82325ZM30.5726 6.16942C28.3502 6.41763 26.2297 7.50268 24.7092 9.1693C24.3731 9.5376 23.8484 10.3317 23.4343 11.0985L22.7305 12.4019L23.9173 13.0285L25.1042 13.6551L25.8 12.4998C26.6233 11.133 27.4912 10.2591 28.6235 9.65709C29.3184 9.28766 30.6185 8.93503 31.3953 8.90538C31.6416 8.89594 31.6622 8.77485 31.62 7.58985C31.5944 6.87197 31.5294 6.2385 31.4756 6.18207C31.4216 6.12557 31.0153 6.11995 30.5726 6.16942ZM38.865 48.0993L37.5448 50.5998L27.5756 45.3364L17.6064 40.073L18.9266 37.5725L20.2467 35.072L30.216 40.3354L40.1852 45.5988L38.865 48.0993ZM30.1085 52.6119C29.4861 53.7907 28.9371 54.7337 28.8882 54.7075C28.8395 54.6811 26.7935 53.2926 24.3415 51.6218C21.8896 49.9509 19.8136 48.547 19.7284 48.502C19.6086 48.4387 19.7657 48.0559 20.4221 46.8127L21.2708 45.2052L26.2554 47.8369L31.24 50.4686L30.1085 52.6119ZM22.8954 54.0572C25.3514 55.7294 27.4274 57.1332 27.5087 57.1767C27.6223 57.2374 27.3505 57.8356 26.3365 59.7562C25.6104 61.1315 24.9943 62.2451 24.9674 62.2309C24.9405 62.2167 22.8823 60.8217 20.3935 59.1309C17.9048 57.4401 15.8111 56.0264 15.7407 55.9892C15.6535 55.9431 16.0317 55.1285 16.9331 53.4212C17.6592 52.0459 18.293 50.9423 18.3417 50.9688C18.3903 50.9953 20.4395 52.3851 22.8954 54.0572ZM18.9286 61.555C21.4219 63.2482 23.5147 64.6615 23.5791 64.6955C23.6523 64.7342 23.202 65.6932 22.376 67.2578C21.6499 68.6331 21.0328 69.7461 21.0046 69.7313C20.9764 69.7164 18.9133 68.3188 16.4199 66.6256C13.9266 64.9323 11.8338 63.5191 11.7694 63.485C11.6961 63.4464 12.1465 62.4874 12.9725 60.9228C13.6986 59.5475 14.3157 58.4344 14.3439 58.4492C14.3721 58.4642 16.4352 59.8617 18.9286 61.555ZM14.955 69.0496C17.4437 70.7405 19.5374 72.1542 19.6078 72.1913C19.695 72.2374 19.3168 73.0521 18.4154 74.7593C17.6893 76.1346 17.0555 77.2383 17.0068 77.2118C16.9581 77.1852 14.909 75.7954 12.453 74.1233C9.99708 72.4512 7.92117 71.0474 7.83977 71.0039C7.72615 70.9431 7.99795 70.3449 9.01198 68.4243C9.73808 67.049 10.3542 65.9354 10.3811 65.9496C10.408 65.9638 12.4662 67.3588 14.955 69.0496ZM8.88654 75.1295C13.0132 77.9097 14.8131 79.1569 14.8568 79.2669C14.8832 79.3331 14.2519 79.9468 13.4539 80.6306L12.0031 81.8743L9.09526 80.3395L6.18732 78.8048L6.46568 76.3275C6.61866 74.965 6.7675 73.8101 6.79635 73.7609C6.8252 73.7117 6.95468 73.7619 7.08402 73.8726C7.21335 73.9832 8.0245 74.5489 8.88654 75.1295Z" fill="#F36600"/>
</svg>
