<svg width="55" height="55" viewBox="0 0 55 55" fill="none" xmlns="http://www.w3.org/2000/svg">
<path d="M52.4265 23.7133L6.63148 0.815757C6.01368 0.529525 5.33411 0.402357 4.65461 0.445831C3.97511 0.489304 3.31728 0.702038 2.741 1.06467C2.16471 1.4273 1.68827 1.9283 1.35506 2.52208C1.02184 3.11586 0.842425 3.78355 0.833146 4.46437V50.2396C0.827377 50.9385 1.00199 51.627 1.34011 52.2387C1.67822 52.8504 2.16841 53.3645 2.76328 53.7313C3.35816 54.0981 4.03761 54.3053 4.73596 54.3328C5.43431 54.3603 6.12794 54.2072 6.74982 53.8883L52.4265 30.9908C53.1031 30.6511 53.672 30.13 54.0695 29.4857C54.467 28.8414 54.6775 28.0992 54.6775 27.3421C54.6775 26.5851 54.467 25.8429 54.0695 25.1986C53.672 24.5543 53.1031 24.0332 52.4265 23.6935V23.7133Z" fill="url(#paint0_linear_43_970)"/>
<defs>
<linearGradient id="paint0_linear_43_970" x1="-5.31362" y1="54.3359" x2="69.1892" y2="50.9616" gradientUnits="userSpaceOnUse">
<stop stop-color="#4283D0"/>
<stop offset="1" stop-color="#2D72C5"/>
</linearGradient>
</defs>
</svg>
