<svg width="17" height="17" viewBox="0 0 17 17" fill="none" xmlns="http://www.w3.org/2000/svg">
<path d="M4.95801 7.79169H6.37468V9.20835H4.95801V7.79169ZM4.95801 10.625H6.37468V12.0417H4.95801V10.625ZM7.79135 7.79169H9.20801V9.20835H7.79135V7.79169ZM7.79135 10.625H9.20801V12.0417H7.79135V10.625ZM10.6247 7.79169H12.0414V9.20835H10.6247V7.79169ZM10.6247 10.625H12.0414V12.0417H10.6247V10.625Z" fill="#85CAFA"/>
<path d="M3.54167 15.5833H13.4583C14.2396 15.5833 14.875 14.9479 14.875 14.1667V4.25002C14.875 3.46873 14.2396 2.83335 13.4583 2.83335H12.0417V1.41669H10.625V2.83335H6.375V1.41669H4.95833V2.83335H3.54167C2.76037 2.83335 2.125 3.46873 2.125 4.25002V14.1667C2.125 14.9479 2.76037 15.5833 3.54167 15.5833ZM13.4583 5.66669L13.459 14.1667H3.54167V5.66669H13.4583Z" fill="#85CAFA"/>
</svg>
