<svg xmlns="http://www.w3.org/2000/svg" width="27" height="34" viewBox="0 0 27 34"><path fill="#81c400" d="M11.684 33.603c.262 0 .524 0 .785-.13l13.077-6.93c.785-.393 1.046-1.309.654-2.093-.393-.786-1.308-1.046-2.093-.655l-13.207 6.8c-.785.393-1.046 1.308-.654 2.092.262.654.915.916 1.438.916zM2.661 15.294L25.546 3.265c.785-.392 1.046-1.307.654-2.092C25.807.39 24.892.127 24.107.52L1.092 12.42c-.784.391-1.046 1.307-.654 2.09.262.656.916.917 1.439.917.261 0 .523 0 .784-.133zm5.231 8.896c.654 0 1.177-.262 1.57-1.048.392-.784.13-1.7-.655-2.092l-3.4-1.7 20.27-10.462c.784-.392 1.046-1.308.654-2.093-.393-.784-1.308-1.044-2.093-.653l-23.015 11.9c-.523.262-.915.786-.915 1.438 0 .654.392 1.178.915 1.44l5.884 3.137c.262.133.524.133.785.133z"/><path fill="#81c400" d="M1.877 33.081c-.523 0-1.177-.262-1.439-.917-.392-.783 0-1.699.785-2.092l20.27-10.46-3.4-1.701c-.786-.39-1.047-1.308-.655-2.092.393-.785 1.308-1.045 2.093-.653l6.015 3.138c.523.26.915.785.915 1.439 0 .653-.392 1.176-.915 1.438L2.661 32.819c-.261.13-.523.262-.784.262z"/><path fill="#423B44" d="M13.39 17.656c.872 0 1.579.7 1.579 1.563a1.57 1.57 0 0 1-1.578 1.562 1.57 1.57 0 0 1-1.579-1.562 1.57 1.57 0 0 1 1.579-1.563z"/></svg>
