<svg width="30" height="30" viewBox="0 0 30 30" fill="none" xmlns="http://www.w3.org/2000/svg"><rect width="30" height="30" rx="1" fill="#F79418"/><path d="M16.971 19.326c2.137-.436 3.418-1.448 3.486-1.502a1.451 1.451 0 00-1.816-2.265c-.014.011-1.38 1.059-3.627 1.06-2.247-.001-3.641-1.049-3.655-1.06a1.451 1.451 0 00-1.816 2.265c.07.055 1.402 1.093 3.6 1.518l-3.062 3.2a1.451 1.451 0 102.09 2.015l2.844-3.03 3.131 3.05a1.451 1.451 0 002.05-2.055l-3.225-3.196z" fill="#fff"/><path d="M15.5 5a5.5 5.5 0 100 11 5.5 5.5 0 000-11zm0 7.774a2.274 2.274 0 110-4.548 2.274 2.274 0 010 4.548z" fill="#fff"/></svg>