<svg width="35" height="23" viewBox="0 0 35 23" fill="none" xmlns="http://www.w3.org/2000/svg"><path fill-rule="evenodd" clip-rule="evenodd" d="M25.947.631c-2 .142-3.69.848-4.974 2.077-1.161 1.11-1.86 2.414-2.087 3.894-.26 1.698.056 3.385.88 4.69.767 1.219 2.05 2.255 3.474 2.81 1.124.438 2.242.602 3.84.566.404-.01.735-.009.735.001 0 .033-.246.619-.38.905-1.165 2.479-3.093 4.324-5.62 5.378-.642.267-1.53.555-2.152.695a6.919 6.919 0 00-.34.083c-.09.032 1.04.266 1.67.346.383.05.522.054 1.09.042 2.085-.045 4.077-.628 5.93-1.734 1.429-.853 2.849-2.102 4.012-3.528 1.788-2.194 2.755-4.524 2.954-7.118.042-.545.018-1.742-.042-2.156-.244-1.663-.902-3.025-2.056-4.252-.268-.285-.9-.85-1.188-1.06a8.423 8.423 0 00-4.1-1.6 11.565 11.565 0 00-1.647-.039zm-18.88.491c-1.644.13-3.016.617-4.204 1.49a8.193 8.193 0 00-1.697 1.752C.226 5.73-.162 7.429.062 9.208c.068.543.157.915.34 1.413.464 1.27 1.306 2.322 2.546 3.178a7.64 7.64 0 002.573 1.122c.817.19 1.348.237 2.571.225.51-.005.928-.001.928.008 0 .01-.063.166-.138.349-.69 1.659-1.649 3.017-2.91 4.117-1.336 1.167-3.093 2.034-5.074 2.504-.225.053-.395.105-.378.114.045.026.793.186 1.154.248.996.17 1.795.174 2.933.015 2.506-.351 4.725-1.411 6.759-3.229 2.43-2.172 3.972-4.65 4.56-7.325.215-.984.3-1.867.275-2.881-.017-.67-.038-.897-.136-1.421-.262-1.4-.92-2.685-1.929-3.772-.266-.287-.86-.824-1.163-1.055-1.217-.922-2.573-1.466-4.138-1.658-.407-.05-1.356-.07-1.769-.038z" fill="#F36600"/></svg>