<svg width="5" height="9" viewBox="0 0 5 9" fill="none" xmlns="http://www.w3.org/2000/svg"><path d="M1.12 2.4L.04 2.388C.062 1.628.294 1.04.734.624 1.175.208 1.771 0 2.523 0c.736 0 1.32.176 1.752.528.432.344.648.836.648 1.476 0 .352-.068.668-.204.948-.128.272-.284.5-.468.684-.184.184-.368.364-.552.54a2.694 2.694 0 00-.48.624c-.128.24-.192.508-.192.804H1.971c0-.352.056-.664.168-.936.12-.28.26-.508.42-.684.16-.176.32-.344.48-.504.168-.16.308-.344.42-.552.12-.216.18-.456.18-.72 0-.336-.112-.592-.336-.768-.216-.176-.516-.264-.9-.264-.816 0-1.244.408-1.284 1.224zm.827 4.692a.713.713 0 01.54-.228c.216 0 .396.076.54.228a.748.748 0 01.216.552.804.804 0 01-.216.576.713.713 0 01-.54.228.713.713 0 01-.54-.228.804.804 0 01-.216-.576c0-.224.072-.408.216-.552z" fill="#F36600"/></svg>