<svg width="1087" height="768" viewBox="0 0 1087 768" fill="none" xmlns="http://www.w3.org/2000/svg">
<g clip-path="url(#clip0_108_2)">
<mask id="mask0_108_2" style="mask-type:luminance" maskUnits="userSpaceOnUse" x="0" y="0" width="1087" height="768">
<path d="M1087 0H0V768H1087V0Z" fill="white"/>
</mask>
<g mask="url(#mask0_108_2)">
<path d="M334.783 662.958L335.748 662.67L335.95 664.291L340.194 663.36L344.679 663.513L347.956 663.689L351.67 659.681L355.715 655.863L359.143 652.172L360.176 654.215L360.913 658.929L358.141 658.952L357.698 662.815L358.657 663.637L356.203 664.799L356.187 667.208L354.607 669.637L354.465 671.995L353.372 673.229L337.07 670.281L334.99 664.324L334.783 662.958Z" fill="#F0F0F0" stroke="white"/>
<path d="M291.412 554.208L298.948 553.088L300.072 554.972L302.138 556.21L301.047 557.997L303.935 560.431L302.407 562.679L304.709 564.59L307.144 565.737L307.264 570.565L305.301 570.77L303.086 566.747L303.111 565.669L300.715 565.685L299.109 563.802L297.981 563.994L295.844 561.938L291.811 560.181L292.333 556.725L291.412 554.208Z" fill="#F0F0F0" stroke="white"/>
<path d="M147.125 500.724L146.713 504.02L143.659 504.035L144.711 505.774L142.91 510.895L141.875 512.227L137.132 512.423L134.395 514.206L129.915 513.599L122.16 511.566L120.949 508.811L115.589 510.189L114.957 511.692L111.672 510.57L108.904 510.355L106.449 508.91L107.279 506.962L107.07 505.542L108.707 505.101L111.452 507.322L112.223 505.212L117.007 505.554L120.884 504.115L123.485 504.36L125.176 506.003L125.681 504.641L124.913 499.379L126.861 498.346L128.774 494.573L132.803 497.211L135.854 493.855L137.763 493.238L141.974 495.749L144.522 495.323L147.021 496.871L146.585 497.905L147.125 500.724Z" fill="#F0F0F0" stroke="white"/>
<path d="M299.108 563.802L300.716 565.684L303.112 565.669L303.087 566.748L305.302 570.772L301.582 569.849L298.841 566.636L297.98 563.994L299.108 563.802ZM311.97 553.293L314.37 553.782L315.301 551.954L318.539 549.041L321.39 552.842L324.149 557.916L326.677 558.248L328.346 560.16L323.878 560.728L322.936 566.189L322.003 568.632L320.015 570.255L320.16 573.677L318.81 574.021L315.427 570.406L317.297 566.965L315.693 564.91L313.661 565.429L307.264 570.567L307.144 565.738L304.708 564.591L302.406 562.68L303.936 560.432L301.046 557.999L302.137 556.212L300.072 554.974L298.948 553.089L300.277 551.915L304.317 553.981L307.24 554.407L307.979 553.565L305.308 549.664L306.716 548.664L308.24 548.907L311.97 553.293Z" fill="#F0F0F0" stroke="white"/>
<path d="M158.112 526.36L160.077 526.341L158.719 529.681L161.335 532.583L160.544 536.105L159.267 536.434L158.253 537.115L156.489 538.842L155.694 542.903L150.895 540.111L148.846 537.013L146.781 535.363L144.287 532.564L143.111 530.225L140.455 526.677L141.589 523.503L143.537 525.263L144.711 523.673L147.245 523.503L151.909 524.776L155.657 524.669L158.112 526.36Z" fill="#F0F0F0" stroke="white"/>
<path d="M177.917 531.103L179.478 534.194L181.579 533.645L185.747 534.813L193.711 535.208L196.402 533.297L202.787 531.548L206.733 534.279L209.923 535.065L207.109 538.152L205.128 543.431L206.877 547.599L202.207 546.622L196.682 548.911L196.624 552.507L191.694 553.186L187.873 550.669L183.531 552.65L179.519 552.441L179.134 547.657L176.418 545.319L177.31 544.286L176.722 543.413L177.633 541.073L179.701 538.761L177.066 535.548L176.579 532.811L177.917 531.103Z" fill="#F0F0F0" stroke="white"/>
<path d="M552.366 641.786L554.575 643.73L554.194 647.454L549.77 647.634L545.189 647.228L541.781 648.174L536.85 645.878L536.734 644.661L540.323 640.132L543.253 638.579L547.128 639.997L549.993 640.146L552.366 641.786Z" fill="#F0F0F0" stroke="white"/>
<path d="M182.403 450.86L187.645 450.922L193.533 447.446L194.793 442.176L199.24 439.155L198.729 434.886L202.027 433.27L207.853 429.539L213.564 431.969L214.334 434.36L217.181 433.212L222.483 435.501L223.013 439.965L221.853 442.507L225.251 448.606L227.46 450.287L227.133 451.947L230.789 453.554L232.352 455.98L230.242 457.957L225.866 457.644L224.822 458.485L226.097 461.464L227.429 467.145L222.773 467.667L221.102 469.592L220.754 473.973L218.597 473.136L213.701 473.552L212.279 471.521L210.246 473.035L208.206 471.78L203.934 471.606L197.882 469.509L192.404 468.822L188.2 469.018L185.229 471.387L182.635 471.726L182.533 467.832L180.859 463.737L184.111 461.918L184.144 458.344L182.639 454.903L182.403 450.86Z" fill="#F0F0F0" stroke="white"/>
<path d="M107.07 505.542L107.279 506.962L106.449 508.91L108.904 510.355L111.672 510.57L111.242 513.8L108.852 515.123L104.838 514.14L103.664 517.293L101.081 517.541L100.141 516.305L97.1002 518.943L94.485 519.313L92.1502 517.649L90.2893 514.224L87.6992 515.45L87.7785 511.895L91.7439 507.44L91.5699 505.409L94.042 506.146L95.5295 504.778L100.143 504.834L101.257 503.087L107.07 505.542Z" fill="#F0F0F0" stroke="white"/>
<path d="M238.9 594.411L242.564 591.588L237.633 593.569L233.725 593.478L232.942 595.074L232.559 595.109L229.982 595.353L231.249 597.997L233.905 598.848L239.465 596.179L239.295 595.649L238.9 594.411Z" fill="#F0F0F0" stroke="white"/>
<path d="M147.019 496.871L144.52 495.324L141.973 495.749L137.761 493.238L135.852 493.855L132.802 497.212L128.773 494.573L125.71 491.022L122.942 489.023L122.368 485.493L121.418 482.986L125.36 481.141L127.374 479.017L131.27 477.357L132.63 475.721L134.059 476.709L136.479 475.812L139.052 478.576L143.106 479.321L142.768 481.663L145.714 483.414L146.522 481.226L150.244 482.176L150.757 484.82L154.79 485.331L157.285 489.451L155.668 489.461L154.828 490.958L153.583 491.318L153.229 493.2L152.19 493.59L152.043 494.356L150.192 495.206L147.789 495.068L147.019 496.871Z" fill="#F0F0F0" stroke="white"/>
<path d="M108.844 440.894L108.941 444.521L114.423 446.691L114.365 449.973L119.878 448.24L122.928 445.699L129.052 449.358L131.611 452.285L132.88 456.914L131.368 459.32L133.337 462.51L134.679 467.247L134.256 470.271L136.478 475.811L134.058 476.708L132.629 475.72L131.269 477.356L127.373 479.016L125.36 481.14L121.417 482.986L122.367 485.492L122.942 489.023L125.71 491.021L128.772 494.572L126.859 498.346L124.911 499.379L125.679 504.641L125.174 506.003L123.483 504.36L120.882 504.115L117.005 505.554L112.221 505.211L111.45 507.322L108.705 505.101L107.068 505.542L101.255 503.087L100.141 504.834L95.5277 504.778L96.2164 499.023L98.9593 493.414L91.1445 491.893L88.5853 489.721L88.8909 486.055L87.8076 484.154L88.4228 478.413L87.5117 469.34L90.7711 469.337L92.1445 466.027L93.4967 457.854L92.4831 454.792L93.5431 452.861L98.0753 452.364L99.0812 454.376L102.764 449.863L101.524 446.395L101.275 441.085L105.374 442.327L108.844 440.894Z" fill="#F0F0F0" stroke="white"/>
<path d="M288.691 728.72L289.975 730.428L289.805 732.717L286.71 734.034L289.039 735.541L287.041 738.479L285.838 737.5L284.532 737.891L281.503 737.798L281.416 736.127L280.992 734.61L282.828 732.028L284.733 729.589L287.056 730.068L288.691 728.72Z" fill="#F0F0F0" stroke="white"/>
<path d="M123.86 434.936L120.604 442.618L114.929 437.277L114.172 433.304L122.128 430.1L123.86 434.936ZM114.217 426.713L112.892 430.39L111.277 429.336L107.371 436.275L108.845 440.896L105.375 442.329L101.276 441.087L99.0746 435.82L98.9102 425.916L99.8135 423.256L101.369 420.277L106.147 419.658L108.05 416.894L112.414 414.045L112.23 419.221L110.625 422.463L111.275 425.228L114.217 426.713Z" fill="#F0F0F0" stroke="white"/>
<path d="M186.898 413.4L187.527 407.357L185.532 408.657L182.091 404.982L181.619 398.96L188.478 396.004L195.311 394.453L201.195 396.217L206.793 395.902L207.609 397.759L203.75 403.817L205.358 413.416L203.035 416.625L198.562 416.608L193.895 412.851L191.517 411.601L186.898 413.4Z" fill="#F0F0F0" stroke="white"/>
<path d="M6.03195 548.52L6.30474 543.323L4.08984 540.127L11.7616 534.759L18.3984 536.108L25.6813 536.061L31.4535 537.332L35.9548 536.941L44.7213 537.189L46.884 540.071L56.8672 543.419L58.8384 541.831L64.9413 545.149L71.228 544.201L71.5182 548.437L66.3786 553.246L59.4284 554.763L58.9448 557.165L55.6119 561.098L53.5227 566.816L55.637 570.789L52.4994 573.868L51.3272 578.321L47.2322 579.679L43.3905 584.883L36.508 584.985L31.3374 584.858L27.9407 587.229L25.8689 589.755L23.215 589.202L21.2071 586.941L19.6693 583.07L14.607 582.022L14.1544 579.776L16.1642 577.219L16.909 575.356L15.0384 573.311L16.5356 568.766L14.3633 564.578L16.7058 563.999L16.9244 560.67L17.8045 559.633L17.8742 554.072L20.3811 552.126L18.8646 548.501L15.7038 548.246L14.7753 549.163L11.572 549.17L10.2141 545.609L7.9992 546.673L6.03195 548.52Z" fill="#F0F0F0" stroke="white"/>
<path d="M24.3253 444.913L21.418 451.272L17.3191 449.376L13.9648 449.502L15.0829 444.528L13.9648 439.491L18.5125 439.101L24.3253 444.913ZM38.7345 404.752L32.9371 415.834L38.4617 414.449L44.4041 414.501L42.9901 422.66L38.1136 431.433L43.7213 432.048L44.1526 433.061L48.9828 444.256L52.6949 445.753L56.0335 456.216L57.5791 459.777L64.1502 461.483L63.4906 467.157L60.7283 469.731L62.8948 474.233L58.0163 478.736L50.7605 478.657L41.5277 481.001L38.9976 479.324L35.4112 483.305L30.3935 482.343L26.5828 485.568L23.6986 483.885L31.6527 474.917L36.508 473.049L36.4654 473.041L27.9948 471.592L26.4609 468.112L32.1286 465.379L29.1574 460.584L30.1884 454.672L38.2489 455.494H38.2586L39.0575 450.188L35.4248 444.478L35.3435 444.347L28.757 442.698L27.4648 440.149L29.4359 435.903L27.6524 433.261L24.7316 437.783L24.4143 428.504L21.6752 423.5L23.6444 413.139L27.8575 404.8L32.1885 405.622L38.7345 404.752Z" fill="#F0F0F0" stroke="white"/>
<path d="M280.41 551.018L281.219 547.923L279.863 542.938L276.729 540.222L273.723 539.373L271.736 537.098L272.398 536.218L276.982 537.491L284.967 538.692L292.351 542.236L293.303 543.601L296.591 542.446L301.649 543.982L303.311 546.981L306.719 548.665L305.311 549.664L307.983 553.565L307.244 554.405L304.319 553.979L300.278 551.913L298.949 553.087L291.413 554.207L286.188 550.673L280.41 551.018Z" fill="#F0F0F0" stroke="white"/>
<path d="M183.573 591.367L186.539 593.603L190.759 593.226L194.794 593.696L194.665 594.847L197.621 594.054L196.942 596.002L189.131 596.563L189.185 595.474L182.567 594.186L183.573 591.367ZM199.325 550.827L197.646 555.324L196.357 556.125L193.053 555.924L190.224 555.247L183.654 557.102L187.415 561.09L184.66 562.239L181.639 562.247L178.77 558.603L177.753 560.158L178.963 564.367L181.677 567.65L179.633 569.174L182.654 572.366L185.339 574.364L185.42 578.233L182.794 576.016L180.403 576.42L182.002 579.9L180.229 580.268L178.294 578.925L180.615 586.57L179.488 586.597L178.625 584.154L177.517 584.105L177.014 586.655L176.135 586.077L176.333 584.647L175.248 582.626H174.015L174.244 584.256L173.76 584.773L172.569 583.728L171.828 581.753L172.832 580.653L172.141 579.221L171.352 578.482L170.534 578.3L169.584 576.476L170.711 575.472L171.402 574.536L172.487 574.733L172.973 573.94L174.114 573.625L175.435 574.517L176.505 574.844L177.252 573.641L175.437 573.478L174.364 573.103L171.946 573.644L169.588 573.737L167.473 570.563L167.123 570.072L167.446 568.83L164.694 566.596L164.326 564.603L166.849 561.189L167.174 558.887L168.936 557.856L169.044 555.984L172.592 555.351L174.66 553.784L177.6 553.923L178.492 552.672L179.525 552.432L183.536 552.639L187.879 550.658L191.701 553.175L196.63 552.496L196.69 548.9L199.325 550.827Z" fill="#F0F0F0" stroke="white"/>
<path d="M157.16 518.29L158.477 521.289L160.2 523.482L158.113 526.361L155.659 524.67L151.91 524.776L147.246 523.504L144.712 523.674L143.538 525.264L141.59 523.504L140.456 526.678L143.112 530.225L144.288 532.564L146.782 535.363L148.848 537.013L150.896 540.112L155.695 542.903L155.1 544.151L150.001 541.429L146.855 538.77L141.896 536.561L137.334 531.042L138.429 530.477L135.955 527.289L135.854 524.712L132.367 523.504L130.705 526.804L129.104 524.246L129.225 521.577L129.419 521.453L133.199 521.716L134.191 520.412L136.036 521.674L138.164 521.823L138.145 519.664L140.029 518.871L140.557 515.723L144.874 513.642L146.598 514.609L150.652 517.958L155.132 519.449L157.16 518.29Z" fill="#F0F0F0" stroke="white"/>
<path d="M142.91 510.895L144.711 505.774L143.659 504.035L146.713 504.02L147.125 500.724L149.886 502.792L151.886 503.67L156.437 502.683L156.874 501.06L159.029 500.82L161.67 499.561L162.258 500.081L164.803 499.068L166.076 497.149L167.854 496.65L173.663 499.128L174.82 498.296L177.829 500.507L178.209 502.674L174.895 504.36L172.33 509.773L169.049 515.113L164.701 516.587L161.316 516.241L157.161 518.29L155.133 519.448L150.653 517.957L146.599 514.609L144.875 513.641L143.821 510.982L142.91 510.895Z" fill="#F0F0F0" stroke="white"/>
<path d="M139.211 574.288L137.257 579.671L138.068 581.774L136.93 585.246L132.781 582.706L130.022 581.977L122.451 578.522L123.211 575.009L129.558 575.636L135.09 574.887L139.211 574.288ZM104.986 553.362L108.239 558.434L107.477 567.74L105.011 567.299L102.798 569.622L100.744 567.776L100.527 559.296L99.2891 555.224L102.272 555.582L104.986 553.362ZM122.159 511.566L129.916 513.599L129.328 517.45L130.626 520.752L126.308 519.624L121.898 522.365L122.198 526.168L121.534 528.337L123.312 532.184L128.398 535.958L131.125 542.084L137.16 547.978L141.41 547.934L142.731 549.537L141.209 550.978L146.066 553.58L150.049 555.747L154.699 559.459L155.262 560.78L154.249 563.306L151.239 560.01L146.526 558.844L144.244 563.413L148.163 566.012L147.519 569.647L145.254 570.059L142.356 575.972L140.097 576.499L140.118 574.402L141.224 570.701L142.402 569.22L140.284 565.177L138.63 561.631L136.379 560.751L134.777 557.689L131.291 556.393L128.945 553.516L124.931 553.05L120.693 549.795L115.731 545.059L112.044 540.827L110.352 533.47L107.653 532.596L103.241 530.107L100.744 531.128L97.6101 534.614L95.3565 535.163L95.9775 531.905L93.0372 530.95L91.6387 525.071L93.5189 522.735L91.923 519.837L92.1474 517.643L94.4822 519.307L97.0975 518.939L100.138 516.301L101.078 517.537L103.661 517.289L104.835 514.136L108.849 515.119L111.238 513.796L111.667 510.566L114.954 511.689L115.584 510.186L120.944 508.809L122.159 511.566Z" fill="#F0F0F0" stroke="white"/>
<path d="M247.823 612.946L248.767 610.929L254.81 613.465L265.431 606.617L267.617 614.434L266.584 615.395L255.721 618.579L261.127 624.878L259.334 625.94L258.44 628.031L254.303 628.891L253.005 631.13L250.66 633.033L244.625 632.05L244.443 631.153L247.146 621.16L247.018 618.703L247.821 616.842L247.823 612.946Z" fill="#F0F0F0" stroke="white"/>
<path d="M167.639 547.275L167.396 548.764L166.707 548.704L166.341 546.066L165.043 545.319L163.889 543.354L164.902 541.706L166.2 541.176L166.951 538.719L167.924 538.309L168.694 539.356L169.707 539.816L170.417 540.99L171.309 541.338L172.363 542.702L173.133 542.661L172.526 544.449L171.876 545.319L172.056 545.867L170.843 546.147L167.639 547.275Z" fill="#F0F0F0" stroke="white"/>
<path d="M315.233 628.204L316.364 630.947L315.879 632.361L317.626 637.012L313.79 637.17L312.439 634.238L307.607 633.642L311.586 627.684L315.233 628.204Z" fill="#F0F0F0" stroke="white"/>
<path d="M249.315 607.271L247.86 607.356L247.361 608.485L245.545 608.474L247.477 603.201L250.174 598.599L250.276 598.369L252.716 598.703L253.603 601.27L250.646 603.725L249.315 607.271Z" fill="#F0F0F0" stroke="white"/>
<path d="M498.624 757.065L497.808 762.717L495.535 764.259L490.817 765.499L488.235 761.189L487.273 753.378L489.73 744.522L493.477 747.557L496.003 751.397L498.624 757.065Z" fill="#F0F0F0" stroke="white"/>
<path d="M178.32 447.028L177.885 444.653L178.465 442.086L176.067 440.59L170.387 438.935L169.234 430.88L175.446 427.895L184.541 428.522L189.868 427.557L190.63 429.584L193.517 430.207L198.73 434.886L199.24 439.155L194.793 442.177L193.534 447.446L187.646 450.922L182.404 450.86L181.102 448.018L178.32 447.028Z" fill="#F0F0F0" stroke="white"/>
<path d="M87.8087 484.154L88.892 486.056L88.5864 489.721L87.0215 489.896L85.8066 489.174L86.3947 484.473L87.8087 484.154Z" fill="#F0F0F0" stroke="white"/>
<path d="M169.234 430.88L169.42 423.514L172.086 417.257L177.198 413.808L181.504 421.311L185.856 421.118L186.899 413.401L191.518 411.603L193.896 412.852L198.563 416.609L203.036 416.626L205.649 418.938L206.111 423.756L207.854 429.54L202.028 433.271L198.73 434.887L193.517 430.207L190.63 429.584L189.868 427.557L184.541 428.523L175.446 427.896L169.234 430.88Z" fill="#F0F0F0" stroke="white"/>
<path d="M199.408 499.935L200.702 498.737L204.306 497.931L208.304 500.463L210.535 500.766L212.986 502.941L212.597 505.662L214.572 506.97L215.355 510.291L217.249 512.299L216.866 513.473L217.878 514.268L216.44 514.849L213.245 514.619L212.711 513.533L211.577 514.16L211.96 515.561L210.475 518.048L209.529 520.708L208.163 521.545L207.192 518.013L207.763 514.678L207.591 511.226L204.461 506.502L202.741 503.121L201.06 500.726L199.408 499.935Z" fill="#F0F0F0" stroke="white"/>
<path d="M162.431 544.004L162.087 542.621L159.734 546.229L160.098 548.542L158.963 547.981L157.444 545.602L155.1 544.149L155.695 542.904L156.49 538.843L158.255 537.116L159.268 536.435L160.707 537.714L161.498 538.741L163.282 539.54L165.35 541.074L164.903 541.706L163.889 543.354L162.431 544.004Z" fill="#F0F0F0" stroke="white"/>
<path d="M166.706 548.704L167.395 548.764L167.639 547.275L170.842 546.147L172.055 545.867L173.902 545.441L176.417 545.319L179.133 547.658L179.518 552.442L178.485 552.682L177.591 553.933L174.653 553.794L172.585 555.361L169.037 555.993L166.787 554.25L166.016 551.167L166.706 548.704Z" fill="#F0F0F0" stroke="white"/>
<path d="M81.7744 457.703L81.4437 459.46L82.3799 459.765L82.79 460.554L82.9544 461.272L83.7088 461.541L83.7668 461.922L83.0937 462.435L82.3489 462.481V463.046L82.8654 463.945L82.1206 464.82L82.8731 465.061L84.4051 463.57L85.3317 462.201V461.272L85.0087 460.628L84.1227 460.185L84.3259 459.177L84.1227 458.291L84.9275 456.357L85.7244 455.349L87.976 454.535L92.4831 454.792L93.4967 457.854L92.1446 466.027L90.7712 469.336L87.5118 469.34L88.4229 478.413L85.442 476.409L82.0085 472.625L76.983 474.426L73.0117 473.745L74.3696 471.348L76.1434 469.01L78.6175 466.594L80.0818 462.547L80.5558 458.326L81.7744 457.703Z" fill="#F0F0F0" stroke="white"/>
<path d="M374.276 681.263L372.251 685.213L369.792 684.911L368.664 686.28L367.794 689.19L368.461 693.01L367.949 693.71L365.453 693.691L362.066 695.819L361.538 698.585L360.296 699.78L356.923 699.736L354.799 701.161L354.826 703.444L352.203 705.011L349.21 704.479L345.583 706.378L343.076 706.698L341.307 702.759L337.066 693.395L353.336 687.675L356.952 676.123L354.466 671.993L354.607 669.635L356.188 667.205L356.203 664.797L358.658 663.635L357.698 662.813L358.141 658.95L360.913 658.926L363.345 662.979L366.372 665.122L370.351 665.892L373.562 666.966L376.011 670.331L377.473 672.275L379.416 673.014L379.404 674.316L377.429 677.783L376.562 679.409L374.276 681.263ZM360.881 653.127L360.174 654.214L359.141 652.17L360.722 650.121L361.393 650.645L360.881 653.127Z" fill="#F0F0F0" stroke="white"/>
<path d="M136.48 475.811L134.257 470.271L134.681 467.248L133.338 462.51L131.369 459.321L132.882 456.914L131.613 452.285L135.319 449.587L143.784 445.3L150.614 442.132L156.027 443.718L156.435 445.995L161.665 446.111L168.347 447.167L178.32 447.028L181.102 448.018L182.404 450.86L182.64 454.903L184.145 458.344L184.112 461.919L180.86 463.737L182.533 467.832L182.636 471.726L185.363 479.252L184.783 481.641L182.092 482.63L177.167 489.611L178.566 493.335L177.38 492.855L172.227 489.667L168.323 490.843L165.762 489.99L162.557 491.768L159.822 488.822L157.591 489.953L157.286 489.45L154.79 485.33L150.757 484.82L150.245 482.175L146.523 481.226L145.714 483.413L142.768 481.663L143.107 479.32L139.052 478.575L136.48 475.811Z" fill="#F0F0F0" stroke="white"/>
<path d="M247.823 612.947L247.821 616.843L247.018 618.704L244.469 619.561L244.703 617.895L246.088 617.023L244.726 616.309L245.86 612.061L247.823 612.947Z" fill="#F0F0F0" stroke="white"/>
<path d="M6.03078 548.521L7.99803 546.673L10.2129 545.609L11.5708 549.171L14.7742 549.163L15.7026 548.246L18.8634 548.501L20.3799 552.126L17.873 554.072L17.8034 559.634L16.9232 560.67L16.7047 563.999L14.3621 564.578L16.5345 568.766L15.0372 573.311L16.9078 575.356L16.163 577.219L14.1532 579.776L14.6059 582.022L12.4258 583.776L9.56681 582.827L6.7678 583.571L7.59572 578.262L7.08698 574.049L4.65934 573.414L3.36328 570.797L3.79469 566.241L5.95728 563.698L6.34223 560.848L7.47382 556.579L7.35198 553.546L6.26874 550.962L6.03078 548.521Z" fill="#F0F0F0" stroke="white"/>
<path d="M330.612 659.938L330.252 655.603L331.714 652.462L333.196 651.816L334.836 653.696L334.931 657.195L333.755 660.695L332.25 661.116L330.612 659.938Z" fill="#F0F0F0" stroke="white"/>
<path d="M129.912 513.599L134.392 514.206L137.129 512.423L141.872 512.227L142.907 510.895L143.818 510.982L144.873 513.641L140.555 515.723L140.027 518.87L138.143 519.663L138.162 521.822L136.035 521.673L134.189 520.412L133.197 521.715L129.417 521.452L130.624 520.752L129.326 517.45L129.912 513.599Z" fill="#F0F0F0" stroke="white"/>
<path d="M189.13 103.471L177.015 113.838L167.446 107.994L171.189 101.371L167.912 92.9697L179.153 87.5883L181.305 97.5986L189.13 103.471ZM154.025 51.8701L171.879 73.713L158.23 84.6616L155.217 104.172L150.458 108.988L147.876 129.309L141.339 130.233L129.675 115.447L134.594 106.504L126.464 99.0339L115.897 76.1639L111.678 53.3653L126.464 42.3665L129.435 53.1235L137.159 52.7038L139.219 42.1905L147.183 41.1014L154.025 51.8701ZM193.053 29.706L203.682 40.9235L195.639 57.3985L179.909 60.892L163.913 55.9361L162.948 47.5758L155.166 47.0361L149.232 32.5708L165.979 23.4348L173.854 31.3174L179.338 21.4695L193.053 29.706Z" fill="#F0F0F0" stroke="white"/>
<path d="M157.285 489.45L157.591 489.953L159.821 488.822L162.556 491.768L165.761 489.99L168.323 490.843L172.226 489.667L177.379 492.855L175.876 494.998L174.818 498.296L173.661 499.128L167.853 496.65L166.075 497.149L164.802 499.068L162.256 500.082L161.668 499.561L159.028 500.821L156.873 501.061L156.436 502.683L151.884 503.67L149.884 502.792L147.124 500.724L146.584 497.906L147.019 496.871L147.789 495.068L150.192 495.205L152.043 494.356L152.19 493.59L153.229 493.199L153.583 491.317L154.828 490.957L155.668 489.46L157.285 489.45Z" fill="#F0F0F0" stroke="white"/>
<path d="M227.429 467.145L229.455 467.5L230.826 465.495L232.472 465.937L238.097 465.083L241.562 470.063L240.208 471.83L240.657 474.522L244.982 474.94L246.911 478.668L246.792 480.347L253.681 483.329L257.844 481.989L261.19 485.941L264.361 485.852L272.355 488.575L272.419 491.019L270.216 495.338L271.413 499.839L270.56 502.538L265.312 503.13L262.517 505.372L262.345 508.915L258.016 509.55L254.406 512.107L249.329 512.523L244.657 515.45L242.096 517.442L244.974 520.286L247.628 522.148L253.16 521.684L252.1 524.427L246.164 525.752L238.8 530.147L235.784 528.607L236.979 525.027L231.054 522.783L232.012 521.307L238.13 518.142L237.37 516.564L236.496 517.359L235.633 516.953L227.203 514.978L226.83 512.049L221.804 513.018L219.791 517.328L215.591 523.046L213.131 521.725L210.583 522.963L208.163 521.545L209.529 520.707L210.475 518.048L211.96 515.56L211.577 514.159L212.711 513.533L213.245 514.618L216.44 514.848L217.878 514.268L216.866 513.473L217.249 512.299L215.355 510.291L214.572 506.969L212.597 505.662L212.985 502.94L210.535 500.766L208.304 500.462L204.306 497.93L200.702 498.737L199.408 499.934L197.12 499.932L195.754 501.826L191.752 502.602L189.901 503.838L187.382 501.868L183.904 501.839L180.55 500.942L178.207 502.673L177.828 500.507L174.818 498.296L175.876 494.998L177.38 492.854L178.565 493.334L177.167 489.61L182.092 482.629L184.782 481.641L185.363 479.252L182.635 471.725L185.229 471.387L188.2 469.017L192.404 468.822L197.882 469.508L203.935 471.605L208.206 471.779L210.246 473.035L212.279 471.52L213.701 473.551L218.597 473.135L220.754 473.973L221.102 469.592L222.773 467.667L227.429 467.145Z" fill="#F0F0F0" stroke="white"/>
<path d="M641.064 678.725L633.822 683.671L629.303 689.099L628.111 693.066L632.259 699.059L637.331 706.439L642.252 709.909L645.548 714.404L648.033 724.701L647.3 734.413L642.778 738.033L636.566 741.563L632.143 746.124L625.38 751.204L623.409 747.706L624.933 744.006L620.91 740.896L625.604 738.687L631.297 738.288L628.916 734.959L638.033 730.721L638.7 724.094L637.443 720.391L638.429 714.82L637.064 710.868L632.961 706.963L629.541 701.995L625.034 695.293L618.534 691.884L620.091 689.828L623.558 688.327L621.455 683.313L614.778 683.269L612.342 678.013L609.174 673.417L612.085 671.993L616.41 672.022L621.681 671.347L626.305 668.223L628.92 670.424L633.878 671.492L633.021 674.856L635.603 677.22L641.064 678.725Z" fill="#F0F0F0" stroke="white"/>
<path d="M347.486 581.337L352.252 580.023L356.109 576.122L359.736 576.321L362.118 575.042L365.975 575.675L371.973 579.139L376.304 579.882L382.502 585.869L386.545 586.111L387.021 591.732L384.81 599.947L383.32 604.688L385.682 605.646L383.361 609.18L385.137 614.295L385.562 618.328L389.671 619.396L390.116 623.45L385.197 629.118L387.88 632.379L390.064 636.105L395.25 638.805L395.399 644.177L397.994 645.159L398.441 647.949L390.619 651.061L388.576 658.015L378.372 656.214L372.459 654.841L366.338 654.063L364.023 646.682L361.427 645.606L357.26 646.69L351.79 649.612L345.161 647.61L339.687 642.948L334.466 641.213L330.843 635.397L326.84 627.131L323.921 628.143L320.474 626.075L318.449 628.51L315.449 625.228L315.395 621.883L313.663 621.885L314.551 617.308L311.76 612.467L305.115 608.948L301.359 602.795L302.616 597.692L305.346 595.419L304.936 591.55L301.378 589.55L297.865 581.528L294.898 576.071L295.96 573.944L294.268 565.989L297.982 563.993L298.84 566.634L301.581 569.847L305.301 570.769L307.265 570.564L313.662 565.427L315.695 564.91L317.298 566.962L315.428 570.404L318.811 574.019L320.159 573.675L321.875 578.727L327.018 580.145L330.787 583.542L338.497 584.706L346.968 582.919L347.486 581.337Z" fill="#F0F0F0" stroke="white"/>
<path d="M462.667 581.784L466.675 584.931L468.281 590.079L477.2 592.77L471.962 598.313L465.917 599.288L457.688 597.687L455.03 600.513L456.951 606.211L458.835 610.572L463.214 613.732L458.587 617.413L458.672 621.917L453.405 628.201L450.007 634.49L444.333 640.924L438.035 640.459L432.057 646.833L435.607 649.545L436.224 654.17L439.273 657.2L440.348 662.3L428.413 662.285L424.802 666.225L420.826 664.734L419.209 660.48L415.02 655.946L405.027 657.068L396.214 657.178L388.577 658.016L390.619 651.062L398.442 647.949L397.995 645.16L395.399 644.177L395.25 638.806L390.064 636.105L387.88 632.38L385.197 629.118L394.285 632.285L399.709 631.358L402.951 632.148L404.05 630.79L407.828 631.335L414.874 628.753L415.066 623.433L418.087 619.868L422.126 619.878L422.72 618.11L426.866 617.282L428.872 617.874L430.99 616.086L430.692 612.256L432.996 608.38L436.447 606.747L434.315 602.455L439.474 602.658L440.965 600.31L440.739 597.791L443.441 595.025L442.82 591.729L441.54 588.905L444.704 585.988L450.529 584.574L456.754 583.79L459.51 582.542L462.667 581.784Z" fill="#F0F0F0" stroke="white"/>
<path d="M387.021 591.733L392.551 594.247L396.642 593.365L397.774 590.354L402.055 589.35L405.111 587.315L406.194 581.927L410.765 580.616L411.616 578.194L414.175 580.014L415.81 580.225L418.83 580.27L422.921 581.703L424.578 582.529L428.503 580.351L430.333 581.661L432.082 578.548L435.324 578.691L436.158 577.689L436.732 574.927L439.067 572.532L442.003 574.099L441.413 576.196L443.054 576.523L442.549 582.241L444.694 584.452L446.586 583.034L448.992 582.363L452.372 579.324L456.107 579.825L461.701 579.836L462.666 581.784L459.509 582.543L456.753 583.79L450.528 584.574L444.704 585.988L441.539 588.905L442.82 591.729L443.441 595.025L440.738 597.791L440.965 600.31L439.473 602.658L434.314 602.455L436.446 606.747L432.995 608.38L430.691 612.256L430.989 616.087L428.871 617.874L426.865 617.282L422.72 618.11L422.126 619.878L418.087 619.868L415.065 623.433L414.874 628.753L407.827 631.335L404.049 630.79L402.95 632.148L399.708 631.358L394.284 632.285L385.197 629.118L390.116 623.451L389.671 619.396L385.562 618.328L385.137 614.295L383.361 609.181L385.682 605.647L383.32 604.689L384.81 599.948L387.021 591.733Z" fill="#F0F0F0" stroke="white"/>
<path d="M166.708 548.703L166.019 551.166L166.789 554.249L169.039 555.992L168.93 557.864L167.168 558.893L166.841 561.195L164.319 564.61L163.398 564.118L163.29 562.571L160.286 560.201L159.814 556.816L160.272 551.926L161.013 549.684L160.098 548.541L159.734 546.227L162.087 542.62L162.431 544.003L163.889 543.353L165.044 545.318L166.342 546.065L166.708 548.703Z" fill="#F0F0F0" stroke="white"/>
<path d="M439.91 545.714L441.124 542.503L444.693 541.465L453.618 543.997L454.46 539.65L457.539 538.114L465.263 541.227L467.235 540.412L476.227 540.615L484.274 541.387L486.996 544.028L490.337 545.101L489.575 546.751L481.029 550.682L479.096 553.541L472.138 554.392L470.086 558.945L464.347 557.994L460.598 559.383L455.419 562.721L456.168 564.366L454.624 565.969L444.368 567.027L437.67 564.756L431.787 565.3L432.302 561.245L438.205 562.425L440.19 560.247L444.316 560.944L451.262 555.827L444.835 552.048L440.972 553.841L436.967 551.131L441.521 546.432L439.91 545.714Z" fill="#F0F0F0" stroke="white"/>
<path d="M616.369 740.095L614.164 737.236L611.421 731.551L610.137 724.877L613.611 720.264L620.623 719.2L625.707 719.999L630.183 722.177L632.637 718.343L637.442 720.391L638.7 724.094L638.032 730.721L628.916 734.959L631.297 738.288L625.604 738.687L620.909 740.896L616.369 740.095Z" fill="#F0F0F0" stroke="white"/>
<path d="M440.191 560.247L438.206 562.425L432.303 561.245L431.788 565.3L437.671 564.756L444.369 567.027L454.625 565.969L456.001 572.397L457.782 571.702L461.077 573.273L460.887 575.944L461.701 579.836L456.107 579.825L452.372 579.324L448.992 582.363L446.586 583.034L444.694 584.452L442.549 582.241L443.054 576.523L441.414 576.196L442.004 574.099L439.067 572.532L436.732 574.927L436.158 577.689L435.324 578.691L432.082 578.548L430.334 581.661L428.504 580.351L424.579 582.529L422.921 581.703L425.97 574.799L424.797 569.658L420.818 568L422.225 564.922L426.753 565.251L429.33 561.365L431.055 556.814L438.307 555.154L437.177 558.46L437.953 560.431L440.191 560.247Z" fill="#F0F0F0" stroke="white"/>
<path d="M415.81 580.226L415.959 576.049L408.744 573.109L403.073 569.722L399.535 566.443L393.333 561.594L390.666 554.26L388.845 552.957L382.982 553.287L380.907 551.815L380.326 546.028L373.018 542.155L368.449 546.413L363.816 548.918L364.706 552.554L358.588 552.653L358.373 525.326L372.335 520.786L373.349 521.455L381.756 526.943L386.193 529.814L391.374 536.58L397.734 535.495L407.036 534.911L413.528 540.341L413.124 547.693L415.766 547.744L416.87 553.661L423.766 553.893L425.254 557.28L427.273 557.234L429.647 552.109L436.8 547.063L439.911 545.714L441.522 546.432L436.969 551.131L440.973 553.841L444.836 552.048L451.264 555.827L444.317 560.944L440.191 560.247L437.953 560.431L437.177 558.46L438.307 555.154L431.055 556.814L429.33 561.365L426.753 565.252L422.225 564.923L420.819 568L424.798 569.658L425.97 574.8L422.921 581.703L418.83 580.27L415.81 580.226Z" fill="#F0F0F0" stroke="white"/>
<path d="M207.793 241.04L224.758 253.111L217.773 257.416L223.715 267.311L214.486 273.478L210.105 274.878L212.403 264.061L205.443 257.77L197.021 263.138L194.361 274.462L189.19 281.114L183.366 277.497L176.284 278.24L170.257 270.207L167.005 274.245L163.641 274.87L162.844 284.703L152.623 282.335L151.188 290.492L145.98 290.444L142.4 300.586L136.974 315.804L128.552 334.18L130.527 338.498L128.639 343.438L123.259 343.227L119.737 354.652L120.069 370.212L123.536 375.972L121.741 388.985L117.228 396.359L114.837 402.442L111.198 395.96L100.49 408.081L93.2591 410.489L85.7595 405.237L83.8212 393.894L82.1055 368.252L87.1 360.756L101.42 350.729L112.129 337.989L122.058 319.997L135.09 293.376L144.174 282.401L159.078 263.264L170.98 256.316L179.903 257.167L188.163 243.636L198.054 244.373L207.793 241.04Z" fill="#F0F0F0" stroke="white"/>
<path d="M532.97 641.148L532.55 643.771L533.264 647.622L532.643 650.011L528.127 650.112L521.602 648.705L517.41 648.133L514.282 645.051L506.848 644.266L499.774 640.848L494.66 637.846L489.406 635.521L491.511 629.735L494.954 626.909L497.202 625.414L501.55 627.334L507.026 631.385L510.073 632.275L511.895 635.24L516.108 636.455L520.511 639.148L526.647 640.55L532.97 641.148Z" fill="#F0F0F0" stroke="white"/>
<path d="M210.106 274.878L209.314 285.332L217.621 294.984L212.616 305.581L218.924 320.972L215.272 332.12L220.155 341.512L217.938 349.53L225.967 357.762L223.927 363.769L218.888 370.446L207.276 384.772L197.434 385.644L187.895 389.645L179.07 391.925L175.931 385.996L170.679 382.381L171.886 371.301L169.252 360.84L171.838 353.917L176.755 346.291L189.164 332.712L192.783 330.031L192.22 324.543L184.676 318.305L182.846 313.082L182.703 291.572L174.237 281.604L167.008 274.25L170.259 270.211L176.287 278.244L183.369 277.501L189.191 281.117L194.364 274.464L197.023 263.139L205.444 257.771L212.404 264.061L210.106 274.878Z" fill="#F0F0F0" stroke="white"/>
<path d="M343.075 706.701L339.154 708.211L338.103 710.703L337.974 712.612L332.575 714.972L323.909 717.576L319.052 721.5L316.665 721.806L315.038 721.477L311.867 723.781L308.411 724.847L303.857 725.135L302.488 725.451L301.302 726.911L299.88 727.315L299.041 728.721L296.356 728.6L294.622 729.348L290.87 729.068L289.458 725.837L289.613 722.808L288.727 721.17L287.667 717.053L286.107 714.759L287.193 714.488L286.636 711.933L287.293 710.852L287.053 708.405L289.435 706.612L288.879 704.236L290.315 701.46L292.543 702.93L294.013 702.42L300.273 702.29L301.267 702.855L306.509 703.42L308.589 703.138L309.945 705.018L312.477 704.078L316.363 698.137L321.425 695.582L337.065 693.398L341.305 702.762L343.075 706.701Z" fill="#F0F0F0" stroke="white"/>
<path d="M477.199 592.77L483.029 600.486L482.48 605.792L484.637 609.096L484.459 612.372L480.567 611.512L482.087 618.533L487.417 622.528L494.955 626.909L491.511 629.735L489.407 635.521L494.661 637.846L499.775 640.848L506.849 644.266L514.283 645.052L517.411 648.133L521.603 648.706L528.127 650.112L532.644 650.011L533.265 647.623L532.551 643.771L532.971 641.148L536.279 639.862L536.733 644.661L536.849 645.878L541.78 648.174L545.188 647.228L549.769 647.634L554.193 647.454L554.574 643.731L552.365 641.787L556.74 641.024L561.677 636.467L567.929 632.54L572.479 634.059L576.345 631.455L578.887 635.295L577.055 637.877L582.905 638.792L583.313 641.111L581.411 642.229L581.858 645.969L577.982 644.872L570.96 649.054L571.125 652.495L568.132 657.513L567.855 660.411L565.437 665.289L561.199 663.943L560.988 670.032L559.764 672.027L560.336 674.504L557.661 675.886L554.804 666.603L553.307 666.622L552.421 670.375L549.452 667.334L551.125 663.98L553.553 663.637L556.052 658.619L552.926 657.602L547.895 657.691L542.734 656.873L542.256 652.714L539.666 652.418L535.37 649.82L533.455 653.896L537.37 657.058L533.979 659.277L532.776 661.442L536.112 663.026L535.192 666.583L537.07 670.996L537.915 675.802L537.138 677.923L533.447 677.851L526.762 679.054L527.073 683.403L524.177 686.807L516.372 690.664L510.302 697.369L506.224 700.943L500.82 704.642L500.812 707.23L498.11 708.615L493.223 710.625L490.689 710.923L489.065 715.188L490.192 722.429L490.481 727.025L488.183 732.271L488.157 741.604L485.35 741.869L482.882 746.041L484.532 747.842L479.586 749.388L477.76 753.094L475.584 754.659L470.45 749.574L467.939 741.919L465.858 736.387L463.956 733.783L461.076 728.487L459.73 721.558L458.792 718.084L453.859 710.408L451.613 699.487L449.99 692.21L450.01 685.267L448.957 679.863L441.065 683.321L437.243 682.631L430.157 675.607L432.765 673.501L431.163 671.206L424.801 666.225L428.412 662.285L440.347 662.3L439.272 657.2L436.223 654.17L435.606 649.545L432.057 646.833L438.034 640.46L444.332 640.924L450.006 634.49L453.404 628.201L458.672 621.917L458.587 617.413L463.214 613.732L458.834 610.572L456.95 606.211L455.029 600.513L457.687 597.687L465.916 599.288L471.961 598.313L477.199 592.77Z" fill="#F0F0F0" stroke="white"/>
<path d="M301.378 589.55L304.935 591.55L305.345 595.419L302.616 597.692L301.359 602.795L305.115 608.948L311.76 612.467L314.551 617.308L313.663 621.885L315.395 621.883L315.449 625.228L318.449 628.51L315.232 628.205L311.586 627.684L307.607 633.642L297.523 633.149L282.23 620.593L274.148 616.159L267.616 614.434L265.43 606.617L277.436 599.849L279.487 591.877L278.974 587.001L281.943 585.343L284.723 581.126L287.052 580.072L293.36 580.948L295.265 582.674L297.865 581.53L301.378 589.55Z" fill="#F0F0F0" stroke="white"/>
<path d="M611.421 731.55L606.553 729.018L601.914 729.121L602.709 724.774L597.931 724.807L597.502 730.887L594.575 738.922L592.813 743.762L593.184 747.716L596.716 747.888L598.918 752.863L599.893 757.572L602.918 760.682L606.204 761.313L609.015 764.127L607.243 766.352L603.661 767L603.235 764.218L598.809 761.843L597.867 762.81L595.724 760.728L594.795 758.04L591.915 754.972L589.286 752.389L588.395 755.587L587.367 752.565L587.959 749.165L589.557 743.926L592.184 738.296L595.163 733.169L593.043 728.138L593.128 725.569L592.507 722.474L588.89 718.056L587.596 715.259L589.468 714.228L591.453 709.357L589.232 705.649L585.791 701.529L583.168 696.554L585.458 695.521L587.93 689.35L591.76 689.093L594.923 686.605L598.032 685.276L600.378 687.05L600.689 690.493L604.353 690.756L603.02 696.761L603.148 701.84L608.864 698.463L610.489 699.463L613.665 699.299L614.758 697.326L618.859 697.714L622.985 702.314L623.324 707.876L627.715 712.764L627.473 717.489L625.707 719.998L620.623 719.199L613.611 720.263L610.137 724.877L611.421 731.55Z" fill="#F0F0F0" stroke="white"/>
<path d="M387.021 591.732L386.545 586.111L382.502 585.869L376.304 579.882L371.973 579.139L365.975 575.675L362.118 575.043L359.736 576.321L356.109 576.122L352.252 580.023L347.486 581.337L346.478 576.518L347.266 569.307L343.037 566.949L344.428 562.146L340.828 561.736L342.027 555.751L347.144 557.502L351.908 555.217L347.958 550.905L346.403 546.756L342.037 548.611L341.484 553.898L339.789 549.226L342.186 546.808L348.343 545.29L352.009 547.333L355.804 553.004L358.587 552.652L364.706 552.553L363.816 548.917L368.449 546.412L373.018 542.154L380.326 546.027L380.906 551.815L382.982 553.287L388.845 552.956L390.665 554.26L393.333 561.593L399.534 566.442L403.072 569.721L408.744 573.108L415.959 576.048L415.81 580.225L414.175 580.014L411.616 578.194L410.765 580.615L406.194 581.927L405.111 587.314L402.055 589.349L397.774 590.353L396.642 593.365L392.551 594.247L387.021 591.732Z" fill="#F0F0F0" stroke="white"/>
<path d="M625.706 719.999L627.472 717.49L627.714 712.764L623.323 707.876L622.985 702.315L618.859 697.715L614.758 697.326L613.665 699.299L610.489 699.463L608.864 698.463L603.148 701.841L603.02 696.761L604.353 690.757L600.689 690.494L600.378 687.05L598.031 685.277L599.186 683.157L603.802 679.396L604.289 680.756L607.181 680.913L606.363 674.272L609.173 673.417L612.342 678.013L614.777 683.269L621.455 683.313L623.557 688.327L620.091 689.828L618.534 691.884L625.033 695.293L629.54 701.995L632.96 706.963L637.063 710.868L638.429 714.82L637.442 720.391L632.637 718.343L630.183 722.177L625.706 719.999Z" fill="#F0F0F0" stroke="white"/>
<path d="M594.924 686.606L591.761 689.093L587.931 689.351L585.459 695.521L583.169 696.554L585.792 701.529L589.233 705.65L591.454 709.358L589.469 714.229L587.597 715.26L588.891 718.057L592.508 722.475L593.129 725.57L593.044 728.139L595.164 733.17L592.185 738.296L589.558 743.927L589.036 739.861L590.701 735.656L588.877 732.398L589.318 726.382L587.117 723.512L585.349 716.857L584.368 709.793L582.024 705.135L578.451 707.957L572.286 711.958L569.245 711.459L565.885 710.143L567.754 703.172L566.622 697.872L562.371 691.304L563.034 689.244L559.86 688.509L556.012 683.82L555.658 679.172L557.55 680.048L557.662 675.886L560.337 674.504L559.765 672.026L560.989 670.032L561.2 663.943L565.438 665.289L567.856 660.411L568.133 657.513L571.126 652.495L570.961 649.054L577.983 644.872L581.859 645.969L581.412 642.229L583.314 641.111L582.906 638.792L586.078 638.337L587.891 641.935L590.256 643.388L590.417 648.027L590.198 652.992L585.063 657.983L584.411 665.014L590.137 664.034L591.431 669.452L594.864 670.587L593.286 675.437L597.313 677.619L599.661 678.688L603.638 676.998L603.803 679.396L599.187 683.157L598.033 685.277L594.924 686.606Z" fill="#F0F0F0" stroke="white"/>
<path d="M557.661 675.885L557.549 680.048L555.657 679.172L556.011 683.82L554.46 680.81L554.148 677.86L553.115 675.061L550.85 671.665L545.854 671.431L546.347 673.839L544.645 677.077L542.337 675.899L541.55 676.955L540.014 676.323L537.915 675.802L537.07 670.995L535.191 666.583L536.112 663.026L532.775 661.442L533.979 659.277L537.37 657.058L533.454 653.896L535.369 649.82L539.666 652.418L542.256 652.714L542.734 656.873L547.894 657.691L552.926 657.602L556.052 658.619L553.552 663.637L551.125 663.979L549.452 667.334L552.421 670.374L553.307 666.622L554.804 666.602L557.661 675.885Z" fill="#F0F0F0" stroke="white"/>
<path d="M73.0126 473.745L76.9839 474.426L82.0093 472.625L85.4428 476.409L88.4237 478.413L87.8086 484.154L86.3946 484.473L85.8065 489.174L81.0615 485.357L78.2798 486.011L74.4923 482.032L71.9719 478.612L69.4514 478.473L68.666 475.451L73.0126 473.745Z" fill="#F0F0F0" stroke="white"/>
<path d="M287.054 708.404L286.35 706.005L284.713 704.307L284.296 702.055L281.495 700.028L278.605 695.268L277.075 690.619L273.324 686.675L270.904 685.731L267.312 680.234L266.685 676.202L266.915 672.748L263.805 666.244L261.261 663.942L258.332 662.72L256.549 659.321L256.845 657.977L255.338 654.882L253.754 653.545L251.636 649.073L248.334 644.192L245.568 640.006L242.867 640.036L243.711 636.672L243.95 634.517L244.624 632.05L250.659 633.033L253.003 631.13L254.301 628.892L258.439 628.031L259.333 625.94L261.126 624.878L255.719 618.579L266.583 615.395L267.616 614.434L274.148 616.16L282.23 620.593L297.523 633.149L307.607 633.642L312.439 634.238L313.789 637.171L317.625 637.012L319.749 642.287L322.416 643.678L323.347 645.81L327.043 648.351L327.372 650.839L326.832 652.839L327.517 654.853L329.076 656.526L329.8 658.482L330.61 659.938L332.249 661.116L333.754 660.695L334.783 662.958L334.99 664.324L337.069 670.281L353.372 673.229L354.465 671.995L356.951 676.125L353.335 687.677L337.065 693.397L321.426 695.581L316.364 698.136L312.478 704.077L309.945 705.017L308.589 703.137L306.51 703.419L301.268 702.854L300.274 702.289L294.014 702.419L292.544 702.93L290.315 701.46L288.88 704.235L289.435 706.611L287.054 708.404Z" fill="#F0F0F0" stroke="white"/>
<path d="M21.4165 451.271L22.3102 457.771L18.2113 465.746L8.59743 470.934L0.919922 469.613L5.31677 460.366L2.48487 451.145L9.86256 443.886L13.9615 439.491L15.0815 444.528L13.9615 449.501L17.3176 449.375L21.4165 451.271Z" fill="#F0F0F0" stroke="white"/>
<path d="M248.765 610.929L247.821 612.947L245.858 612.061L244.724 616.309L246.086 617.023L244.701 617.895L244.467 619.561L247.017 618.704L247.144 621.16L244.442 631.153L240.877 620.408L242.455 618.325L242.086 617.965L243.519 614.995L244.62 610.171L245.396 608.54L245.545 608.475L247.361 608.486L247.86 607.357L249.315 607.271L249.398 609.908L248.663 610.885L248.765 610.929Z" fill="#F0F0F0" stroke="white"/>
<path d="M934.317 758.914L935.834 760.798L932.044 760.763L929.984 757.392L933.224 758.717L934.317 758.914ZM927.446 755.575L925.332 755.697L922.007 755.144L920.872 754.3L921.212 752.132L924.793 752.991L926.559 754.138L927.446 755.575ZM931.936 754.084L931.118 755.092L927.098 750.358L925.97 747.103H927.814L929.766 751.463L931.936 754.084ZM922.146 747.196L922.376 748.29L918.127 745.981L915.157 744.027L913.122 742.216L913.931 741.663L916.424 742.967L920.874 745.468L922.146 747.196ZM909.474 741.814L908.393 742.124L906.021 740.886L903.793 738.655L904.073 737.752L907.314 740.044L909.474 741.814Z" fill="#F0F0F0" stroke="white"/>
<path d="M265.429 606.617L254.808 613.464L248.765 610.928L248.662 610.884L249.397 609.907L249.314 607.27L250.645 603.725L253.602 601.27L252.715 598.703L250.275 598.368L249.768 593.324L251.096 590.592L252.548 589.13L254.001 587.666L254.295 583.915L256.071 585.226L262.042 583.35L264.928 584.621L269.389 584.6L275.631 582.066L278.554 582.18L284.723 581.125L281.943 585.342L278.974 587L279.486 591.877L277.436 599.848L265.429 606.617Z" fill="#F0F0F0" stroke="white"/>
<path d="M255.239 552.461L263.019 555.237L269.337 554.132L274.006 554.771L280.411 551.018L286.189 550.676L291.414 554.21L292.334 556.726L291.812 560.185L295.845 561.941L297.981 563.998L294.267 565.994L295.959 573.948L294.898 576.076L297.865 581.535L295.265 582.678L293.36 580.952L287.052 580.076L284.723 581.13L278.554 582.183L275.631 582.068L269.389 584.603L264.926 584.624L262.04 583.355L256.069 585.229L254.295 583.92L254.001 587.668L252.548 589.133L251.096 590.593L249.101 587.564L251.155 585.042L247.848 585.614L243.312 584.065L239.582 587.932L231.351 588.684L226.96 585.084L221.115 584.858L219.865 587.643L216.116 588.438L210.872 584.866L204.951 584.987L201.738 578.248L197.777 574.449L200.415 569.075L196.978 565.742L202.993 559.003L211.346 558.719L213.625 553.291L223.962 554.241L230.483 549.567L236.802 547.515L245.776 547.36L255.239 552.461ZM202.518 557.078L197.991 560.901L196.285 557.597L196.361 556.125L197.649 555.324L199.328 550.826L196.686 548.911L202.21 546.623L206.88 547.6L207.524 550.387L212.257 552.716L211.271 554.475L204.829 554.869L202.518 557.078Z" fill="#F0F0F0" stroke="white"/>
<path d="M106.883 546.544L105.092 552.14L102.629 550.672L101.374 545.786L102.469 543.064L105.962 540.25L106.883 546.544ZM74.4917 482.033L78.2773 486.012L81.0609 485.358L85.8058 489.175L87.0187 489.898L88.5836 489.722L91.1428 491.894L98.9577 493.417L96.2167 499.024L95.528 504.779L94.0386 506.147L91.5665 505.41L91.7405 507.441L87.7731 511.896L87.6938 515.451L90.2839 514.225L92.1467 517.65L91.9224 519.844L93.5182 522.742L91.638 525.078L93.0365 530.957L95.9768 531.913L95.3559 535.17L90.4425 539.374L79.7455 537.364L71.8475 539.77L71.2265 544.204L64.9398 545.151L58.8369 541.832L56.8638 543.42L46.8805 540.074L44.7178 537.19L47.5227 532.704L48.5557 517.467L42.9576 509.219L38.9573 505.183L30.6685 502.09L30.1211 496.16L37.1544 494.374L46.2615 496.485L44.5418 487.113L49.6621 490.689L62.2897 484.163L63.9184 477.189L68.6615 475.452L69.4469 478.474L71.9674 478.615L74.4917 482.033Z" fill="#F0F0F0" stroke="white"/>
<path d="M178.207 502.674L180.549 500.942L183.904 501.84L187.382 501.869L189.9 503.838L191.751 502.602L195.754 501.826L197.119 499.933L199.408 499.935L201.06 500.726L202.74 503.12L204.46 506.502L207.59 511.226L207.762 514.678L207.192 518.013L208.163 521.545L210.582 522.963L213.13 521.725L215.591 523.046L215.716 525.023L213.087 526.666L211.439 525.952L209.923 535.065L206.733 534.279L202.787 531.548L196.402 533.297L193.711 535.208L185.747 534.813L181.578 533.645L179.478 534.194L177.917 531.103L176.924 529.786L178.182 528.507L176.843 527.563L175.141 529.262L171.978 527.056L171.553 523.907L168.247 522.099L167.639 519.642L164.699 516.588L169.048 515.114L172.328 509.773L174.893 504.36L178.207 502.674Z" fill="#F0F0F0" stroke="white"/>
<path d="M168.246 522.099L171.552 523.908L171.977 527.057L175.14 529.262L176.842 527.564L178.181 528.508L176.924 529.786L177.916 531.104L176.577 532.812L177.065 535.549L179.699 538.762L177.632 541.073L176.72 543.414L177.309 544.286L176.417 545.319L173.902 545.441L172.055 545.867L171.875 545.319L172.525 544.449L173.132 542.661L172.362 542.702L171.308 541.338L170.416 540.99L169.706 539.816L168.693 539.356L167.923 538.309L166.95 538.719L166.199 541.176L164.901 541.706L165.348 541.073L163.28 539.539L161.497 538.74L160.706 537.713L159.267 536.435L160.543 536.106L161.335 532.583L158.719 529.682L160.077 526.341L158.112 526.36L160.199 523.482L158.475 521.288L157.158 518.29L161.313 516.242L164.698 516.588L167.639 519.642L168.246 522.099Z" fill="#F0F0F0" stroke="white"/>
<path d="M439.909 545.713L436.799 547.062L429.645 552.109L427.272 557.233L425.252 557.279L423.765 553.892L416.869 553.66L415.764 547.743L413.122 547.692L413.526 540.34L407.035 534.91L397.732 535.494L391.372 536.579L386.192 529.813L381.754 526.942L373.347 521.455L372.334 520.785L358.371 525.325L358.586 552.652L355.803 553.004L352.007 547.333L348.342 545.29L342.185 546.808L339.788 549.226L339.484 547.456L340.817 544.414L339.782 541.856L333.498 539.34L331.048 532.639L328.054 530.734L327.874 528.265L333.149 528.987L333.358 523.41L337.97 522.161L342.709 523.31L343.686 515.752L342.719 510.889L337.291 511.272L332.679 509.34L326.4 512.816L321.34 514.462L318.585 513.193L319.137 509.127L315.68 503.788L311.655 504.012L307.051 498.524L310.181 492.305L308.596 490.615L312.925 481.388L318.502 486.286L319.177 480.109L330.373 470.729L338.846 470.503L350.8 476.504L357.222 479.968L362.977 476.355L371.576 476.182L378.512 480.616L380.089 478.082L387.706 478.451L389.066 474.378L380.276 468.387L385.482 464.087L384.466 461.661L389.674 459.332L385.758 453.127L388.244 449.997L408.54 446.78L411.188 444.478L424.759 441.014L429.636 437.083L439.383 439.13L441.091 448.825L446.753 446.571L453.719 449.726L453.27 454.723L458.471 454.204L472.064 445.511L470.08 448.42L477.001 455.498L489.12 477.891L492.01 473.378L499.482 478.339L507.276 476.134L510.27 477.68L512.879 482.605L516.671 484.245L518.981 487.81L525.968 486.69L528.844 491.785L524.716 497.261L520.211 498.023L519.954 506.121L516.936 509.719L506.177 507.101L502.264 521.149L499.488 522.863L488.742 525.923L493.625 538.988L489.903 540.912L490.336 545.1L486.996 544.027L484.274 541.386L476.227 540.614L467.234 540.411L465.263 541.226L457.539 538.113L454.46 539.649L453.618 543.996L444.693 541.464L441.124 542.502L439.909 545.713Z" fill="#F0F0F0" stroke="white"/>
<path d="M653.478 695.229L648.791 697.96L644.344 696.2L644.188 691.296L646.861 688.702L652.786 687.095L655.904 687.232L657.117 689.42L654.734 691.936L653.478 695.229ZM747.408 487.245L756.847 489.912L763.272 495.783L765.467 503.414L773.709 503.424L778.412 500.238L787.376 497.841L784.524 505.117L782.418 508.041L780.559 516.673L776.911 524.193L770.33 522.834L765.674 525.542L767.103 532.035L766.322 540.843L763.552 541.042L763.585 544.773L760.082 540.432L757.927 544.553L749.551 547.696L750.398 551.516L745.709 551.253L743.135 548.986L739.407 554.101L733.43 557.939L729.014 562.479L721.431 564.523L717.438 567.79L711.597 569.688L714.479 566.461L713.343 563.732L717.64 558.985L714.775 555.252L710.047 557.77L703.925 562.691L700.582 567.218L695.263 567.552L692.495 570.794L695.356 575.454L699.793 576.58L699.977 579.642L704.267 581.625L710.347 576.764L715.162 579.422L718.669 579.602L719.549 583.153L711.869 585.037L709.333 588.658L704.058 592.001L701.275 596.63L707.115 600.235L709.246 606.632L712.546 612.525L716.229 617.417L716.14 622.109L712.736 623.825L714.034 627.162L717.226 629.096L716.392 634.143L715.015 639.014L711.983 639.563L708.024 646.154L703.631 654.057L698.594 661.168L691.137 666.619L683.593 671.558L677.482 672.229L674.167 674.821L672.29 672.927L669.222 675.825L661.642 678.734L655.902 679.622L654.051 685.717L651.045 686.054L649.623 681.872L650.908 679.634L643.631 677.779L641.067 678.723L635.607 677.218L633.024 674.854L633.881 671.492L628.924 670.422L626.308 668.221L621.685 671.345L616.412 672.02L612.087 671.989L609.175 673.415L606.365 674.27L607.185 680.91L604.293 680.752L603.806 679.392L603.641 676.993L599.662 678.684L597.314 677.616L593.287 675.434L594.865 670.585L591.432 669.449L590.137 664.031L584.412 665.01L585.064 657.978L590.199 652.988L590.418 648.024L590.257 643.386L587.89 641.935L586.077 638.337L582.903 638.791L577.055 637.875L578.887 635.294L576.345 631.452L572.479 634.056L567.929 632.538L561.677 636.464L556.74 641.02L552.365 641.784L549.99 640.142L547.127 639.993L543.25 638.577L540.32 640.13L536.733 644.658L536.279 639.859L532.971 641.146L526.646 640.548L520.51 639.145L516.109 636.451L511.894 635.238L510.074 632.273L507.027 631.385L501.551 627.334L497.202 625.413L494.955 626.909L487.418 622.527L482.089 618.533L480.569 611.513L484.461 612.374L484.639 609.097L482.482 605.793L483.031 600.485L477.201 592.769L468.282 590.08L466.676 584.933L462.67 581.785L461.705 579.838L460.89 575.946L461.08 573.274L457.786 571.703L456.004 572.398L454.629 565.968L456.172 564.364L455.424 562.72L460.602 559.382L464.351 557.993L470.092 558.944L472.145 554.391L479.103 553.54L481.035 550.681L489.583 546.752L490.345 545.102L489.912 540.914L493.634 538.989L488.751 525.925L499.497 522.864L502.274 521.151L506.186 507.103L516.947 509.72L519.964 506.123L520.223 498.025L524.729 497.261L528.857 491.785L530.981 491.104L532.404 496.849L536.962 501.163L544.697 504.19L548.44 510.61L546.353 519.756L548.305 523.1L554.75 524.412L562.054 525.48L568.608 530.215L571.958 531.053L574.428 537.955L577.612 542.344L583.592 542.173L594.786 543.821L601.999 542.8L607.353 543.893L615.377 548.325L621.94 548.319L624.341 550.571L630.657 546.675L639.418 544.137L647.546 543.858L653.883 541.272L657.775 537.305L661.572 534.796L660.694 532.32L658.96 529.42L661.81 524.511L664.86 525.203L670.435 526.751L675.84 522.687L684.109 519.696L688.084 514.547L691.903 512.311L699.78 511.264L704.06 512.152L704.654 509.341L699.739 503.757L695.387 501.178L691.218 504.153L685.868 502.902L682.798 503.923L681.399 500.623L685.231 492.445L687.872 486.164L694.381 489.321L702.025 484.022L701.975 480.291L706.871 471.151L709.889 468.346L709.821 463.468L706.846 461.349L711.324 456.875L718.063 455.241L725.255 454.995L733.372 457.692L738.134 461.001L741.487 469.921L743.52 473.668L745.409 478.95L747.408 487.245Z" fill="#F0F0F0" stroke="white"/>
<path d="M175.345 322.058L170.086 331.13L170.933 338.899L162.306 348.839L151.831 359.165L147.883 375.437L151.744 383.304L156.93 389.378L151.947 401.421L146.306 403.868L144.238 420.964L141.157 430.168L134.578 429.23L131.508 436.869L125.229 437.306L123.506 428.195L118.966 416.954L114.84 402.445L117.231 396.361L121.744 388.987L123.539 375.975L120.072 370.214L119.74 354.654L123.26 343.23L128.642 343.441L130.528 338.5L128.553 334.183L136.975 315.806L142.399 300.588L145.981 290.446L151.189 290.495L152.624 282.338L162.845 284.705L163.642 274.875L167.006 274.25L174.235 281.604L182.702 291.572L182.845 313.083L184.675 318.305L175.345 322.058Z" fill="#F0F0F0" stroke="white"/>
<path d="M763.583 544.772L764.341 546.051L762.281 545.613L759.927 548.08L758.308 550.544L758.513 555.705L755.71 557.283L754.745 558.537L752.7 560.632L749.089 561.794L746.734 563.684L746.564 566.717L745.932 567.489L748.09 568.621L751.162 571.662L750.381 573.331L748.071 573.785L744.239 574.118L742.125 577.213L739.705 576.97L739.364 577.588L736.732 576.289L736.076 577.573L734.488 578.14L734.296 576.853L732.892 576.227L731.433 575.134L732.917 572.103L734.196 571.29L733.714 570.025L735.089 566.27L734.735 565.125L731.569 564.363L729.012 562.477L733.428 557.937L739.405 554.099L743.133 548.985L745.707 551.252L750.394 551.515L749.549 547.695L757.925 544.553L760.08 540.431L763.583 544.772Z" fill="#F0F0F0" stroke="white"/>
<path d="M751.162 571.662L755.843 579.751L757.186 584.142L757.228 591.851L755.183 595.491L750.272 596.756L745.937 599.48L741.051 600.041L740.445 596.466L741.449 591.503L739.053 584.537L743.082 583.401L739.364 577.589L739.705 576.97L742.125 577.213L744.239 574.118L748.071 573.786L750.38 573.331L751.162 571.662Z" fill="#F0F0F0" stroke="white"/>
<path d="M785.27 601.613L785.962 603.845L782.908 607.762L780.683 605.689L777.902 607.192L776.463 610.956L772.929 609.126L772.971 606.064L775.971 602.19L779.057 602.944L781.285 600.203L785.27 601.613ZM819.644 581.722L817.599 587.101L818.545 590.45L815.719 595.123L808.79 598.222L799.255 598.625L791.528 606.06L787.883 603.569L787.659 598.688L778.225 600.133L771.807 603.205L765.458 603.329L770.958 608.093L767.338 618.947L763.831 621.603L761.208 619.15L762.539 613.423L759.108 611.562L756.904 607.149L762.03 605.157L764.876 601.068L770.331 597.682L774.31 593.17L785.105 591.191L790.905 592.549L796.58 580.617L800.196 583.85L808.152 577.056L811.237 574.393L814.647 565.914L813.717 557.983L816.009 553.47L821.775 552.151L824.731 562.032L824.571 567.715L819.553 574.683L819.644 581.722ZM835.556 531.562L839.37 533.165L843.206 529.972L844.411 538.382L836.366 540.41L831.617 547.689L823.089 542.692L820.139 550.666L814.106 550.774L813.359 543.537L816.042 537.856L821.837 537.444L823.418 527.035L825.021 521.06L831.395 529.024L835.556 531.562Z" fill="#F0F0F0" stroke="white"/>
<path d="M530.969 491.104L536.687 489.665L547.036 482.431L555.284 478.426L560.002 481.044L565.66 481.169L569.285 485.121L574.697 485.423L582.539 487.532L587.812 481.665L585.609 476.635L591.226 467.623L597.302 471.242L602.225 472.262L608.603 474.49L609.638 480.914L617.34 484.475L622.468 482.91L629.33 481.802L634.763 482.918L640.075 486.965L643.367 491.226L648.397 491.139L655.229 492.487L660.214 490.433L667.356 489.056L675.298 483.139L678.552 484.052L681.391 486.868L687.862 486.17L685.221 492.451L681.389 500.627L682.786 503.927L685.856 502.906L691.206 504.158L695.375 501.182L699.727 503.761L704.643 509.346L704.049 512.156L699.77 511.266L691.891 512.313L688.075 514.549L684.099 519.698L675.83 522.689L670.425 526.753L664.851 525.205L661.8 524.513L658.951 529.422L660.684 532.322L661.562 534.798L657.765 537.307L653.873 541.274L647.536 543.861L639.408 544.139L630.645 546.675L624.331 550.571L621.929 548.319L615.367 548.325L607.342 543.893L601.989 542.801L594.774 543.822L583.58 542.176L577.601 542.346L574.419 537.957L571.947 531.055L568.596 530.217L562.043 525.482L554.738 524.414L548.293 523.101L546.341 519.756L548.428 510.613L544.687 504.192L536.952 501.165L532.392 496.849L530.969 491.104Z" fill="#F0F0F0" stroke="white"/>
<path d="M1086.08 318.701L1080.7 324.452L1071.81 325.802L1071.68 338.304L1069.51 340.91L1064.43 340.537L1060.29 336.157L1053.08 332.449L1051.87 326.859L1046.36 324.727L1040.19 326.419L1037.25 321.837L1038.42 316.9L1031.93 320.063L1034.38 326.241L1031.3 331.722L1031.26 331.791L1024.29 337.372L1017.26 336.447L1022.15 343.105L1025.38 353.166L1027.88 356.393L1028.51 361.29L1027.11 364.389L1017 361.842L1001.84 370.568L997.019 371.898L988.72 379.822L980.848 386.602L978.855 391.54L971.096 383.996L956.964 392.544L954.498 388.524L949.273 393.155L942.019 391.679L940.272 398.703L933.765 408.797L933.96 412.93L940.137 415.201L939.409 429.628L934.374 429.988L932.051 438.023L934.308 442.093L924.824 446.865L922.942 457.32L914.854 459.516L913.23 468.536L905.411 476.627L903.407 470.66L901.084 457.713L898.058 437.118L900.666 423.666L905.241 417.726L905.523 413.004L913.951 410.721L923.64 397.604L932.976 386.526L942.725 377.686L947.085 361.503L940.497 362.492L937.237 372.013L923.482 384.317L919.039 370.51L905.038 374.376L891.462 392.869L895.94 399.401L883.835 402.146L875.449 403.224L875.842 395.591L867.412 393.968L860.692 399.194L844.109 397.374L826.268 400.508L808.698 420.49L787.913 443.271L796.457 444.451L799.125 450.256L804.394 452.297L807.864 447.697L813.814 448.298L821.645 458.34L821.829 465.93L817.59 474.658L817.132 484.845L814.685 498.091L806.51 509.722L804.694 515.172L797.332 524.19L790.026 532.948L786.522 537.365L779.296 541.707L775.874 541.802L772.467 538.208L765.186 543.609L764.339 546.042L763.579 544.764L763.546 541.032L766.316 540.833L767.097 532.026L765.668 525.53L770.324 522.824L776.905 524.184L780.553 516.663L782.412 508.032L784.518 505.109L787.37 497.834L778.406 500.23L773.703 503.416L765.461 503.407L763.265 495.776L756.841 489.905L747.402 487.237L745.396 478.95L743.506 473.668L741.473 469.921L738.121 461.001L733.358 457.692L725.241 454.995L718.049 455.241L711.31 456.875L706.832 461.35L709.807 463.468L709.875 468.346L706.857 471.151L701.961 480.291L702.012 484.022L694.367 489.321L687.858 486.164L681.385 486.862L678.546 484.044L675.292 483.131L667.35 489.048L660.21 490.425L655.225 492.48L648.393 491.131L643.363 491.218L640.071 486.957L634.759 482.91L629.324 481.794L622.462 482.902L617.336 484.467L609.632 480.906L608.599 474.48L602.221 472.254L597.298 471.234L591.222 467.615L585.605 476.627L587.808 481.657L582.535 487.526L574.693 485.417L569.279 485.115L565.654 481.165L559.996 481.04L555.28 478.42L547.03 482.427L536.681 489.659L530.963 491.098L528.839 491.779L525.962 486.684L518.975 487.804L516.668 484.239L512.876 482.599L510.265 477.676L507.271 476.13L499.477 478.335L492.007 473.374L489.117 477.887L476.996 455.494L470.076 448.416L472.059 445.507L458.468 454.2L453.267 454.719L453.716 449.722L446.748 446.567L441.086 448.823L439.378 439.128L429.631 437.079L424.754 441.012L411.183 444.476L408.534 446.776L388.239 449.993L385.753 453.123L389.668 459.328L384.461 461.657L385.477 464.083L380.271 468.383L389.061 474.376L387.703 478.45L380.086 478.08L378.511 480.614L371.574 476.179L362.976 476.351L357.219 479.964L350.799 476.5L338.843 470.499L330.37 470.726L319.174 480.105L318.499 486.282L312.922 481.384L308.595 490.611L310.179 492.302L307.05 498.521L311.653 504.008L315.679 503.784L319.135 509.123L318.586 513.189L321.341 514.458L318.868 519.083L313.611 520.36L308.22 528.267L313.149 535.415L312.615 540.417L318.538 549.037L315.3 551.95L314.369 553.778L311.969 553.288L308.241 548.905L306.717 548.661L303.306 546.977L301.647 543.978L296.589 542.442L293.3 543.597L292.35 542.232L284.965 538.69L276.98 537.487L272.395 536.214L271.734 537.094L264.818 530.761L258.63 527.904L253.945 523.418L257.893 522.188L262.395 515.7L259.361 512.595L267.354 509.37L267.211 507.631L262.342 508.914L262.513 505.37L265.308 503.128L270.556 502.536L271.409 499.838L270.209 495.337L272.413 491.017L272.349 488.574L264.354 485.848L261.184 485.939L257.837 481.987L253.676 483.328L246.788 480.345L246.906 478.666L244.977 474.941L240.652 474.523L240.203 471.83L241.557 470.064L238.091 465.083L232.468 465.938L230.82 465.495L229.45 467.501L227.425 467.145L226.092 461.464L224.819 458.485L225.864 457.643L230.239 457.957L232.35 455.98L230.787 453.556L227.129 451.947L227.456 450.289L225.249 448.606L221.848 442.507L223.011 439.965L222.481 435.501L217.179 433.212L214.333 434.359L213.563 431.968L207.853 429.539L206.11 423.757L205.648 418.937L203.034 416.627L205.358 413.418L203.748 403.819L207.607 397.759L206.791 395.904L212.956 389.964L207.273 384.772L218.885 370.448L223.922 363.768L225.963 357.764L217.935 349.531L220.152 341.513L215.269 332.124L218.922 320.974L212.613 305.582L217.618 294.986L209.312 285.333L210.103 274.88L214.484 273.48L223.713 267.313L229.309 261.871L238.219 271.272L253.071 274.901L273.564 291.626L277.726 298.412L278.084 307.689L272.063 314.836L263.207 318.407L238.994 308.13L235.012 309.871L243.854 319.73L244.2 325.831L244.554 338.894L251.537 342.697L255.775 345.902L256.475 339.892L253.208 334.474L256.661 329.629L269.772 337.558L274.339 334.476L270.689 325.042L283.33 312.001L288.336 312.782L293.401 317.483L296.559 308.176L292.037 299.891L294.693 291.369L290.706 282.293L305.877 287.016L308.976 295.108L302.109 296.864L302.146 304.675L306.415 309.391L314.795 306.41L316.122 297.491L327.451 290.672L346.379 278.016L350.468 278.755L345.122 287.73L351.85 289.249L355.736 284.25L365.901 283.842L373.956 277.666L380.136 286.604L386.299 276.764L380.616 267.91L383.436 262.759L399.456 267.485L406.964 272.298L426.619 289.318L430.246 281.629L424.733 273.677L424.574 270.433L418.038 268.92L419.827 261.517L416.926 248.961L416.761 243.667L426.772 228.211L430.331 211.926L434.364 208.293L448.723 213.156L449.855 223.182L444.713 237.27L448.087 242.646L449.831 254.132L448.599 275.551L454.582 284.701L452.255 294.388L441.632 314.115L447.831 316.096L449.988 311.233L455.956 307.722L457.395 300.849L462.09 294.1L458.929 285.86L461.461 276.027L455.53 274.781L454.226 266.235L458.553 250.223L451.508 236.618L461.215 224.931L459.962 212.127L462.666 211.709L465.515 221.747L463.378 238.512L469.181 241.591L466.709 229.264L475.785 222.341L487.041 221.397L497.063 231.417L492.241 216.673L491.701 196.784L501.133 192.874L514.178 193.733L525.93 191.178L521.523 180.769L527.8 167.197L534.031 166.617L544.577 155.953L558.897 153.024L560.708 146.925L574.949 144.832L579.386 149.873L591.559 137.808L601.523 138.193L603.016 128.061L608.2 117.743L621.004 107.468L630.306 115.608L622.921 121.664L635.208 125.372L636.672 137.044L641.628 131.352L657.484 131.667L669.71 142.969L674.064 151.386L672.714 162.71L666.713 168.981L652.461 180.427L648.387 186.383L655.113 189.154L663.136 194.091L668.017 190.396L670.785 202.763L673.166 197.813L681.838 194.766L699.24 197.95L700.563 206.802L723.237 209.568L723.547 195.112L735.057 198.482L743.717 198.378L752.474 208.316L754.971 219.996L751.762 227.416L758.573 240.922L767.103 247.679L772.336 229.925L781.037 237.655L790.279 233.059L800.777 238.313L804.771 233.525L813.644 235.928L809.729 219.683L816.89 211.816L865.874 223.54L870.492 233.898L884.69 246.768L906.591 243.628L917.389 246.364L921.903 253.13L921.244 264.767L927.925 269.189L935.185 266.015L944.804 265.607L955.043 268.653L965.322 266.938L974.77 280.467L981.492 275.663L977.105 265.848L979.521 258.85L996.824 263.272L1008.1 262.332L1023.7 269.766L1031.3 276.42L1044.58 287.751L1058.8 301.952L1058.34 310.534L1062 313.91L1060.74 303.956L1075.46 306.021L1086.08 318.701ZM839.592 493.756L834.135 478.892L831.897 470.17L832.036 461.473L830.158 452.763L828.748 446.67L826.334 447.972L828.487 452.237L823.473 456.427L822.993 468.605L826.171 477.138L825.933 488.458L824.678 494.719L825.297 503.496L824.691 511.262L825.697 517.839L829.253 511.777L833.363 516.506L833.514 511.02L828.229 502.84L831.566 491.027L839.592 493.756ZM176.065 440.59L170.386 438.934L162.902 441.996L161.666 446.111L168.345 447.165L178.319 447.026L177.884 444.65L178.462 442.083L176.065 440.59ZM1031.3 246.924L1038.38 245.919L1043.97 241.924L1044.43 239.626L1036.59 234.761L1031.99 234.724L1031.3 235.442L1024.38 242.493L1025.35 247.766L1031.3 246.924ZM818.751 194.524L813.606 202.097L814.555 203.099L825.67 205.196L833.893 205.065L833.238 200.095L825.533 192.725L818.751 194.524ZM866.286 176.094L872.556 167.876L858.945 162.315L848.834 159.063L847.536 165.998L857.616 174.252L866.286 176.094ZM817.679 172.817L837.671 173.389L841.936 157.634L822.332 145.89L808.009 144.9L800.854 149.117L797.939 164.112L808.685 177.678L817.679 172.817ZM339.659 223.008L334.113 226.795L334.906 236.142L344.723 240.684L346.163 248.07L363.883 250.201L367.087 248.764L356.713 235.018L355.61 220.48L364.112 202.794L372.195 183.8L389.044 164.131L405.608 153.806L424.826 142.702L428.47 135.534L424.7 126.196L414.144 129.299L404.855 137.988L386.804 142.287L368.897 156.618L356.767 167.932L358.235 177.353L345.249 194.818L350.236 197.178L339.477 213.177L339.659 223.008ZM624.929 91.575L626.54 80.5104L612.793 64.372L608.719 62.4666L604.262 65.7473L594.354 101.734L624.929 91.575ZM307.249 34.8728L313.123 42.3704L319.462 37.1612L320.219 31.9016L325.095 29.4411L332.376 25.1178L334.475 20.042L326.43 12.6004L321.318 18.2159L318.203 26.1952L317.095 17.2023L308.854 17.6105L298.265 23.7076L310.336 24.7154L307.249 34.8728ZM561.133 60.1086L570.134 71.1926L585.241 79.3208L597.076 75.8331L598.412 49.4812L585.924 18.4538L575.386 1L563.654 8.94834L549.571 31.8397L556.97 38.1651L561.133 60.1086Z" fill="#E8E8E8" stroke="white"/>
<path d="M360.011 364V352.364H367.852V354.392H362.472V357.165H367.449V359.193H362.472V361.972H367.875V364H360.011ZM369.763 364V355.273H372.183V358.659H372.865L375.24 355.273H378.081L374.996 359.602L378.115 364H375.24L373.087 360.903H372.183V364H369.763ZM381.626 364.165C381.07 364.165 380.573 364.068 380.138 363.875C379.702 363.678 379.357 363.388 379.104 363.006C378.854 362.619 378.729 362.138 378.729 361.562C378.729 361.078 378.818 360.67 378.996 360.341C379.174 360.011 379.416 359.746 379.723 359.545C380.03 359.345 380.378 359.193 380.768 359.091C381.162 358.989 381.575 358.917 382.007 358.875C382.515 358.822 382.924 358.773 383.234 358.727C383.545 358.678 383.77 358.606 383.911 358.511C384.051 358.417 384.121 358.277 384.121 358.091V358.057C384.121 357.697 384.007 357.419 383.78 357.222C383.556 357.025 383.238 356.926 382.825 356.926C382.39 356.926 382.043 357.023 381.786 357.216C381.528 357.405 381.357 357.644 381.274 357.932L379.036 357.75C379.149 357.22 379.373 356.761 379.706 356.375C380.039 355.985 380.469 355.686 380.996 355.477C381.526 355.265 382.14 355.159 382.837 355.159C383.321 355.159 383.786 355.216 384.229 355.33C384.676 355.443 385.071 355.619 385.416 355.858C385.765 356.097 386.039 356.403 386.24 356.778C386.441 357.15 386.541 357.595 386.541 358.114V364H384.246V362.79H384.178C384.037 363.062 383.85 363.303 383.615 363.511C383.38 363.716 383.098 363.877 382.768 363.994C382.439 364.108 382.058 364.165 381.626 364.165ZM382.32 362.494C382.676 362.494 382.99 362.424 383.263 362.284C383.536 362.14 383.75 361.947 383.905 361.705C384.06 361.462 384.138 361.187 384.138 360.881V359.955C384.062 360.004 383.958 360.049 383.825 360.091C383.696 360.129 383.551 360.165 383.388 360.199C383.225 360.229 383.062 360.258 382.899 360.284C382.736 360.307 382.589 360.328 382.456 360.347C382.172 360.388 381.924 360.455 381.712 360.545C381.5 360.636 381.335 360.759 381.217 360.915C381.1 361.066 381.041 361.256 381.041 361.483C381.041 361.812 381.161 362.064 381.399 362.239C381.642 362.409 381.948 362.494 382.32 362.494ZM387.543 357.176V355.273H395.452V357.176H392.639V364H390.332V357.176H387.543ZM400.584 364.17C399.686 364.17 398.913 363.989 398.266 363.625C397.622 363.258 397.125 362.739 396.777 362.068C396.429 361.394 396.254 360.597 396.254 359.676C396.254 358.778 396.429 357.991 396.777 357.312C397.125 356.634 397.616 356.106 398.249 355.727C398.885 355.348 399.631 355.159 400.487 355.159C401.063 355.159 401.599 355.252 402.095 355.438C402.595 355.619 403.031 355.894 403.402 356.261C403.777 356.629 404.069 357.091 404.277 357.648C404.485 358.201 404.589 358.848 404.589 359.591V360.256H397.22V358.756H402.311C402.311 358.407 402.235 358.098 402.084 357.83C401.932 357.561 401.722 357.35 401.453 357.199C401.188 357.044 400.879 356.966 400.527 356.966C400.16 356.966 399.834 357.051 399.55 357.222C399.269 357.388 399.05 357.614 398.891 357.898C398.732 358.178 398.65 358.491 398.646 358.835V360.261C398.646 360.693 398.726 361.066 398.885 361.381C399.048 361.695 399.277 361.938 399.572 362.108C399.868 362.278 400.218 362.364 400.624 362.364C400.893 362.364 401.139 362.326 401.362 362.25C401.586 362.174 401.777 362.061 401.936 361.909C402.095 361.758 402.216 361.572 402.3 361.352L404.538 361.5C404.425 362.038 404.192 362.508 403.839 362.909C403.491 363.307 403.04 363.617 402.487 363.841C401.938 364.061 401.304 364.17 400.584 364.17ZM406.169 367.273V355.273H408.555V356.739H408.663C408.769 356.504 408.923 356.265 409.124 356.023C409.328 355.777 409.593 355.572 409.919 355.409C410.249 355.242 410.658 355.159 411.146 355.159C411.783 355.159 412.37 355.326 412.908 355.659C413.446 355.989 413.875 356.487 414.197 357.153C414.519 357.816 414.68 358.648 414.68 359.648C414.68 360.621 414.523 361.443 414.209 362.114C413.898 362.78 413.474 363.286 412.936 363.631C412.402 363.972 411.804 364.142 411.141 364.142C410.671 364.142 410.271 364.064 409.942 363.909C409.616 363.754 409.349 363.559 409.141 363.324C408.932 363.085 408.773 362.845 408.663 362.602H408.589V367.273H406.169ZM408.538 359.636C408.538 360.155 408.61 360.608 408.754 360.994C408.898 361.381 409.107 361.682 409.379 361.898C409.652 362.11 409.983 362.216 410.374 362.216C410.768 362.216 411.101 362.108 411.374 361.892C411.646 361.672 411.853 361.369 411.993 360.983C412.137 360.593 412.209 360.144 412.209 359.636C412.209 359.133 412.139 358.689 411.999 358.307C411.858 357.924 411.652 357.625 411.379 357.409C411.107 357.193 410.771 357.085 410.374 357.085C409.98 357.085 409.646 357.189 409.374 357.398C409.105 357.606 408.898 357.902 408.754 358.284C408.61 358.667 408.538 359.117 408.538 359.636ZM418.607 360.807L421.749 355.273H424.135V364H421.828V358.449L418.697 364H416.294V355.273H418.607V360.807ZM432.149 358.67V360.574H427.592V358.67H432.149ZM428.388 355.273V364H426.075V355.273H428.388ZM433.666 355.273V364H431.371V355.273H433.666ZM442.8 352.068L443.538 353.648C443.292 353.852 443.019 354.004 442.72 354.102C442.421 354.197 442.063 354.259 441.646 354.29C441.233 354.32 440.73 354.341 440.135 354.352C439.461 354.36 438.911 354.468 438.487 354.676C438.063 354.884 437.741 355.212 437.521 355.659C437.302 356.102 437.158 356.682 437.089 357.398H437.175C437.436 356.864 437.804 356.451 438.277 356.159C438.754 355.867 439.343 355.722 440.044 355.722C440.786 355.722 441.436 355.884 441.993 356.21C442.554 356.536 442.989 357.004 443.3 357.614C443.61 358.223 443.766 358.955 443.766 359.807C443.766 360.693 443.591 361.464 443.243 362.119C442.898 362.771 442.408 363.277 441.771 363.636C441.135 363.992 440.377 364.17 439.499 364.17C438.616 364.17 437.855 363.985 437.214 363.614C436.578 363.242 436.086 362.695 435.737 361.972C435.393 361.248 435.22 360.358 435.22 359.301V358.585C435.22 356.483 435.629 354.924 436.447 353.909C437.266 352.894 438.468 352.379 440.055 352.364C440.487 352.356 440.877 352.354 441.226 352.358C441.574 352.362 441.879 352.345 442.141 352.307C442.406 352.269 442.625 352.189 442.8 352.068ZM439.51 362.295C439.881 362.295 440.199 362.199 440.464 362.006C440.733 361.812 440.94 361.536 441.084 361.176C441.232 360.816 441.305 360.386 441.305 359.886C441.305 359.39 441.232 358.97 441.084 358.625C440.94 358.277 440.733 358.011 440.464 357.83C440.196 357.648 439.874 357.557 439.499 357.557C439.218 357.557 438.966 357.608 438.743 357.71C438.519 357.812 438.328 357.964 438.169 358.165C438.014 358.362 437.893 358.606 437.805 358.898C437.722 359.186 437.68 359.515 437.68 359.886C437.68 360.633 437.841 361.222 438.163 361.653C438.489 362.081 438.938 362.295 439.51 362.295ZM446.866 367.273C446.56 367.273 446.272 367.248 446.003 367.199C445.738 367.153 445.518 367.095 445.344 367.023L445.889 365.216C446.173 365.303 446.429 365.35 446.656 365.358C446.887 365.366 447.086 365.313 447.253 365.199C447.423 365.085 447.562 364.892 447.668 364.619L447.81 364.25L444.679 355.273H447.224L449.031 361.682H449.122L450.946 355.273H453.509L450.116 364.943C449.954 365.413 449.732 365.822 449.452 366.17C449.175 366.523 448.825 366.794 448.401 366.983C447.976 367.176 447.465 367.273 446.866 367.273ZM454.747 367.273V355.273H457.134V356.739H457.241C457.348 356.504 457.501 356.265 457.702 356.023C457.906 355.777 458.171 355.572 458.497 355.409C458.827 355.242 459.236 355.159 459.724 355.159C460.361 355.159 460.948 355.326 461.486 355.659C462.024 355.989 462.454 356.487 462.776 357.153C463.098 357.816 463.259 358.648 463.259 359.648C463.259 360.621 463.101 361.443 462.787 362.114C462.476 362.78 462.052 363.286 461.514 363.631C460.98 363.972 460.382 364.142 459.719 364.142C459.249 364.142 458.849 364.064 458.52 363.909C458.194 363.754 457.927 363.559 457.719 363.324C457.51 363.085 457.351 362.845 457.241 362.602H457.168V367.273H454.747ZM457.116 359.636C457.116 360.155 457.188 360.608 457.332 360.994C457.476 361.381 457.685 361.682 457.957 361.898C458.23 362.11 458.562 362.216 458.952 362.216C459.346 362.216 459.679 362.108 459.952 361.892C460.224 361.672 460.431 361.369 460.571 360.983C460.715 360.593 460.787 360.144 460.787 359.636C460.787 359.133 460.717 358.689 460.577 358.307C460.437 357.924 460.23 357.625 459.957 357.409C459.685 357.193 459.349 357.085 458.952 357.085C458.558 357.085 458.224 357.189 457.952 357.398C457.683 357.606 457.476 357.902 457.332 358.284C457.188 358.667 457.116 359.117 457.116 359.636ZM470.849 355.273V357.176H467.224V364H464.872V355.273H470.849Z" fill="#F36600"/>
<path d="M831 329L638 346L416 383.636M416 383.636L229.549 338.846M416 383.636C416 383.636 211.795 398.237 157.286 400.891C102.777 403.544 42.3218 437.022 42.3218 437.022M416 383.636L374.44 302.715M416 383.636L218.51 417.217C203.773 425.802 183.43 437.022 183.43 437.022M416 383.636C416 383.636 212.396 432.277 178.454 474.613C144.512 516.949 143.053 552.351 143.053 552.351M416 383.636C416 383.636 226.942 449.788 218.51 493.952C210.078 538.117 228.597 568.774 228.597 568.774M416 383.636L283.052 498.12M416 383.636L380.306 516.547M416 383.636L595.609 523.519M416 383.636L606 389" stroke="#C4C4C4" stroke-dasharray="12 27"/>
<path opacity="0.2" d="M379.524 306.361C376.967 307.09 374.303 305.609 373.573 303.052C372.844 300.495 374.325 297.831 376.882 297.101C379.439 296.372 382.103 297.853 382.833 300.41C383.562 302.967 382.081 305.631 379.524 306.361Z" fill="#C4C4C4"/>
<path d="M378.939 304.303C377.518 304.708 376.038 303.885 375.633 302.465C375.228 301.044 376.051 299.564 377.471 299.159C378.892 298.754 380.372 299.577 380.777 300.997C381.182 302.418 380.359 303.898 378.939 304.303Z" fill="#C4C4C4"/>
<path opacity="0.2" d="M232.394 337.814C229.468 338.648 226.42 336.953 225.585 334.027C224.751 331.101 226.446 328.053 229.372 327.218C232.298 326.384 235.346 328.079 236.181 331.005C237.015 333.931 235.32 336.979 232.394 337.814Z" fill="#C4C4C4"/>
<path d="M231.723 335.46C230.097 335.924 228.403 334.982 227.94 333.357C227.476 331.731 228.418 330.037 230.043 329.574C231.669 329.11 233.363 330.052 233.826 331.677C234.29 333.303 233.348 334.997 231.723 335.46Z" fill="#C4C4C4"/>
<path opacity="0.2" d="M42.1175 441.535C39.88 442.173 37.5489 440.877 36.9107 438.64C36.2725 436.402 37.5689 434.071 39.8063 433.433C42.0437 432.795 44.3749 434.091 45.0131 436.328C45.6513 438.566 44.3549 440.897 42.1175 441.535Z" fill="#C4C4C4"/>
<path d="M41.6037 439.734C40.3607 440.088 39.0656 439.368 38.711 438.125C38.3565 436.882 39.0767 435.587 40.3197 435.232C41.5627 434.878 42.8578 435.598 43.2124 436.841C43.5669 438.084 42.8467 439.379 41.6037 439.734Z" fill="#C4C4C4"/>
<path opacity="0.2" d="M183.979 445.096C180.881 445.98 177.653 444.185 176.77 441.087C175.886 437.989 177.681 434.761 180.779 433.878C183.877 432.994 187.105 434.789 187.988 437.887C188.872 440.985 187.077 444.213 183.979 445.096Z" fill="#C4C4C4"/>
<path d="M183.267 442.603C181.546 443.094 179.753 442.097 179.262 440.376C178.771 438.655 179.768 436.862 181.489 436.371C183.21 435.88 185.003 436.877 185.494 438.598C185.985 440.319 184.988 442.112 183.267 442.603Z" fill="#C4C4C4"/>
<path opacity="0.2" d="M143.809 556.936C142.26 557.378 140.646 556.48 140.204 554.931C139.762 553.382 140.66 551.768 142.209 551.326C143.758 550.884 145.372 551.782 145.814 553.331C146.256 554.88 145.358 556.494 143.809 556.936Z" fill="#C4C4C4"/>
<path d="M143.453 555.689C142.593 555.935 141.696 555.436 141.451 554.575C141.205 553.715 141.704 552.818 142.565 552.573C143.425 552.327 144.322 552.826 144.567 553.687C144.813 554.547 144.314 555.444 143.453 555.689Z" fill="#C4C4C4"/>
<path opacity="0.2" d="M232.131 573.724C230.582 574.166 228.968 573.268 228.526 571.719C228.084 570.17 228.982 568.556 230.531 568.114C232.08 567.672 233.694 568.57 234.136 570.119C234.578 571.668 233.68 573.282 232.131 573.724Z" fill="#C4C4C4"/>
<path d="M231.776 572.477C230.916 572.723 230.019 572.224 229.774 571.363C229.528 570.503 230.027 569.606 230.888 569.361C231.748 569.115 232.645 569.614 232.89 570.475C233.136 571.335 232.637 572.232 231.776 572.477Z" fill="#C4C4C4"/>
<path opacity="0.2" d="M282.473 501.5C280.235 502.138 277.904 500.842 277.266 498.605C276.628 496.367 277.924 494.036 280.161 493.398C282.399 492.76 284.73 494.056 285.368 496.293C286.006 498.531 284.71 500.862 282.473 501.5Z" fill="#C4C4C4"/>
<path d="M281.959 499.699C280.716 500.053 279.421 499.333 279.066 498.09C278.712 496.847 279.432 495.552 280.675 495.197C281.918 494.843 283.213 495.563 283.568 496.806C283.922 498.049 283.202 499.344 281.959 499.699Z" fill="#C4C4C4"/>
<path opacity="0.2" d="M383.74 526.831C380.47 527.764 377.063 525.869 376.13 522.599C375.197 519.329 377.092 515.922 380.362 514.989C383.632 514.056 387.039 515.951 387.972 519.221C388.905 522.491 387.01 525.898 383.74 526.831Z" fill="#C4C4C4"/>
<path d="M382.989 524.199C381.173 524.718 379.28 523.665 378.762 521.848C378.243 520.032 379.296 518.139 381.113 517.621C382.929 517.102 384.822 518.155 385.34 519.972C385.859 521.788 384.806 523.681 382.989 524.199Z" fill="#C4C4C4"/>
<path opacity="0.2" d="M598.833 531.531C595.133 532.587 591.277 530.442 590.222 526.742C589.166 523.042 591.31 519.186 595.011 518.131C598.711 517.075 602.567 519.219 603.622 522.92C604.678 526.62 602.534 530.476 598.833 531.531Z" fill="#C4C4C4"/>
<path d="M597.984 528.552C595.928 529.139 593.786 527.947 593.2 525.892C592.613 523.836 593.804 521.694 595.86 521.108C597.916 520.521 600.058 521.712 600.644 523.768C601.231 525.824 600.04 527.966 597.984 528.552Z" fill="#C4C4C4"/>
<path opacity="0.2" d="M605.871 392.594C603.29 393.331 600.6 391.835 599.863 389.253C599.127 386.672 600.623 383.982 603.205 383.246C605.786 382.509 608.476 384.005 609.212 386.587C609.949 389.168 608.453 391.858 605.871 392.594Z" fill="#C4C4C4"/>
<path d="M605.277 390.517C603.842 390.926 602.348 390.095 601.939 388.661C601.53 387.227 602.361 385.732 603.795 385.323C605.229 384.914 606.724 385.745 607.133 387.179C607.542 388.613 606.711 390.108 605.277 390.517Z" fill="#C4C4C4"/>
<path opacity="0.2" d="M835.848 339.849C831.195 341.176 826.348 338.481 825.021 333.828C823.694 329.175 826.389 324.328 831.042 323.001C835.695 321.674 840.542 324.369 841.869 329.022C843.196 333.675 840.501 338.522 835.848 339.849Z" fill="#C4C4C4"/>
<path d="M834.781 336.105C832.196 336.842 829.503 335.345 828.766 332.76C828.029 330.175 829.526 327.482 832.111 326.745C834.696 326.008 837.389 327.505 838.126 330.09C838.863 332.675 837.366 335.368 834.781 336.105Z" fill="#C4C4C4"/>
<path opacity="0.2" d="M413 396C419.075 396 424 391.299 424 385.5C424 379.701 419.075 375 413 375C406.925 375 402 379.701 402 385.5C402 391.299 406.925 396 413 396Z" fill="#F36600"/>
<path d="M413 390C415.761 390 418 387.761 418 385C418 382.239 415.761 380 413 380C410.239 380 408 382.239 408 385C408 387.761 410.239 390 413 390Z" fill="#F36600"/>
</g>
</g>
<defs>
<clipPath id="clip0_108_2">
<rect width="1087" height="768" fill="white"/>
</clipPath>
</defs>
</svg>
