<svg width="277" height="71" viewBox="0 0 277 71" fill="none" xmlns="http://www.w3.org/2000/svg">
<g clip-path="url(#clip0_1_2)">
<path fill-rule="evenodd" clip-rule="evenodd" d="M89.71 47.04H276.92V63.54H89.71V47.04Z" fill="#367ACA"/>
<path fill-rule="evenodd" clip-rule="evenodd" d="M36.26 20.16C37.2 20.08 53.3 11.46 59.84 17.22C70.08 26.22 53.64 53.9 53.54 55.2L60.66 51.04C61.9 50.36 62.96 49.72 64.15 49.01L74.98 42.8C77.42 41.44 79.67 39.94 82.11 38.65C81.78 37.25 66.18 10.68 65.15 8.81001C64.33 7.33001 63.44 6.02001 62.67 4.57001L56.91 7.93001C56.14 6.78001 51.3 0.59001 50.43 0.0100098L31.98 14.47C31.45 14.85 32.26 14.85 32.12 14.87C33.96 14.72 35.73 14.57 37.95 14.64C39.85 14.7 41.95 15.22 43.7 15.37C43.07 16.23 38.08 18.59 36.26 20.17V20.16Z" fill="#367ACA"/>
<path fill-rule="evenodd" clip-rule="evenodd" d="M0 39.87C0.44 40.52 0.97 41.13 1.47 41.76L6 47.55C7.97 50.13 10.02 52.65 11.99 55.24L23.99 70.6C24.55 70.23 25.08 69.8 25.67 69.4C25.84 70.02 26.09 70.27 26.39 70.84C28.13 69.92 29.71 68.89 31.43 67.96C33.51 66.83 45.63 59.57 46.55 59.32C46.37 58.63 45.67 57.82 45.11 56.68C44.59 55.62 44.33 55.05 43.88 53.83C42.78 50.87 40.39 48.17 37.14 50.87C35.26 52.43 32.25 62.31 27.58 55.24C25.77 52.5 24.05 47.71 22.75 44.47C22.02 42.66 21.44 40.72 20.86 38.68C19.17 32.64 19.18 31.09 19.18 24.76C18.2 25.28 17.66 25.8 16.81 26.47L0 39.87Z" fill="#367ACA"/>
<path fill-rule="evenodd" clip-rule="evenodd" d="M54 27.15C54 28.32 54.69 30.79 53.37 33C51.27 36.54 46.72 33.13 42.1 34.21C40.4 34.61 38.77 35.88 38.4 37.47C39.68 37.44 41.6 36.75 44.29 38.06C47.94 39.84 48.13 44.58 47.38 48.13C46.83 50.75 45.84 52.28 45.6 53.31C47.29 52.92 49.99 50.41 51.05 49.16C55.1 44.38 57.02 37.05 55.28 30.66C55.1 30.01 54.92 29.31 54.75 28.79L54.09 27.29C54.09 27.29 54.04 27.19 54 27.14V27.15Z" fill="#367ACA"/>
<path fill-rule="evenodd" clip-rule="evenodd" d="M33.12 49.23C33.04 48.26 32.73 48.03 32.43 47.28C30.47 42.24 29.69 34.48 36.44 33.35C37.45 33.18 39.32 32.91 40.32 33.39C40.15 31.3 37.18 29.79 34.8 29.79C30.46 29.79 25.11 33.18 24.59 25.38C24.53 24.49 24.88 23.77 24.96 22.83C24.71 23.11 24.67 23.16 24.48 23.55C23.48 25.55 23.25 28.39 22.97 30.45C22.34 35.1 24.57 41.32 27.66 44.86C29.46 46.92 30.53 47.86 33.13 49.23H33.12Z" fill="#367ACA"/>
<path fill-rule="evenodd" clip-rule="evenodd" d="M27.6 24.75C27.6 27.81 29.89 28.63 31.74 28.19C36.66 27.01 35.8 21.39 32.4 21.39H31.2C29.66 21.39 27.6 23.12 27.6 24.75Z" fill="#367ACA"/>
<path fill-rule="evenodd" clip-rule="evenodd" d="M43.68 28.11C43.68 32.19 48.03 33.35 50.11 31.66C53.06 29.25 50.21 25.47 47.04 25.47C45.4 25.47 43.68 26.53 43.68 28.11Z" fill="#367ACA"/>
<path fill-rule="evenodd" clip-rule="evenodd" d="M60.24 28.11C60.77 27.5 60.93 26.58 61.11 25.62C61.3 24.59 61.3 23.24 61.11 22.2C60 15.91 50.72 17.49 46.87 19.79C46.4 20.07 46.61 19.93 46.31 20.19C47.25 20.11 47.62 19.83 48.61 19.61C51.08 19.07 54.47 18.91 56.48 19.86C60 21.52 60.23 24.3 60.23 28.11H60.24Z" fill="#367ACA"/>
<path fill-rule="evenodd" clip-rule="evenodd" d="M54 27.15L53.87 26.64L54 27.15Z" fill="#09491C"/>
<path fill-rule="evenodd" clip-rule="evenodd" d="M191.15 21.3H201.28V25.11H191.15V21.3Z" fill="#367ACA"/>
<path fill-rule="evenodd" clip-rule="evenodd" d="M210.32 29.14C210.44 27.61 214.83 14.57 215.51 13.69C216.3 14.28 220.14 27.24 220.78 29.13H210.33L210.32 29.14ZM207.05 32.74L223.89 32.81V37.78L228 37.75L227.95 29.16L225.51 29.13C223.73 24.74 222.01 19.92 220.41 15.3C219.5 12.67 218.86 8.49001 215.51 8.53001C211.74 8.58001 211.61 12.33 210.53 15.25L205.35 29.14H203.19L203.21 37.77H206.94L207.05 32.74Z" fill="#367ACA"/>
<path fill-rule="evenodd" clip-rule="evenodd" d="M89.42 8.73999V15.94C89.42 18.77 89.48 20.9 89.81 21.53C90.58 22.98 93.03 23.16 95.61 23.16C97.61 23.16 99.71 23.13 101.08 23.16L101.03 29.14H89.74L89.7 32.75C92.61 32.75 96.69 32.75 99.6 32.75C103.7 32.75 105.26 32.89 105.26 28.46C105.26 21.99 105.44 15.29 105.25 8.74999H101.1L101.07 19.51L93.59 19.45L93.56 8.74999H89.42V8.73999Z" fill="#367ACA"/>
<path fill-rule="evenodd" clip-rule="evenodd" d="M161.21 19.23H167.12C167.74 19.23 167.62 19.15 167.62 19.79C167.62 22.55 167.62 26.41 167.62 29.03C167.62 29.55 167.7 29.47 167.18 29.47H161.21V19.23ZM161.27 32.79C163.19 32.63 167.87 33.02 169.31 32.58C171.95 31.77 171.4 29.29 171.4 26.45C171.4 16.94 172.51 15.63 165.91 15.63C156.93 15.63 157.42 14.61 157.42 23.47C157.42 28.38 157.42 34.73 157.42 39.61L161.21 39.63L161.27 32.79Z" fill="#367ACA"/>
<path fill-rule="evenodd" clip-rule="evenodd" d="M233.89 22.82L233.93 19.23H239.52C239.92 19.23 239.88 19.15 239.88 19.53V22.42C239.88 22.9 239.95 22.82 239.47 22.82C237.84 22.82 235.21 22.82 233.89 22.82ZM229.77 20.22V28.69C229.77 32.39 230.89 32.75 234.43 32.74C237.29 32.74 240.3 32.84 243.14 32.71L243.17 29.47H233.88C233.88 28.6 233.88 26.99 233.88 26.07C240.34 25.9 243.52 26.96 243.62 22.97C243.69 20.21 244.1 17.05 242.11 16.04C240.75 15.35 235.8 15.61 233.94 15.63C230.38 15.67 229.77 16.77 229.77 20.22Z" fill="#367ACA"/>
<path fill-rule="evenodd" clip-rule="evenodd" d="M179.16 25.7C180.67 25.7 182.67 25.7 184.14 25.7C184.14 26.86 184.14 28.49 184.14 29.36H179.24C178.16 29.3 178.17 29.3 178.14 28.21C178.12 27.73 178.14 27.05 178.16 26.49C178.21 25.54 178.21 25.7 179.17 25.7H179.16ZM175.25 19.23H184.13V22.17C181.96 22.18 180.28 22.17 178.97 22.17C174.7 22.17 174.44 22.55 174.42 28.45C174.42 31.61 174.78 32.73 178.11 32.75C183.29 32.78 187.33 33.7 187.9 30.53L187.97 18.74C187.76 15.66 186.39 15.61 183.1 15.61C181.28 15.61 176.8 15.61 175.22 15.61L175.24 19.24L175.25 19.23Z" fill="#367ACA"/>
<path fill-rule="evenodd" clip-rule="evenodd" d="M250.67 25.72H256.59L256.61 32.72L260.43 32.74L260.44 15.63H256.58V22.26H250.64V15.63L246.8 15.64L246.79 32.75L250.65 32.68L250.66 27.69L250.67 25.72Z" fill="#367ACA"/>
<path fill-rule="evenodd" clip-rule="evenodd" d="M136.45 27.48V29.1C136.45 29.36 136.23 29.58 135.97 29.58H133.45C133.35 29.58 133.25 29.58 133.15 29.58H130.82C130.56 29.58 130.34 29.36 130.34 29.1V26.11C130.34 25.85 130.56 25.63 130.82 25.63H135.97C136.23 25.63 136.45 25.85 136.45 26.11V27.48ZM126.48 15.66C126.48 18.28 126.48 25.46 126.48 28.45C126.48 30.28 126.46 32.24 128.79 32.66C130.29 32.93 133.34 32.75 135 32.75C137.08 32.75 139.26 33.01 139.97 31.19C140.35 30.23 140.33 26.44 140.22 25.2C139.98 22.61 138.4 22.17 135.73 22.17C134.24 22.17 132.42 22.19 130.34 22.16V15.64L126.48 15.66Z" fill="#367ACA"/>
<path fill-rule="evenodd" clip-rule="evenodd" d="M111.65 32.75C111.78 32.23 115.91 20.45 116.06 20.28L121.04 32.74H124.79L121.38 23.13L119.56 18.47C118.9 16.8 118.48 15.52 116.3 15.45C114.61 15.4 113.51 16.57 112.84 18.4L111.08 23.21L107.72 32.76H111.65V32.75Z" fill="#367ACA"/>
<path fill-rule="evenodd" clip-rule="evenodd" d="M140.58 19.13L145.82 19.14L145.84 32.75H149.87L149.9 19.14L155.14 19.12L155.04 15.62H140.57L140.58 19.13Z" fill="#367ACA"/>
<path fill-rule="evenodd" clip-rule="evenodd" d="M262.67 19.13L267.92 19.14V32.75H271.71L271.72 19.14L276.92 19.13V15.62L262.67 15.63V19.13Z" fill="#367ACA"/>
<path d="M109.85 60C111.67 60 112.72 59.13 113.5 57.95L111.78 56.6C111.29 57.26 110.78 57.7 109.92 57.7C108.77 57.7 107.96 56.64 107.96 55.28C107.96 53.92 108.77 52.86 109.92 52.86C110.71 52.86 111.26 53.26 111.73 53.91L113.4 52.49C112.67 51.38 111.62 50.57 109.94 50.57C107.45 50.57 105.6 52.64 105.6 55.28C105.6 57.92 107.49 59.99 109.85 59.99V60Z" fill="white"/>
<path d="M121.74 60H124.02V53.14H126.49V50.93H119.27V53.14H121.74V60Z" fill="white"/>
<path d="M145.46 60H147.7V54.82L149.28 58.05H150.35L151.95 54.79V60H154.22V50.93H151.8L149.84 55.01L147.88 50.93H145.46V60Z" fill="white"/>
<path d="M159.98 60H162.38L162.97 58.38H166.15L166.75 60H169.2L165.69 50.87H163.49L159.98 60ZM163.64 56.42L164.57 53.84L165.49 56.42H163.64Z" fill="white"/>
<path d="M177.43 60H179.71V53.14H182.19V50.93H174.96V53.14H177.43V60Z" fill="white"/>
<path d="M202.52 60C204.12 60 205.23 58.89 205.23 53.36V53.01H207.15V59.87H209.43V50.8H203.1V52.06C203.1 57.55 202.49 57.91 201.84 57.91C201.73 57.91 201.42 57.88 201.31 57.86L201.16 59.79C201.34 59.85 201.92 60 202.52 60Z" fill="white"/>
<path d="M228.4 60H230.69V53.14H234.33V50.93H228.4V60Z" fill="white"/>
<path d="M240.1 60H242.23L245.42 54.9V60H247.68V50.93H245.55L242.36 56.04V50.93H240.1V60Z" fill="white"/>
<path d="M253.44 60H256.08L257.74 57.25H258.74V60H261.02V50.93H257.13C255.26 50.93 253.72 51.9 253.72 54.03C253.72 55.44 254.39 56.36 255.41 56.84L253.45 60H253.44ZM257.23 55.32C256.45 55.32 256.01 54.87 256.01 54.21C256.01 53.47 256.48 53.07 257.25 53.07H258.74V55.32H257.23Z" fill="white"/>
<path fill-rule="evenodd" clip-rule="evenodd" d="M135.81 50.75H136.14C137.12 50.75 138.01 51.15 138.65 51.79C139.29 52.43 139.69 53.32 139.69 54.3V56.44C139.69 57.42 139.29 58.31 138.65 58.95C138.01 59.59 137.12 59.99 136.15 59.99H135.82C134.85 59.99 133.96 59.59 133.32 58.95C132.68 58.3 132.28 57.41 132.28 56.44V54.3C132.28 53.33 132.68 52.44 133.32 51.8C133.96 51.15 134.85 50.75 135.83 50.75H135.81ZM135.81 52.88H136.14C136.93 52.88 137.57 53.52 137.57 54.31V56.45C137.57 57.24 136.93 57.88 136.14 57.88H135.81C135.02 57.88 134.38 57.24 134.38 56.45V54.31C134.38 53.52 135.02 52.88 135.81 52.88Z" fill="white"/>
<path fill-rule="evenodd" clip-rule="evenodd" d="M191.51 50.75H191.84C192.82 50.75 193.71 51.15 194.35 51.79C194.99 52.43 195.39 53.32 195.39 54.3V56.44C195.39 57.42 194.99 58.31 194.35 58.95C193.71 59.59 192.82 59.99 191.85 59.99H191.52C190.55 59.99 189.66 59.59 189.02 58.95C188.38 58.3 187.98 57.41 187.98 56.44V54.3C187.98 53.33 188.38 52.44 189.02 51.8C189.66 51.15 190.55 50.75 191.53 50.75H191.51ZM191.51 52.88H191.84C192.63 52.88 193.27 53.52 193.27 54.31V56.45C193.27 57.24 192.63 57.88 191.84 57.88H191.51C190.72 57.88 190.08 57.24 190.08 56.45V54.31C190.08 53.52 190.72 52.88 191.51 52.88Z" fill="white"/>
<path fill-rule="evenodd" clip-rule="evenodd" d="M218.75 50.75H219.08C220.06 50.75 220.95 51.15 221.59 51.79C222.23 52.43 222.63 53.32 222.63 54.3V56.44C222.63 57.42 222.23 58.31 221.59 58.95C220.95 59.59 220.06 59.99 219.09 59.99H218.76C217.79 59.99 216.9 59.59 216.26 58.95C215.62 58.3 215.22 57.41 215.22 56.44V54.3C215.22 53.33 215.62 52.44 216.26 51.8C216.9 51.15 217.79 50.75 218.77 50.75H218.75ZM218.75 52.88H219.08C219.87 52.88 220.51 53.52 220.51 54.31V56.45C220.51 57.24 219.87 57.88 219.08 57.88H218.75C217.96 57.88 217.32 57.24 217.32 56.45V54.31C217.32 53.52 217.96 52.88 218.75 52.88Z" fill="white"/>
</g>
<defs>
<clipPath id="clip0_1_2">
<rect width="276.92" height="70.83" fill="white"/>
</clipPath>
</defs>
</svg>
